%TF.GenerationSoftware,KiCad,Pcbnew,10.0.1*%
%TF.CreationDate,2026-05-21T08:35:30+02:00*%
%TF.ProjectId,Badge_RP2350_FPGA,42616467-655f-4525-9032-3335305f4650,v1.5.3*%
%TF.SameCoordinates,Original*%
%TF.FileFunction,Soldermask,Bot*%
%TF.FilePolarity,Negative*%
%FSLAX46Y46*%
G04 Gerber Fmt 4.6, Leading zero omitted, Abs format (unit mm)*
G04 Created by KiCad (PCBNEW 10.0.1) date 2026-05-21 08:35:30*
%MOMM*%
%LPD*%
G01*
G04 APERTURE LIST*
%ADD10C,0.000000*%
%ADD11C,1.000000*%
%ADD12C,0.650000*%
%ADD13O,2.100000X1.000000*%
%ADD14O,1.600000X1.000000*%
%ADD15R,1.700000X1.700000*%
%ADD16C,1.700000*%
%ADD17C,2.500000*%
%ADD18C,3.300000*%
%ADD19R,2.000000X2.000000*%
%ADD20C,2.000000*%
G04 APERTURE END LIST*
D10*
G36*
X94125625Y-110085843D02*
G01*
X94123882Y-110110157D01*
X94121007Y-110133919D01*
X94117027Y-110157114D01*
X94111966Y-110179725D01*
X94105851Y-110201734D01*
X94098707Y-110223125D01*
X94090558Y-110243882D01*
X94081432Y-110263988D01*
X94071352Y-110283426D01*
X94060346Y-110302179D01*
X94048437Y-110320231D01*
X94035652Y-110337565D01*
X94022017Y-110354165D01*
X94007555Y-110370013D01*
X93992294Y-110385094D01*
X93976258Y-110399389D01*
X93959474Y-110412883D01*
X93941965Y-110425560D01*
X93923759Y-110437401D01*
X93904880Y-110448391D01*
X93885354Y-110458513D01*
X93865207Y-110467750D01*
X93844463Y-110476086D01*
X93823149Y-110483503D01*
X93801289Y-110489986D01*
X93778910Y-110495517D01*
X93756037Y-110500080D01*
X93732694Y-110503658D01*
X93708909Y-110506234D01*
X93684706Y-110507792D01*
X93660110Y-110508315D01*
X93637067Y-110507850D01*
X93614395Y-110506450D01*
X93592119Y-110504110D01*
X93570269Y-110500826D01*
X93548871Y-110496592D01*
X93527953Y-110491403D01*
X93507543Y-110485254D01*
X93487668Y-110478140D01*
X93468355Y-110470056D01*
X93449632Y-110460997D01*
X93431527Y-110450958D01*
X93414067Y-110439933D01*
X93397280Y-110427917D01*
X93381193Y-110414906D01*
X93365834Y-110400894D01*
X93351229Y-110385876D01*
X93351229Y-110433878D01*
X93352287Y-110467743D01*
X93353616Y-110483857D01*
X93355484Y-110499424D01*
X93357895Y-110514445D01*
X93360855Y-110528919D01*
X93364367Y-110542848D01*
X93368436Y-110556230D01*
X93373067Y-110569066D01*
X93378264Y-110581356D01*
X93384031Y-110593100D01*
X93390373Y-110604297D01*
X93397294Y-110614948D01*
X93404800Y-110625053D01*
X93412893Y-110634612D01*
X93421579Y-110643625D01*
X93430862Y-110652091D01*
X93440747Y-110660011D01*
X93451238Y-110667385D01*
X93462340Y-110674213D01*
X93474057Y-110680494D01*
X93486393Y-110686229D01*
X93499353Y-110691418D01*
X93512941Y-110696061D01*
X93527162Y-110700158D01*
X93542021Y-110703708D01*
X93557521Y-110706712D01*
X93573667Y-110709170D01*
X93590465Y-110711082D01*
X93607917Y-110712448D01*
X93644805Y-110713540D01*
X93668825Y-110713039D01*
X93692835Y-110711555D01*
X93716757Y-110709115D01*
X93740514Y-110705746D01*
X93764031Y-110701477D01*
X93787232Y-110696334D01*
X93810038Y-110690346D01*
X93832376Y-110683539D01*
X93854166Y-110675941D01*
X93875335Y-110667581D01*
X93895804Y-110658484D01*
X93915498Y-110648679D01*
X93934340Y-110638194D01*
X93952253Y-110627055D01*
X93969162Y-110615290D01*
X93984989Y-110602928D01*
X94081690Y-110765020D01*
X94061234Y-110780713D01*
X94039325Y-110795437D01*
X94016056Y-110809187D01*
X93991523Y-110821957D01*
X93965819Y-110833740D01*
X93939041Y-110844531D01*
X93911282Y-110854323D01*
X93882638Y-110863110D01*
X93853203Y-110870887D01*
X93823072Y-110877646D01*
X93792339Y-110883382D01*
X93761101Y-110888089D01*
X93729450Y-110891761D01*
X93697483Y-110894391D01*
X93665294Y-110895974D01*
X93632977Y-110896503D01*
X93574196Y-110894710D01*
X93546120Y-110892461D01*
X93518927Y-110889303D01*
X93492621Y-110885230D01*
X93467208Y-110880237D01*
X93442692Y-110874319D01*
X93419079Y-110867469D01*
X93396372Y-110859683D01*
X93374577Y-110850955D01*
X93353698Y-110841280D01*
X93333742Y-110830651D01*
X93314711Y-110819064D01*
X93296612Y-110806514D01*
X93279448Y-110792994D01*
X93263226Y-110778499D01*
X93247949Y-110763023D01*
X93233622Y-110746562D01*
X93220251Y-110729110D01*
X93207841Y-110710661D01*
X93196395Y-110691209D01*
X93185919Y-110670750D01*
X93176418Y-110649278D01*
X93167897Y-110626787D01*
X93160359Y-110603272D01*
X93153812Y-110578727D01*
X93148258Y-110553147D01*
X93143703Y-110526527D01*
X93140152Y-110498860D01*
X93137609Y-110470142D01*
X93136080Y-110440367D01*
X93135569Y-110409529D01*
X93135569Y-110060995D01*
X93347751Y-110060995D01*
X93348090Y-110075587D01*
X93349096Y-110089874D01*
X93350758Y-110103847D01*
X93353063Y-110117495D01*
X93355998Y-110130807D01*
X93359551Y-110143774D01*
X93363708Y-110156385D01*
X93368459Y-110168630D01*
X93373789Y-110180497D01*
X93379686Y-110191977D01*
X93386138Y-110203058D01*
X93393132Y-110213732D01*
X93400655Y-110223986D01*
X93408695Y-110233812D01*
X93417240Y-110243197D01*
X93426275Y-110252133D01*
X93435790Y-110260607D01*
X93445771Y-110268611D01*
X93456206Y-110276133D01*
X93467082Y-110283163D01*
X93478387Y-110289691D01*
X93490107Y-110295706D01*
X93502231Y-110301198D01*
X93514745Y-110306156D01*
X93527638Y-110310570D01*
X93540896Y-110314429D01*
X93554507Y-110317723D01*
X93568458Y-110320442D01*
X93582736Y-110322575D01*
X93597330Y-110324111D01*
X93612226Y-110325040D01*
X93627412Y-110325352D01*
X93642602Y-110325036D01*
X93657510Y-110324096D01*
X93672122Y-110322541D01*
X93686426Y-110320385D01*
X93700409Y-110317637D01*
X93714057Y-110314310D01*
X93727357Y-110310414D01*
X93740296Y-110305960D01*
X93752862Y-110300961D01*
X93765040Y-110295426D01*
X93776818Y-110289368D01*
X93788183Y-110282797D01*
X93799121Y-110275724D01*
X93809619Y-110268162D01*
X93819665Y-110260120D01*
X93829245Y-110251611D01*
X93838346Y-110242645D01*
X93846955Y-110233234D01*
X93855059Y-110223388D01*
X93862645Y-110213120D01*
X93869699Y-110202440D01*
X93876208Y-110191360D01*
X93882160Y-110179890D01*
X93887541Y-110168043D01*
X93892338Y-110155828D01*
X93896539Y-110143258D01*
X93900128Y-110130343D01*
X93903095Y-110117095D01*
X93905425Y-110103525D01*
X93907106Y-110089645D01*
X93908124Y-110075464D01*
X93908466Y-110060995D01*
X93908120Y-110046537D01*
X93907091Y-110032385D01*
X93905392Y-110018552D01*
X93903038Y-110005045D01*
X93900042Y-109991876D01*
X93896419Y-109979054D01*
X93892183Y-109966589D01*
X93887346Y-109954492D01*
X93881923Y-109942771D01*
X93875928Y-109931438D01*
X93869375Y-109920501D01*
X93862278Y-109909971D01*
X93854651Y-109899858D01*
X93846506Y-109890172D01*
X93837860Y-109880922D01*
X93828724Y-109872119D01*
X93819113Y-109863773D01*
X93809042Y-109855893D01*
X93798523Y-109848489D01*
X93787572Y-109841572D01*
X93776200Y-109835151D01*
X93764424Y-109829236D01*
X93752256Y-109823838D01*
X93739710Y-109818965D01*
X93726800Y-109814629D01*
X93713540Y-109810838D01*
X93699945Y-109807604D01*
X93686027Y-109804935D01*
X93671801Y-109802842D01*
X93657280Y-109801335D01*
X93642479Y-109800423D01*
X93627412Y-109800117D01*
X93612348Y-109800425D01*
X93597559Y-109801342D01*
X93583057Y-109802859D01*
X93568857Y-109804964D01*
X93554971Y-109807647D01*
X93541412Y-109810898D01*
X93528195Y-109814707D01*
X93515332Y-109819063D01*
X93502837Y-109823957D01*
X93490723Y-109829377D01*
X93479004Y-109835313D01*
X93467693Y-109841756D01*
X93456804Y-109848694D01*
X93446349Y-109856118D01*
X93436342Y-109864017D01*
X93426797Y-109872380D01*
X93417726Y-109881198D01*
X93409144Y-109890461D01*
X93401064Y-109900157D01*
X93393498Y-109910277D01*
X93386461Y-109920810D01*
X93379966Y-109931746D01*
X93374026Y-109943074D01*
X93368654Y-109954785D01*
X93363864Y-109966868D01*
X93359670Y-109979312D01*
X93356084Y-109992108D01*
X93353120Y-110005245D01*
X93350791Y-110018712D01*
X93349111Y-110032500D01*
X93348094Y-110046598D01*
X93347751Y-110060995D01*
X93135569Y-110060995D01*
X93135569Y-109627589D01*
X93340792Y-109627589D01*
X93340792Y-109750028D01*
X93355453Y-109733517D01*
X93370977Y-109718153D01*
X93387331Y-109703924D01*
X93404480Y-109690819D01*
X93422392Y-109678827D01*
X93441032Y-109667937D01*
X93460367Y-109658137D01*
X93480364Y-109649416D01*
X93500988Y-109641763D01*
X93522206Y-109635167D01*
X93543985Y-109629616D01*
X93566291Y-109625100D01*
X93589090Y-109621607D01*
X93612349Y-109619125D01*
X93636033Y-109617645D01*
X93660110Y-109617154D01*
X93684706Y-109617667D01*
X93708909Y-109619196D01*
X93732694Y-109621725D01*
X93756037Y-109625240D01*
X93778910Y-109629724D01*
X93801289Y-109635162D01*
X93823149Y-109641539D01*
X93844463Y-109648840D01*
X93865207Y-109657048D01*
X93885354Y-109666149D01*
X93904880Y-109676127D01*
X93923759Y-109686967D01*
X93941965Y-109698654D01*
X93959474Y-109711171D01*
X93976258Y-109724503D01*
X93992294Y-109738636D01*
X94007555Y-109753554D01*
X94022017Y-109769240D01*
X94035652Y-109785681D01*
X94048437Y-109802860D01*
X94060346Y-109820762D01*
X94071352Y-109839372D01*
X94081432Y-109858673D01*
X94090558Y-109878652D01*
X94098707Y-109899292D01*
X94105851Y-109920578D01*
X94111966Y-109942494D01*
X94117027Y-109965026D01*
X94121007Y-109988157D01*
X94123882Y-110011873D01*
X94125625Y-110036157D01*
X94126212Y-110060995D01*
X94125625Y-110085843D01*
G37*
G36*
X94677871Y-109617674D02*
G01*
X94702339Y-109619233D01*
X94726215Y-109621822D01*
X94749473Y-109625437D01*
X94772088Y-109630070D01*
X94794032Y-109635717D01*
X94815279Y-109642370D01*
X94835802Y-109650024D01*
X94855576Y-109658673D01*
X94874573Y-109668310D01*
X94892767Y-109678930D01*
X94910131Y-109690526D01*
X94926639Y-109703092D01*
X94942265Y-109716622D01*
X94956982Y-109731110D01*
X94970763Y-109746550D01*
X94970763Y-109627589D01*
X95175988Y-109627589D01*
X95175988Y-110550056D01*
X94960328Y-110550056D01*
X94960328Y-110083953D01*
X94960026Y-110066874D01*
X94959127Y-110050333D01*
X94957639Y-110034330D01*
X94955574Y-110018866D01*
X94952941Y-110003942D01*
X94949749Y-109989557D01*
X94946009Y-109975711D01*
X94941730Y-109962405D01*
X94936922Y-109949639D01*
X94931595Y-109937414D01*
X94925759Y-109925729D01*
X94919423Y-109914585D01*
X94912598Y-109903983D01*
X94905293Y-109893921D01*
X94897518Y-109884402D01*
X94889282Y-109875424D01*
X94880597Y-109866988D01*
X94871470Y-109859095D01*
X94861913Y-109851744D01*
X94851935Y-109844936D01*
X94841545Y-109838672D01*
X94830754Y-109832950D01*
X94819572Y-109827773D01*
X94808008Y-109823139D01*
X94796072Y-109819050D01*
X94783774Y-109815505D01*
X94771123Y-109812505D01*
X94758130Y-109810049D01*
X94744804Y-109808139D01*
X94731155Y-109806774D01*
X94717193Y-109805955D01*
X94702928Y-109805682D01*
X94677767Y-109806613D01*
X94665694Y-109807778D01*
X94653964Y-109809411D01*
X94642583Y-109811512D01*
X94631555Y-109814083D01*
X94620885Y-109817125D01*
X94610577Y-109820639D01*
X94600636Y-109824626D01*
X94591066Y-109829087D01*
X94581873Y-109834022D01*
X94573060Y-109839433D01*
X94564632Y-109845322D01*
X94556594Y-109851688D01*
X94548950Y-109858533D01*
X94541706Y-109865858D01*
X94534864Y-109873664D01*
X94528431Y-109881952D01*
X94522411Y-109890724D01*
X94516808Y-109899979D01*
X94511627Y-109909719D01*
X94506872Y-109919946D01*
X94502549Y-109930659D01*
X94498661Y-109941861D01*
X94495213Y-109953552D01*
X94492210Y-109965733D01*
X94489657Y-109978405D01*
X94487557Y-109991569D01*
X94485917Y-110005227D01*
X94484739Y-110019379D01*
X94484029Y-110034026D01*
X94483791Y-110049169D01*
X94483791Y-110550056D01*
X94268131Y-110550056D01*
X94268131Y-110021342D01*
X94268607Y-109995700D01*
X94270021Y-109970945D01*
X94272355Y-109947074D01*
X94275588Y-109924080D01*
X94279702Y-109901960D01*
X94284676Y-109880709D01*
X94290493Y-109860321D01*
X94297132Y-109840792D01*
X94304574Y-109822117D01*
X94312800Y-109804291D01*
X94321790Y-109787310D01*
X94331524Y-109771167D01*
X94341985Y-109755860D01*
X94353152Y-109741382D01*
X94365005Y-109727729D01*
X94377526Y-109714896D01*
X94390695Y-109702879D01*
X94404493Y-109691672D01*
X94418900Y-109681270D01*
X94433897Y-109671669D01*
X94449465Y-109662864D01*
X94465585Y-109654850D01*
X94482236Y-109647623D01*
X94499400Y-109641176D01*
X94517057Y-109635507D01*
X94535188Y-109630608D01*
X94553773Y-109626477D01*
X94572793Y-109623108D01*
X94592230Y-109620496D01*
X94612062Y-109618636D01*
X94652840Y-109617154D01*
X94677871Y-109617674D01*
G37*
G36*
X95496010Y-109149861D02*
G01*
X95504905Y-109150462D01*
X95513632Y-109151452D01*
X95522183Y-109152822D01*
X95530549Y-109154563D01*
X95538723Y-109156666D01*
X95546695Y-109159121D01*
X95554458Y-109161920D01*
X95562003Y-109165053D01*
X95569321Y-109168511D01*
X95576404Y-109172286D01*
X95583244Y-109176366D01*
X95589832Y-109180745D01*
X95596161Y-109185412D01*
X95602220Y-109190358D01*
X95608003Y-109195574D01*
X95613501Y-109201051D01*
X95618704Y-109206779D01*
X95623606Y-109212750D01*
X95628197Y-109218955D01*
X95632469Y-109225384D01*
X95636413Y-109232027D01*
X95640022Y-109238877D01*
X95643287Y-109245923D01*
X95646199Y-109253157D01*
X95648750Y-109260569D01*
X95650932Y-109268150D01*
X95652736Y-109275892D01*
X95654153Y-109283784D01*
X95655176Y-109291818D01*
X95655796Y-109299984D01*
X95656005Y-109308273D01*
X95655802Y-109316563D01*
X95655199Y-109324729D01*
X95654203Y-109332763D01*
X95652821Y-109340655D01*
X95651061Y-109348396D01*
X95648929Y-109355977D01*
X95646433Y-109363390D01*
X95643580Y-109370623D01*
X95640378Y-109377670D01*
X95636834Y-109384519D01*
X95632954Y-109391163D01*
X95628747Y-109397592D01*
X95624219Y-109403796D01*
X95619378Y-109409767D01*
X95614232Y-109415496D01*
X95608786Y-109420973D01*
X95603049Y-109426189D01*
X95597028Y-109431135D01*
X95590729Y-109435802D01*
X95584161Y-109440180D01*
X95577331Y-109444261D01*
X95570246Y-109448035D01*
X95562912Y-109451493D01*
X95555339Y-109454626D01*
X95547531Y-109457425D01*
X95539498Y-109459881D01*
X95531246Y-109461983D01*
X95522782Y-109463724D01*
X95514114Y-109465095D01*
X95505249Y-109466085D01*
X95496194Y-109466685D01*
X95486956Y-109466888D01*
X95477718Y-109466679D01*
X95468663Y-109466060D01*
X95459798Y-109465040D01*
X95451130Y-109463627D01*
X95442666Y-109461831D01*
X95434414Y-109459660D01*
X95426380Y-109457126D01*
X95418573Y-109454235D01*
X95410999Y-109450998D01*
X95403666Y-109447424D01*
X95396580Y-109443521D01*
X95389750Y-109439300D01*
X95383182Y-109434768D01*
X95376884Y-109429937D01*
X95370863Y-109424813D01*
X95365126Y-109419408D01*
X95359680Y-109413729D01*
X95354533Y-109407786D01*
X95349692Y-109401589D01*
X95345164Y-109395146D01*
X95340957Y-109388467D01*
X95337078Y-109381560D01*
X95333533Y-109374435D01*
X95330331Y-109367101D01*
X95327478Y-109359568D01*
X95324982Y-109351844D01*
X95322851Y-109343939D01*
X95321090Y-109335861D01*
X95319708Y-109327621D01*
X95318712Y-109319226D01*
X95318109Y-109310687D01*
X95317907Y-109302012D01*
X95318115Y-109293924D01*
X95318735Y-109285971D01*
X95319758Y-109278160D01*
X95321176Y-109270499D01*
X95322980Y-109262997D01*
X95325161Y-109255661D01*
X95327712Y-109248500D01*
X95330624Y-109241521D01*
X95333889Y-109234733D01*
X95337498Y-109228143D01*
X95341443Y-109221760D01*
X95345715Y-109215592D01*
X95350306Y-109209646D01*
X95355207Y-109203931D01*
X95360411Y-109198455D01*
X95365908Y-109193226D01*
X95371691Y-109188251D01*
X95377751Y-109183539D01*
X95384079Y-109179098D01*
X95390667Y-109174936D01*
X95397507Y-109171060D01*
X95404591Y-109167480D01*
X95411909Y-109164202D01*
X95419454Y-109161235D01*
X95427217Y-109158588D01*
X95435189Y-109156267D01*
X95443363Y-109154281D01*
X95451729Y-109152639D01*
X95460280Y-109151347D01*
X95469007Y-109150415D01*
X95477902Y-109149849D01*
X95486956Y-109149659D01*
X95496010Y-109149861D01*
G37*
G36*
X95595481Y-110549360D02*
G01*
X95379821Y-110549360D01*
X95379821Y-109627589D01*
X95595481Y-109627589D01*
X95595481Y-110549360D01*
G37*
G36*
X96322463Y-109634546D02*
G01*
X96474120Y-109634546D01*
X96474120Y-109807073D01*
X96322463Y-109807073D01*
X96322463Y-110250915D01*
X96322123Y-110269741D01*
X96321109Y-110287998D01*
X96319425Y-110305685D01*
X96317077Y-110322799D01*
X96314070Y-110339340D01*
X96310411Y-110355304D01*
X96306105Y-110370690D01*
X96301158Y-110385496D01*
X96295574Y-110399720D01*
X96289360Y-110413360D01*
X96282522Y-110426415D01*
X96275064Y-110438882D01*
X96266993Y-110450760D01*
X96258314Y-110462046D01*
X96249033Y-110472739D01*
X96239155Y-110482836D01*
X96228686Y-110492337D01*
X96217632Y-110501238D01*
X96205998Y-110509538D01*
X96193790Y-110517236D01*
X96181012Y-110524328D01*
X96167672Y-110530814D01*
X96153775Y-110536691D01*
X96139326Y-110541958D01*
X96124330Y-110546612D01*
X96108794Y-110550652D01*
X96092723Y-110554076D01*
X96076122Y-110556881D01*
X96058998Y-110559066D01*
X96041355Y-110560630D01*
X96023200Y-110561569D01*
X96004538Y-110561882D01*
X95989936Y-110561646D01*
X95975372Y-110560934D01*
X95960885Y-110559746D01*
X95946515Y-110558078D01*
X95932299Y-110555930D01*
X95918278Y-110553298D01*
X95904488Y-110550181D01*
X95890970Y-110546578D01*
X95877761Y-110542485D01*
X95864901Y-110537901D01*
X95852428Y-110532823D01*
X95840381Y-110527251D01*
X95828799Y-110521181D01*
X95817720Y-110514612D01*
X95807183Y-110507541D01*
X95797227Y-110499967D01*
X95797227Y-110499272D01*
X95857751Y-110345527D01*
X95864116Y-110350313D01*
X95870685Y-110354761D01*
X95877447Y-110358875D01*
X95884393Y-110362658D01*
X95891515Y-110366115D01*
X95898803Y-110369251D01*
X95906248Y-110372068D01*
X95913840Y-110374571D01*
X95921571Y-110376765D01*
X95929432Y-110378653D01*
X95937413Y-110380239D01*
X95945504Y-110381528D01*
X95953698Y-110382524D01*
X95961984Y-110383229D01*
X95970354Y-110383650D01*
X95978799Y-110383789D01*
X95986449Y-110383647D01*
X95993879Y-110383220D01*
X96001085Y-110382511D01*
X96008067Y-110381521D01*
X96014824Y-110380252D01*
X96021353Y-110378704D01*
X96027654Y-110376879D01*
X96033724Y-110374778D01*
X96039564Y-110372403D01*
X96045171Y-110369756D01*
X96050543Y-110366837D01*
X96055680Y-110363649D01*
X96060580Y-110360191D01*
X96065242Y-110356467D01*
X96069664Y-110352477D01*
X96073845Y-110348223D01*
X96077784Y-110343706D01*
X96081478Y-110338927D01*
X96084927Y-110333888D01*
X96088130Y-110328590D01*
X96091084Y-110323035D01*
X96093789Y-110317225D01*
X96096243Y-110311159D01*
X96098444Y-110304841D01*
X96100392Y-110298271D01*
X96102084Y-110291450D01*
X96103520Y-110284381D01*
X96104698Y-110277064D01*
X96105617Y-110269501D01*
X96106275Y-110261694D01*
X96106803Y-110245350D01*
X96106803Y-109807073D01*
X95859837Y-109807073D01*
X95859837Y-109634546D01*
X96106803Y-109634546D01*
X96106803Y-109423756D01*
X96322463Y-109423756D01*
X96322463Y-109634546D01*
G37*
G36*
X96831699Y-110092997D02*
G01*
X96831995Y-110110076D01*
X96832876Y-110126617D01*
X96834333Y-110142619D01*
X96836357Y-110158083D01*
X96838936Y-110173008D01*
X96842063Y-110187393D01*
X96845726Y-110201238D01*
X96849917Y-110214544D01*
X96854625Y-110227310D01*
X96859842Y-110239535D01*
X96865556Y-110251220D01*
X96871760Y-110262364D01*
X96878442Y-110272967D01*
X96885594Y-110283028D01*
X96893205Y-110292548D01*
X96901266Y-110301526D01*
X96909767Y-110309961D01*
X96918699Y-110317855D01*
X96928052Y-110325205D01*
X96937816Y-110332013D01*
X96947982Y-110338278D01*
X96958539Y-110343999D01*
X96969478Y-110349176D01*
X96980790Y-110353810D01*
X96992465Y-110357899D01*
X97004493Y-110361444D01*
X97016864Y-110364445D01*
X97029569Y-110366900D01*
X97042598Y-110368810D01*
X97055942Y-110370175D01*
X97069590Y-110370994D01*
X97083533Y-110371267D01*
X97108425Y-110370336D01*
X97120360Y-110369169D01*
X97131948Y-110367532D01*
X97143185Y-110365424D01*
X97154068Y-110362843D01*
X97164592Y-110359788D01*
X97174754Y-110356256D01*
X97184548Y-110352246D01*
X97193972Y-110347757D01*
X97203020Y-110342786D01*
X97211690Y-110337333D01*
X97219976Y-110331394D01*
X97227875Y-110324970D01*
X97235383Y-110318058D01*
X97242495Y-110310656D01*
X97249208Y-110302763D01*
X97255517Y-110294378D01*
X97261419Y-110285497D01*
X97266909Y-110276121D01*
X97271983Y-110266247D01*
X97276638Y-110255873D01*
X97280868Y-110244999D01*
X97284671Y-110233621D01*
X97288041Y-110221739D01*
X97290975Y-110209351D01*
X97293469Y-110196455D01*
X97295519Y-110183050D01*
X97297120Y-110169134D01*
X97298269Y-110154705D01*
X97299193Y-110124302D01*
X97299193Y-109626893D01*
X97514853Y-109626893D01*
X97514853Y-110153520D01*
X97514385Y-110179173D01*
X97512990Y-110203956D01*
X97510686Y-110227875D01*
X97507486Y-110250931D01*
X97503406Y-110273130D01*
X97498463Y-110294474D01*
X97492672Y-110314968D01*
X97486047Y-110334614D01*
X97478606Y-110353416D01*
X97470362Y-110371378D01*
X97461333Y-110388503D01*
X97451533Y-110404796D01*
X97440977Y-110420258D01*
X97429682Y-110434895D01*
X97417663Y-110448710D01*
X97404936Y-110461705D01*
X97391515Y-110473885D01*
X97377418Y-110485254D01*
X97362658Y-110495815D01*
X97347252Y-110505571D01*
X97331215Y-110514526D01*
X97314563Y-110522683D01*
X97297311Y-110530047D01*
X97279475Y-110536621D01*
X97261070Y-110542408D01*
X97242113Y-110547411D01*
X97222617Y-110551635D01*
X97202600Y-110555083D01*
X97182076Y-110557759D01*
X97161062Y-110559666D01*
X97117622Y-110561187D01*
X97095438Y-110560666D01*
X97073528Y-110559108D01*
X97051935Y-110556519D01*
X97030706Y-110552904D01*
X97009884Y-110548270D01*
X96989514Y-110542624D01*
X96969642Y-110535970D01*
X96950311Y-110528316D01*
X96931568Y-110519667D01*
X96913457Y-110510030D01*
X96896022Y-110499411D01*
X96879309Y-110487815D01*
X96863362Y-110475249D01*
X96848226Y-110461719D01*
X96833946Y-110447231D01*
X96820568Y-110431791D01*
X96820568Y-110549360D01*
X96615343Y-110549360D01*
X96615343Y-109627589D01*
X96616039Y-109626893D01*
X96831699Y-109626893D01*
X96831699Y-110092997D01*
G37*
G36*
X98634891Y-110884676D02*
G01*
X98419232Y-110884676D01*
X98419232Y-110437356D01*
X98405058Y-110452741D01*
X98390207Y-110467075D01*
X98374702Y-110480365D01*
X98358566Y-110492619D01*
X98341823Y-110503846D01*
X98324495Y-110514055D01*
X98306608Y-110523252D01*
X98288183Y-110531447D01*
X98269245Y-110538647D01*
X98249816Y-110544860D01*
X98229921Y-110550095D01*
X98209583Y-110554360D01*
X98188824Y-110557664D01*
X98167669Y-110560013D01*
X98146142Y-110561416D01*
X98124264Y-110561882D01*
X98099173Y-110561339D01*
X98074525Y-110559719D01*
X98050343Y-110557038D01*
X98026650Y-110553312D01*
X98003470Y-110548556D01*
X97980825Y-110542787D01*
X97958740Y-110536021D01*
X97937236Y-110528273D01*
X97916338Y-110519558D01*
X97896069Y-110509894D01*
X97876451Y-110499294D01*
X97857508Y-110487777D01*
X97839263Y-110475356D01*
X97821740Y-110462048D01*
X97804960Y-110447869D01*
X97788949Y-110432834D01*
X97773728Y-110416960D01*
X97759321Y-110400262D01*
X97745751Y-110382756D01*
X97733042Y-110364457D01*
X97721216Y-110345382D01*
X97710297Y-110325546D01*
X97700308Y-110304965D01*
X97691271Y-110283655D01*
X97683211Y-110261632D01*
X97676151Y-110238911D01*
X97670113Y-110215509D01*
X97665121Y-110191440D01*
X97661198Y-110166722D01*
X97658367Y-110141369D01*
X97656651Y-110115397D01*
X97656074Y-110088823D01*
X97875212Y-110088823D01*
X97875552Y-110105197D01*
X97876563Y-110121184D01*
X97878230Y-110136775D01*
X97880538Y-110151961D01*
X97883475Y-110166732D01*
X97887025Y-110181082D01*
X97891174Y-110195000D01*
X97895908Y-110208479D01*
X97901213Y-110221509D01*
X97907075Y-110234082D01*
X97913478Y-110246190D01*
X97920409Y-110257823D01*
X97927854Y-110268973D01*
X97935798Y-110279631D01*
X97944228Y-110289789D01*
X97953128Y-110299438D01*
X97962484Y-110308570D01*
X97972283Y-110317175D01*
X97982510Y-110325245D01*
X97993151Y-110332771D01*
X98004191Y-110339745D01*
X98015616Y-110346158D01*
X98027412Y-110352001D01*
X98039565Y-110357266D01*
X98052061Y-110361945D01*
X98064884Y-110366027D01*
X98078021Y-110369505D01*
X98091458Y-110372370D01*
X98105181Y-110374614D01*
X98119174Y-110376227D01*
X98133424Y-110377201D01*
X98147917Y-110377528D01*
X98162416Y-110377201D01*
X98176683Y-110376227D01*
X98190705Y-110374614D01*
X98204465Y-110372370D01*
X98217949Y-110369505D01*
X98231142Y-110366027D01*
X98244029Y-110361945D01*
X98256595Y-110357266D01*
X98268824Y-110352001D01*
X98280702Y-110346158D01*
X98292213Y-110339745D01*
X98303343Y-110332771D01*
X98314077Y-110325245D01*
X98324400Y-110317175D01*
X98334295Y-110308570D01*
X98343750Y-110299438D01*
X98352748Y-110289789D01*
X98361274Y-110279631D01*
X98369313Y-110268973D01*
X98376851Y-110257823D01*
X98383873Y-110246190D01*
X98390362Y-110234082D01*
X98396305Y-110221509D01*
X98401687Y-110208479D01*
X98406491Y-110195000D01*
X98410703Y-110181082D01*
X98414309Y-110166732D01*
X98417293Y-110151961D01*
X98419640Y-110136775D01*
X98421335Y-110121184D01*
X98422363Y-110105197D01*
X98422709Y-110088823D01*
X98422361Y-110072448D01*
X98421327Y-110056461D01*
X98419623Y-110040870D01*
X98417264Y-110025684D01*
X98414266Y-110010913D01*
X98410644Y-109996563D01*
X98406413Y-109982645D01*
X98401589Y-109969166D01*
X98396187Y-109956136D01*
X98390222Y-109943563D01*
X98383711Y-109931455D01*
X98376668Y-109919822D01*
X98369109Y-109908672D01*
X98361049Y-109898013D01*
X98352504Y-109887855D01*
X98343489Y-109878206D01*
X98334019Y-109869075D01*
X98324111Y-109860470D01*
X98313778Y-109852400D01*
X98303038Y-109844874D01*
X98291904Y-109837900D01*
X98280393Y-109831487D01*
X98268520Y-109825643D01*
X98256301Y-109820378D01*
X98243750Y-109815700D01*
X98230884Y-109811618D01*
X98217717Y-109808140D01*
X98204265Y-109805274D01*
X98190544Y-109803031D01*
X98176568Y-109801418D01*
X98162354Y-109800443D01*
X98147917Y-109800117D01*
X98133485Y-109800445D01*
X98119289Y-109801425D01*
X98105341Y-109803048D01*
X98091658Y-109805303D01*
X98078254Y-109808183D01*
X98065143Y-109811677D01*
X98052339Y-109815778D01*
X98039859Y-109820476D01*
X98027716Y-109825762D01*
X98015925Y-109831627D01*
X98004500Y-109838062D01*
X97993457Y-109845057D01*
X97982809Y-109852605D01*
X97972572Y-109860695D01*
X97962761Y-109869319D01*
X97953389Y-109878467D01*
X97944471Y-109888132D01*
X97936023Y-109898302D01*
X97928059Y-109908971D01*
X97920593Y-109920128D01*
X97913640Y-109931764D01*
X97907215Y-109943871D01*
X97901332Y-109956439D01*
X97896006Y-109969460D01*
X97891252Y-109982924D01*
X97887085Y-109996822D01*
X97883518Y-110011145D01*
X97880567Y-110025884D01*
X97878246Y-110041031D01*
X97876570Y-110056575D01*
X97875554Y-110072509D01*
X97875212Y-110088823D01*
X97656074Y-110088823D01*
X97656653Y-110062375D01*
X97658375Y-110036521D01*
X97661214Y-110011279D01*
X97665149Y-109986664D01*
X97670156Y-109962692D01*
X97676210Y-109939379D01*
X97683289Y-109916741D01*
X97691369Y-109894794D01*
X97700426Y-109873554D01*
X97710437Y-109853038D01*
X97721378Y-109833261D01*
X97733225Y-109814240D01*
X97745956Y-109795989D01*
X97759545Y-109778527D01*
X97773971Y-109761867D01*
X97789209Y-109746028D01*
X97805236Y-109731024D01*
X97822028Y-109716872D01*
X97839562Y-109703587D01*
X97857814Y-109691186D01*
X97876760Y-109679685D01*
X97896377Y-109669100D01*
X97916641Y-109659447D01*
X97937530Y-109650742D01*
X97959018Y-109643001D01*
X97981083Y-109636240D01*
X98003702Y-109630475D01*
X98026849Y-109625722D01*
X98050503Y-109621997D01*
X98074639Y-109619317D01*
X98099234Y-109617697D01*
X98124264Y-109617154D01*
X98147650Y-109617660D01*
X98170572Y-109619180D01*
X98193006Y-109621717D01*
X98214931Y-109625274D01*
X98236321Y-109629854D01*
X98257154Y-109635460D01*
X98277405Y-109642096D01*
X98297053Y-109649764D01*
X98316073Y-109658467D01*
X98334442Y-109668209D01*
X98352136Y-109678992D01*
X98369132Y-109690819D01*
X98385406Y-109703695D01*
X98400936Y-109717621D01*
X98415697Y-109732600D01*
X98429666Y-109748637D01*
X98429666Y-109627589D01*
X98634891Y-109627589D01*
X98634891Y-110088823D01*
X98634891Y-110884676D01*
G37*
G36*
X99834665Y-109617682D02*
G01*
X99857581Y-109619258D01*
X99880000Y-109621873D01*
X99901892Y-109625513D01*
X99923231Y-109630168D01*
X99943986Y-109635827D01*
X99964130Y-109642479D01*
X99983635Y-109650111D01*
X100002470Y-109658715D01*
X100020609Y-109668276D01*
X100038022Y-109678786D01*
X100054681Y-109690232D01*
X100070557Y-109702604D01*
X100085622Y-109715890D01*
X100099847Y-109730078D01*
X100113204Y-109745158D01*
X100113204Y-109627589D01*
X100318429Y-109627589D01*
X100318429Y-110550056D01*
X100102769Y-110550056D01*
X100102769Y-110081866D01*
X100102487Y-110064976D01*
X100101648Y-110048613D01*
X100100261Y-110032777D01*
X100098334Y-110017468D01*
X100095878Y-110002688D01*
X100092901Y-109988437D01*
X100089412Y-109974716D01*
X100085421Y-109961525D01*
X100080936Y-109948864D01*
X100075968Y-109936736D01*
X100070525Y-109925139D01*
X100064616Y-109914076D01*
X100058250Y-109903546D01*
X100051437Y-109893550D01*
X100044186Y-109884089D01*
X100036506Y-109875163D01*
X100028406Y-109866773D01*
X100019895Y-109858920D01*
X100010983Y-109851604D01*
X100001678Y-109844826D01*
X99991991Y-109838587D01*
X99981929Y-109832887D01*
X99971503Y-109827726D01*
X99960721Y-109823107D01*
X99949592Y-109819028D01*
X99938126Y-109815491D01*
X99926332Y-109812497D01*
X99914219Y-109810045D01*
X99901796Y-109808137D01*
X99889073Y-109806774D01*
X99876058Y-109805955D01*
X99862761Y-109805682D01*
X99838765Y-109806613D01*
X99827265Y-109807778D01*
X99816103Y-109809411D01*
X99805281Y-109811512D01*
X99794804Y-109814083D01*
X99784676Y-109817125D01*
X99774899Y-109820639D01*
X99765478Y-109824626D01*
X99756416Y-109829087D01*
X99747717Y-109834022D01*
X99739385Y-109839433D01*
X99731424Y-109845322D01*
X99723836Y-109851688D01*
X99716627Y-109858533D01*
X99709799Y-109865858D01*
X99703356Y-109873664D01*
X99697302Y-109881952D01*
X99691640Y-109890724D01*
X99686375Y-109899979D01*
X99681510Y-109909719D01*
X99677049Y-109919946D01*
X99672994Y-109930659D01*
X99669351Y-109941861D01*
X99666123Y-109953552D01*
X99663313Y-109965733D01*
X99660926Y-109978405D01*
X99658964Y-109991569D01*
X99656332Y-110019379D01*
X99655449Y-110049169D01*
X99655449Y-110550056D01*
X99439790Y-110550056D01*
X99439790Y-110081866D01*
X99439504Y-110064976D01*
X99438653Y-110048613D01*
X99437248Y-110032777D01*
X99435298Y-110017468D01*
X99432812Y-110002688D01*
X99429802Y-109988437D01*
X99426276Y-109974716D01*
X99422246Y-109961525D01*
X99417720Y-109948864D01*
X99412708Y-109936736D01*
X99407221Y-109925139D01*
X99401269Y-109914076D01*
X99394862Y-109903546D01*
X99388008Y-109893550D01*
X99380719Y-109884089D01*
X99373005Y-109875163D01*
X99364874Y-109866773D01*
X99356338Y-109858920D01*
X99347406Y-109851604D01*
X99338088Y-109844826D01*
X99328393Y-109838587D01*
X99318333Y-109832887D01*
X99307917Y-109827726D01*
X99297154Y-109823107D01*
X99286055Y-109819028D01*
X99274630Y-109815491D01*
X99262888Y-109812497D01*
X99250840Y-109810045D01*
X99238495Y-109808137D01*
X99225864Y-109806774D01*
X99212956Y-109805955D01*
X99199781Y-109805682D01*
X99175785Y-109806613D01*
X99164286Y-109807778D01*
X99153123Y-109809411D01*
X99142302Y-109811512D01*
X99131825Y-109814083D01*
X99121696Y-109817125D01*
X99111919Y-109820639D01*
X99102498Y-109824626D01*
X99093436Y-109829087D01*
X99084737Y-109834022D01*
X99076406Y-109839433D01*
X99068444Y-109845322D01*
X99060857Y-109851688D01*
X99053647Y-109858533D01*
X99046819Y-109865858D01*
X99040376Y-109873664D01*
X99034322Y-109881952D01*
X99028661Y-109890724D01*
X99023396Y-109899979D01*
X99018530Y-109909719D01*
X99014069Y-109919946D01*
X99010015Y-109930659D01*
X99006372Y-109941861D01*
X99003144Y-109953552D01*
X99000334Y-109965733D01*
X98997946Y-109978405D01*
X98995984Y-109991569D01*
X98993353Y-110019379D01*
X98992469Y-110049169D01*
X98992469Y-110550056D01*
X98776809Y-110550056D01*
X98776809Y-110021342D01*
X98777262Y-109995700D01*
X98778613Y-109970945D01*
X98780844Y-109947074D01*
X98783939Y-109924080D01*
X98787882Y-109901960D01*
X98792657Y-109880709D01*
X98798247Y-109860321D01*
X98804636Y-109840792D01*
X98811807Y-109822117D01*
X98819745Y-109804291D01*
X98828433Y-109787309D01*
X98837855Y-109771167D01*
X98847994Y-109755860D01*
X98858834Y-109741382D01*
X98870359Y-109727729D01*
X98882552Y-109714896D01*
X98895398Y-109702879D01*
X98908879Y-109691672D01*
X98922980Y-109681270D01*
X98937684Y-109671669D01*
X98952976Y-109662864D01*
X98968838Y-109654850D01*
X98985254Y-109647623D01*
X99002209Y-109641176D01*
X99019685Y-109635507D01*
X99037666Y-109630608D01*
X99056137Y-109626477D01*
X99075081Y-109623108D01*
X99094481Y-109620496D01*
X99114321Y-109618636D01*
X99134586Y-109617523D01*
X99155258Y-109617154D01*
X99182505Y-109617833D01*
X99209175Y-109619851D01*
X99235230Y-109623175D01*
X99260631Y-109627774D01*
X99285339Y-109633616D01*
X99309315Y-109640670D01*
X99332520Y-109648903D01*
X99354917Y-109658286D01*
X99376465Y-109668785D01*
X99397127Y-109680369D01*
X99416864Y-109693008D01*
X99435637Y-109706668D01*
X99453407Y-109721319D01*
X99470136Y-109736928D01*
X99485784Y-109753466D01*
X99500313Y-109770898D01*
X99512870Y-109752090D01*
X99526515Y-109734532D01*
X99541212Y-109718219D01*
X99556924Y-109703146D01*
X99573614Y-109689308D01*
X99591245Y-109676701D01*
X99609782Y-109665318D01*
X99629187Y-109655155D01*
X99649423Y-109646207D01*
X99670455Y-109638468D01*
X99692244Y-109631934D01*
X99714755Y-109626600D01*
X99737951Y-109622459D01*
X99761795Y-109619508D01*
X99786250Y-109617742D01*
X99811280Y-109617154D01*
X99834665Y-109617682D01*
G37*
G36*
X101442049Y-110114479D02*
G01*
X101440284Y-110139649D01*
X101437368Y-110164311D01*
X101433325Y-110188444D01*
X101428175Y-110212027D01*
X101421943Y-110235036D01*
X101414649Y-110257452D01*
X101406316Y-110279253D01*
X101396965Y-110300417D01*
X101386620Y-110320922D01*
X101375303Y-110340748D01*
X101363034Y-110359871D01*
X101349838Y-110378272D01*
X101335735Y-110395929D01*
X101320748Y-110412819D01*
X101304899Y-110428921D01*
X101288211Y-110444215D01*
X101270705Y-110458678D01*
X101252403Y-110472288D01*
X101233329Y-110485025D01*
X101213503Y-110496867D01*
X101192949Y-110507792D01*
X101171687Y-110517778D01*
X101149742Y-110526805D01*
X101127133Y-110534851D01*
X101103885Y-110541893D01*
X101080019Y-110547911D01*
X101055556Y-110552884D01*
X101030520Y-110556788D01*
X101004932Y-110559604D01*
X100978815Y-110561309D01*
X100952191Y-110561882D01*
X100925563Y-110561311D01*
X100899434Y-110559612D01*
X100873827Y-110556805D01*
X100848766Y-110552912D01*
X100824272Y-110547954D01*
X100800368Y-110541953D01*
X100777078Y-110534929D01*
X100754423Y-110526903D01*
X100732426Y-110517897D01*
X100711110Y-110507932D01*
X100690498Y-110497029D01*
X100670613Y-110485209D01*
X100651476Y-110472493D01*
X100633111Y-110458902D01*
X100615540Y-110444458D01*
X100598787Y-110429182D01*
X100582873Y-110413095D01*
X100567821Y-110396217D01*
X100553655Y-110378571D01*
X100540396Y-110360177D01*
X100528068Y-110341056D01*
X100516693Y-110321230D01*
X100506293Y-110300720D01*
X100496892Y-110279547D01*
X100488512Y-110257731D01*
X100481176Y-110235295D01*
X100474906Y-110212259D01*
X100469726Y-110188644D01*
X100465657Y-110164472D01*
X100462722Y-110139764D01*
X100460945Y-110114540D01*
X100460348Y-110088823D01*
X100677399Y-110088823D01*
X100677747Y-110105197D01*
X100678780Y-110121184D01*
X100680484Y-110136775D01*
X100682843Y-110151961D01*
X100685842Y-110166732D01*
X100689464Y-110181082D01*
X100693695Y-110195000D01*
X100698519Y-110208479D01*
X100703921Y-110221509D01*
X100709885Y-110234082D01*
X100716397Y-110246190D01*
X100723440Y-110257823D01*
X100730999Y-110268973D01*
X100739059Y-110279631D01*
X100747604Y-110289789D01*
X100756619Y-110299438D01*
X100766089Y-110308570D01*
X100775997Y-110317175D01*
X100786330Y-110325245D01*
X100797070Y-110332771D01*
X100808204Y-110339745D01*
X100819714Y-110346158D01*
X100831587Y-110352001D01*
X100843807Y-110357266D01*
X100856357Y-110361945D01*
X100869224Y-110366027D01*
X100882391Y-110369505D01*
X100895843Y-110372370D01*
X100909564Y-110374614D01*
X100923539Y-110376227D01*
X100937753Y-110377201D01*
X100952191Y-110377528D01*
X100966622Y-110377201D01*
X100980819Y-110376227D01*
X100994766Y-110374614D01*
X101008449Y-110372370D01*
X101021854Y-110369505D01*
X101034965Y-110366027D01*
X101047768Y-110361945D01*
X101060249Y-110357266D01*
X101072392Y-110352001D01*
X101084183Y-110346158D01*
X101095608Y-110339745D01*
X101106651Y-110332771D01*
X101117299Y-110325245D01*
X101127535Y-110317175D01*
X101137347Y-110308570D01*
X101146719Y-110299438D01*
X101155636Y-110289789D01*
X101164085Y-110279631D01*
X101172049Y-110268973D01*
X101179515Y-110257823D01*
X101186468Y-110246190D01*
X101192893Y-110234082D01*
X101198776Y-110221509D01*
X101204101Y-110208479D01*
X101208855Y-110195000D01*
X101213023Y-110181082D01*
X101216590Y-110166732D01*
X101219541Y-110151961D01*
X101221861Y-110136775D01*
X101223537Y-110121184D01*
X101224554Y-110105197D01*
X101224896Y-110088823D01*
X101224559Y-110072448D01*
X101223560Y-110056461D01*
X101221911Y-110040870D01*
X101219626Y-110025684D01*
X101216719Y-110010913D01*
X101213202Y-109996563D01*
X101209089Y-109982645D01*
X101204395Y-109969166D01*
X101199132Y-109956136D01*
X101193313Y-109943563D01*
X101186953Y-109931455D01*
X101180065Y-109919822D01*
X101172663Y-109908672D01*
X101164759Y-109898013D01*
X101156367Y-109887855D01*
X101147502Y-109878206D01*
X101138176Y-109869075D01*
X101128402Y-109860470D01*
X101118195Y-109852400D01*
X101107568Y-109844874D01*
X101096535Y-109837900D01*
X101085108Y-109831487D01*
X101073302Y-109825643D01*
X101061129Y-109820378D01*
X101048604Y-109815700D01*
X101035740Y-109811618D01*
X101022551Y-109808140D01*
X101009049Y-109805274D01*
X100995248Y-109803031D01*
X100981163Y-109801418D01*
X100966806Y-109800443D01*
X100952191Y-109800117D01*
X100937570Y-109800445D01*
X100923195Y-109801425D01*
X100909082Y-109803048D01*
X100895243Y-109805303D01*
X100881694Y-109808183D01*
X100868449Y-109811677D01*
X100855521Y-109815778D01*
X100842926Y-109820476D01*
X100830677Y-109825762D01*
X100818789Y-109831627D01*
X100807276Y-109838062D01*
X100796153Y-109845057D01*
X100785433Y-109852605D01*
X100775130Y-109860695D01*
X100765260Y-109869319D01*
X100755836Y-109878467D01*
X100746873Y-109888132D01*
X100738385Y-109898302D01*
X100730385Y-109908971D01*
X100722889Y-109920128D01*
X100715911Y-109931764D01*
X100709465Y-109943871D01*
X100703565Y-109956439D01*
X100698226Y-109969460D01*
X100693461Y-109982924D01*
X100689285Y-109996822D01*
X100685713Y-110011145D01*
X100682758Y-110025884D01*
X100680435Y-110041031D01*
X100678757Y-110056575D01*
X100677741Y-110072509D01*
X100677399Y-110088823D01*
X100460348Y-110088823D01*
X100460955Y-110063109D01*
X100462760Y-110037897D01*
X100465740Y-110013208D01*
X100469868Y-109989061D01*
X100475121Y-109965478D01*
X100481474Y-109942479D01*
X100488902Y-109920085D01*
X100497381Y-109898316D01*
X100506887Y-109877193D01*
X100517394Y-109856737D01*
X100528877Y-109836969D01*
X100541314Y-109817908D01*
X100554678Y-109799576D01*
X100568945Y-109781993D01*
X100584091Y-109765181D01*
X100600092Y-109749158D01*
X100616921Y-109733947D01*
X100634556Y-109719568D01*
X100652971Y-109706041D01*
X100672142Y-109693387D01*
X100692044Y-109681627D01*
X100712652Y-109670782D01*
X100733943Y-109660871D01*
X100755891Y-109651916D01*
X100778471Y-109643937D01*
X100801660Y-109636955D01*
X100825433Y-109630991D01*
X100849765Y-109626064D01*
X100874631Y-109622197D01*
X100900007Y-109619409D01*
X100925869Y-109617721D01*
X100952191Y-109617154D01*
X100978509Y-109617723D01*
X101004359Y-109619417D01*
X101029716Y-109622214D01*
X101054557Y-109626093D01*
X101078857Y-109631034D01*
X101102593Y-109637015D01*
X101125740Y-109644015D01*
X101148274Y-109652014D01*
X101170171Y-109660990D01*
X101191407Y-109670922D01*
X101211958Y-109681789D01*
X101231800Y-109693571D01*
X101250908Y-109706246D01*
X101269260Y-109719793D01*
X101286830Y-109734191D01*
X101303594Y-109749419D01*
X101319529Y-109765457D01*
X101334611Y-109782282D01*
X101348815Y-109799875D01*
X101362117Y-109818214D01*
X101374493Y-109837278D01*
X101385919Y-109857046D01*
X101396372Y-109877496D01*
X101405826Y-109898609D01*
X101414259Y-109920363D01*
X101421645Y-109942737D01*
X101427960Y-109965710D01*
X101433182Y-109989261D01*
X101437285Y-110013368D01*
X101440246Y-110038012D01*
X101442040Y-110063170D01*
X101442643Y-110088823D01*
X101442049Y-110114479D01*
G37*
G36*
X102096338Y-109324338D02*
G01*
X102130289Y-109326596D01*
X102163615Y-109330324D01*
X102196283Y-109335493D01*
X102228261Y-109342073D01*
X102259514Y-109350033D01*
X102290011Y-109359346D01*
X102319717Y-109369982D01*
X102348600Y-109381911D01*
X102376626Y-109395103D01*
X102403762Y-109409530D01*
X102429976Y-109425162D01*
X102455234Y-109441969D01*
X102479503Y-109459923D01*
X102502750Y-109478992D01*
X102524942Y-109499150D01*
X102546045Y-109520365D01*
X102566027Y-109542608D01*
X102584854Y-109565850D01*
X102602493Y-109590062D01*
X102618912Y-109615214D01*
X102634077Y-109641276D01*
X102647954Y-109668220D01*
X102660512Y-109696015D01*
X102671716Y-109724633D01*
X102681533Y-109754044D01*
X102689932Y-109784218D01*
X102696877Y-109815127D01*
X102702337Y-109846740D01*
X102706278Y-109879028D01*
X102708666Y-109911963D01*
X102709470Y-109945513D01*
X102708775Y-109944122D01*
X102707971Y-109977673D01*
X102705583Y-110010607D01*
X102701643Y-110042895D01*
X102696186Y-110074508D01*
X102689244Y-110105417D01*
X102680852Y-110135591D01*
X102671042Y-110165002D01*
X102659849Y-110193620D01*
X102647305Y-110221415D01*
X102633445Y-110248359D01*
X102618301Y-110274421D01*
X102601908Y-110299573D01*
X102584298Y-110323785D01*
X102565506Y-110347027D01*
X102545565Y-110369270D01*
X102524507Y-110390485D01*
X102502368Y-110410642D01*
X102479179Y-110429712D01*
X102454976Y-110447666D01*
X102429791Y-110464473D01*
X102403657Y-110480105D01*
X102376609Y-110494532D01*
X102348679Y-110507724D01*
X102319902Y-110519653D01*
X102290311Y-110530288D01*
X102259939Y-110539601D01*
X102228819Y-110547562D01*
X102196986Y-110554142D01*
X102164473Y-110559310D01*
X102131313Y-110563039D01*
X102097540Y-110565297D01*
X102063187Y-110566057D01*
X102026353Y-110565235D01*
X101990231Y-110562781D01*
X101954862Y-110558706D01*
X101920291Y-110553024D01*
X101886559Y-110545748D01*
X101853710Y-110536891D01*
X101821786Y-110526467D01*
X101790830Y-110514490D01*
X101760885Y-110500971D01*
X101731993Y-110485925D01*
X101704198Y-110469364D01*
X101677543Y-110451303D01*
X101652070Y-110431753D01*
X101627821Y-110410729D01*
X101604840Y-110388244D01*
X101583170Y-110364311D01*
X101728566Y-110226567D01*
X101745253Y-110244112D01*
X101762438Y-110260488D01*
X101780115Y-110275700D01*
X101798275Y-110289754D01*
X101816913Y-110302654D01*
X101836020Y-110314405D01*
X101855590Y-110325013D01*
X101875615Y-110334483D01*
X101896089Y-110342820D01*
X101917003Y-110350029D01*
X101938352Y-110356114D01*
X101960128Y-110361082D01*
X101982324Y-110364937D01*
X102004933Y-110367684D01*
X102027947Y-110369329D01*
X102051360Y-110369876D01*
X102074634Y-110369363D01*
X102097483Y-110367838D01*
X102119888Y-110365320D01*
X102141828Y-110361827D01*
X102163281Y-110357378D01*
X102184228Y-110351991D01*
X102204647Y-110345687D01*
X102224518Y-110338483D01*
X102243821Y-110330399D01*
X102262534Y-110321454D01*
X102280637Y-110311665D01*
X102298110Y-110301053D01*
X102314932Y-110289635D01*
X102331082Y-110277432D01*
X102346539Y-110264461D01*
X102361284Y-110250741D01*
X102375294Y-110236292D01*
X102388551Y-110221132D01*
X102401032Y-110205280D01*
X102412718Y-110188755D01*
X102423587Y-110171576D01*
X102433620Y-110153762D01*
X102442795Y-110135331D01*
X102451091Y-110116302D01*
X102458489Y-110096694D01*
X102464968Y-110076527D01*
X102470506Y-110055818D01*
X102475084Y-110034587D01*
X102478680Y-110012853D01*
X102481275Y-109990634D01*
X102482847Y-109967949D01*
X102483375Y-109944818D01*
X102482847Y-109921686D01*
X102481275Y-109899001D01*
X102478680Y-109876782D01*
X102475084Y-109855048D01*
X102470506Y-109833817D01*
X102464968Y-109813108D01*
X102458489Y-109792941D01*
X102451091Y-109773333D01*
X102442795Y-109754304D01*
X102433620Y-109735873D01*
X102423587Y-109718059D01*
X102412718Y-109700880D01*
X102401032Y-109684355D01*
X102388551Y-109668503D01*
X102375294Y-109653343D01*
X102361284Y-109638894D01*
X102346539Y-109625174D01*
X102331082Y-109612203D01*
X102314932Y-109600000D01*
X102298110Y-109588582D01*
X102280637Y-109577970D01*
X102262534Y-109568181D01*
X102243821Y-109559236D01*
X102224518Y-109551151D01*
X102204647Y-109543948D01*
X102184228Y-109537644D01*
X102163281Y-109532257D01*
X102141828Y-109527808D01*
X102119888Y-109524315D01*
X102097483Y-109521797D01*
X102074634Y-109520272D01*
X102051360Y-109519759D01*
X102027955Y-109520306D01*
X102004961Y-109521948D01*
X101982384Y-109524689D01*
X101960226Y-109528531D01*
X101938492Y-109533478D01*
X101917187Y-109539533D01*
X101896313Y-109546698D01*
X101875875Y-109554978D01*
X101855878Y-109564374D01*
X101836325Y-109574890D01*
X101817220Y-109586529D01*
X101798568Y-109599295D01*
X101780373Y-109613189D01*
X101762638Y-109628215D01*
X101745367Y-109644377D01*
X101728565Y-109661677D01*
X101583170Y-109525324D01*
X101604954Y-109501506D01*
X101628018Y-109479105D01*
X101652318Y-109458140D01*
X101677814Y-109438626D01*
X101704464Y-109420579D01*
X101732225Y-109404016D01*
X101761056Y-109388953D01*
X101790916Y-109375406D01*
X101821762Y-109363392D01*
X101853553Y-109352927D01*
X101886246Y-109344027D01*
X101919801Y-109336709D01*
X101954175Y-109330989D01*
X101989326Y-109326883D01*
X102025214Y-109324407D01*
X102061795Y-109323578D01*
X102096338Y-109324338D01*
G37*
G36*
X103829509Y-110884676D02*
G01*
X103613849Y-110884676D01*
X103613849Y-110437356D01*
X103599676Y-110452741D01*
X103584825Y-110467075D01*
X103569320Y-110480365D01*
X103553184Y-110492619D01*
X103536441Y-110503846D01*
X103519114Y-110514055D01*
X103501226Y-110523252D01*
X103482801Y-110531447D01*
X103463863Y-110538647D01*
X103444434Y-110544860D01*
X103424539Y-110550095D01*
X103404201Y-110554360D01*
X103383442Y-110557664D01*
X103362287Y-110560013D01*
X103340760Y-110561416D01*
X103318882Y-110561882D01*
X103293791Y-110561339D01*
X103269143Y-110559719D01*
X103244960Y-110557038D01*
X103221268Y-110553312D01*
X103198087Y-110548556D01*
X103175443Y-110542787D01*
X103153357Y-110536021D01*
X103131854Y-110528273D01*
X103110956Y-110519558D01*
X103090687Y-110509894D01*
X103071069Y-110499294D01*
X103052126Y-110487777D01*
X103033881Y-110475356D01*
X103016357Y-110462048D01*
X102999578Y-110447869D01*
X102983566Y-110432834D01*
X102968346Y-110416960D01*
X102953939Y-110400262D01*
X102940369Y-110382756D01*
X102927660Y-110364457D01*
X102915834Y-110345382D01*
X102904915Y-110325546D01*
X102894925Y-110304965D01*
X102885889Y-110283655D01*
X102877829Y-110261632D01*
X102870769Y-110238911D01*
X102864731Y-110215509D01*
X102859739Y-110191440D01*
X102855816Y-110166722D01*
X102852985Y-110141369D01*
X102851269Y-110115397D01*
X102850692Y-110088823D01*
X103069830Y-110088823D01*
X103070170Y-110105197D01*
X103071181Y-110121184D01*
X103072847Y-110136775D01*
X103075156Y-110151961D01*
X103078093Y-110166732D01*
X103081643Y-110181082D01*
X103085792Y-110195000D01*
X103090526Y-110208479D01*
X103095831Y-110221509D01*
X103101693Y-110234082D01*
X103108096Y-110246190D01*
X103115027Y-110257823D01*
X103122472Y-110268973D01*
X103130416Y-110279631D01*
X103138846Y-110289789D01*
X103147746Y-110299438D01*
X103157102Y-110308570D01*
X103166901Y-110317175D01*
X103177128Y-110325245D01*
X103187769Y-110332771D01*
X103198809Y-110339745D01*
X103210234Y-110346158D01*
X103222031Y-110352001D01*
X103234184Y-110357266D01*
X103246679Y-110361945D01*
X103259502Y-110366027D01*
X103272640Y-110369505D01*
X103286077Y-110372370D01*
X103299799Y-110374614D01*
X103313792Y-110376227D01*
X103328042Y-110377201D01*
X103342535Y-110377528D01*
X103357034Y-110377201D01*
X103371301Y-110376227D01*
X103385323Y-110374614D01*
X103399083Y-110372370D01*
X103412568Y-110369505D01*
X103425761Y-110366027D01*
X103438647Y-110361945D01*
X103451213Y-110357266D01*
X103463442Y-110352001D01*
X103475320Y-110346158D01*
X103486832Y-110339745D01*
X103497962Y-110332771D01*
X103508696Y-110325245D01*
X103519018Y-110317175D01*
X103528914Y-110308570D01*
X103538368Y-110299438D01*
X103547366Y-110289789D01*
X103555892Y-110279631D01*
X103563932Y-110268973D01*
X103571470Y-110257823D01*
X103578491Y-110246190D01*
X103584981Y-110234082D01*
X103590924Y-110221509D01*
X103596305Y-110208479D01*
X103601110Y-110195000D01*
X103605322Y-110181082D01*
X103608928Y-110166732D01*
X103611912Y-110151961D01*
X103614259Y-110136775D01*
X103615954Y-110121184D01*
X103616982Y-110105197D01*
X103617328Y-110088823D01*
X103616980Y-110072448D01*
X103615946Y-110056461D01*
X103614242Y-110040870D01*
X103611883Y-110025684D01*
X103608885Y-110010913D01*
X103605263Y-109996563D01*
X103601032Y-109982645D01*
X103596207Y-109969166D01*
X103590805Y-109956136D01*
X103584841Y-109943563D01*
X103578330Y-109931455D01*
X103571287Y-109919822D01*
X103563728Y-109908672D01*
X103555668Y-109898013D01*
X103547123Y-109887855D01*
X103538107Y-109878206D01*
X103528638Y-109869075D01*
X103518729Y-109860470D01*
X103508397Y-109852400D01*
X103497656Y-109844874D01*
X103486523Y-109837900D01*
X103475012Y-109831487D01*
X103463139Y-109825643D01*
X103450919Y-109820378D01*
X103438369Y-109815700D01*
X103425502Y-109811618D01*
X103412335Y-109808140D01*
X103398884Y-109805274D01*
X103385162Y-109803031D01*
X103371187Y-109801418D01*
X103356973Y-109800443D01*
X103342535Y-109800117D01*
X103328104Y-109800445D01*
X103313907Y-109801425D01*
X103299960Y-109803048D01*
X103286276Y-109805303D01*
X103272872Y-109808183D01*
X103259761Y-109811677D01*
X103246958Y-109815778D01*
X103234477Y-109820476D01*
X103222334Y-109825762D01*
X103210543Y-109831627D01*
X103199118Y-109838062D01*
X103188075Y-109845057D01*
X103177427Y-109852605D01*
X103167190Y-109860695D01*
X103157378Y-109869319D01*
X103148007Y-109878467D01*
X103139089Y-109888132D01*
X103130641Y-109898302D01*
X103122677Y-109908971D01*
X103115211Y-109920128D01*
X103108258Y-109931764D01*
X103101833Y-109943871D01*
X103095950Y-109956439D01*
X103090624Y-109969460D01*
X103085870Y-109982924D01*
X103081703Y-109996822D01*
X103078136Y-110011145D01*
X103075185Y-110025884D01*
X103072864Y-110041031D01*
X103071188Y-110056575D01*
X103070172Y-110072509D01*
X103069830Y-110088823D01*
X102850692Y-110088823D01*
X102851271Y-110062375D01*
X102852992Y-110036521D01*
X102855832Y-110011279D01*
X102859767Y-109986664D01*
X102864774Y-109962692D01*
X102870828Y-109939379D01*
X102877907Y-109916741D01*
X102885987Y-109894794D01*
X102895044Y-109873554D01*
X102905055Y-109853038D01*
X102915996Y-109833261D01*
X102927843Y-109814240D01*
X102940574Y-109795989D01*
X102954164Y-109778527D01*
X102968589Y-109761867D01*
X102983827Y-109746028D01*
X102999854Y-109731024D01*
X103016646Y-109716872D01*
X103034180Y-109703587D01*
X103052432Y-109691186D01*
X103071378Y-109679685D01*
X103090995Y-109669100D01*
X103111260Y-109659447D01*
X103132148Y-109650742D01*
X103153636Y-109643001D01*
X103175701Y-109636240D01*
X103198320Y-109630475D01*
X103221467Y-109625722D01*
X103245121Y-109621997D01*
X103269257Y-109619317D01*
X103293852Y-109617697D01*
X103318882Y-109617154D01*
X103342268Y-109617660D01*
X103365190Y-109619180D01*
X103387624Y-109621717D01*
X103409549Y-109625274D01*
X103430939Y-109629854D01*
X103451771Y-109635460D01*
X103472023Y-109642096D01*
X103491671Y-109649764D01*
X103510691Y-109658467D01*
X103529059Y-109668209D01*
X103546753Y-109678992D01*
X103563749Y-109690819D01*
X103580024Y-109703695D01*
X103595554Y-109717621D01*
X103610315Y-109732600D01*
X103624284Y-109748637D01*
X103624284Y-109627589D01*
X103829509Y-109627589D01*
X103829509Y-110088823D01*
X103829509Y-110884676D01*
G37*
G36*
X104912432Y-110038241D02*
G01*
X104914177Y-110063293D01*
X104914765Y-110088823D01*
X104914180Y-110114356D01*
X104912439Y-110139420D01*
X104909557Y-110163990D01*
X104905552Y-110188045D01*
X104900440Y-110211562D01*
X104894239Y-110234520D01*
X104886964Y-110256895D01*
X104878633Y-110278666D01*
X104869262Y-110299810D01*
X104858869Y-110320306D01*
X104847470Y-110340129D01*
X104835082Y-110359260D01*
X104821722Y-110377674D01*
X104807407Y-110395351D01*
X104792153Y-110412266D01*
X104775977Y-110428399D01*
X104758896Y-110443727D01*
X104740928Y-110458228D01*
X104722087Y-110471879D01*
X104702393Y-110484658D01*
X104681861Y-110496543D01*
X104660508Y-110507511D01*
X104638351Y-110517541D01*
X104615406Y-110526609D01*
X104591691Y-110534695D01*
X104567223Y-110541774D01*
X104542018Y-110547825D01*
X104516093Y-110552826D01*
X104489465Y-110556755D01*
X104462150Y-110559589D01*
X104434166Y-110561305D01*
X104405529Y-110561882D01*
X104376013Y-110561273D01*
X104347223Y-110559449D01*
X104319182Y-110556421D01*
X104291916Y-110552197D01*
X104265449Y-110546788D01*
X104239806Y-110540201D01*
X104215010Y-110532447D01*
X104191087Y-110523533D01*
X104168060Y-110513471D01*
X104145955Y-110502268D01*
X104124795Y-110489934D01*
X104104605Y-110476477D01*
X104085411Y-110461908D01*
X104067235Y-110446236D01*
X104050102Y-110429469D01*
X104034038Y-110411616D01*
X104149520Y-110278742D01*
X104161970Y-110290988D01*
X104174805Y-110302421D01*
X104188033Y-110313045D01*
X104201663Y-110322863D01*
X104215705Y-110331878D01*
X104230168Y-110340093D01*
X104245061Y-110347512D01*
X104260393Y-110354136D01*
X104276174Y-110359970D01*
X104292412Y-110365016D01*
X104309117Y-110369277D01*
X104326298Y-110372756D01*
X104343964Y-110375457D01*
X104362124Y-110377383D01*
X104380788Y-110378536D01*
X104399964Y-110378920D01*
X104414824Y-110378668D01*
X104429401Y-110377918D01*
X104443685Y-110376676D01*
X104457671Y-110374949D01*
X104471350Y-110372745D01*
X104484716Y-110370069D01*
X104497761Y-110366929D01*
X104510478Y-110363332D01*
X104522860Y-110359284D01*
X104534900Y-110354793D01*
X104546589Y-110349866D01*
X104557922Y-110344508D01*
X104568890Y-110338728D01*
X104579486Y-110332531D01*
X104589704Y-110325925D01*
X104599536Y-110318917D01*
X104608974Y-110311514D01*
X104618012Y-110303722D01*
X104626642Y-110295549D01*
X104634856Y-110287001D01*
X104642649Y-110278085D01*
X104650011Y-110268807D01*
X104656937Y-110259176D01*
X104663419Y-110249198D01*
X104669449Y-110238879D01*
X104675020Y-110228227D01*
X104680125Y-110217248D01*
X104684758Y-110205949D01*
X104688909Y-110194337D01*
X104692573Y-110182420D01*
X104695742Y-110170203D01*
X104698409Y-110157695D01*
X103975601Y-110157695D01*
X103974852Y-110149666D01*
X103974177Y-110141335D01*
X103973583Y-110132858D01*
X103973079Y-110124389D01*
X103972673Y-110116083D01*
X103972373Y-110108095D01*
X103972186Y-110100580D01*
X103972123Y-110093692D01*
X103972680Y-110066985D01*
X103974338Y-110040878D01*
X103977078Y-110015386D01*
X103977231Y-110014385D01*
X104176652Y-110014385D01*
X104699800Y-110014385D01*
X104697615Y-110001866D01*
X104694975Y-109989621D01*
X104691888Y-109977656D01*
X104688360Y-109965981D01*
X104684398Y-109954604D01*
X104680008Y-109943532D01*
X104675198Y-109932774D01*
X104669973Y-109922338D01*
X104664341Y-109912233D01*
X104658308Y-109902465D01*
X104651880Y-109893045D01*
X104645065Y-109883978D01*
X104637868Y-109875275D01*
X104630297Y-109866942D01*
X104622358Y-109858989D01*
X104614058Y-109851423D01*
X104605403Y-109844252D01*
X104596401Y-109837485D01*
X104587056Y-109831129D01*
X104577378Y-109825194D01*
X104567371Y-109819686D01*
X104557042Y-109814615D01*
X104546398Y-109809987D01*
X104535447Y-109805813D01*
X104524193Y-109802098D01*
X104512645Y-109798853D01*
X104500808Y-109796085D01*
X104488690Y-109793801D01*
X104476296Y-109792011D01*
X104463634Y-109790722D01*
X104450710Y-109789943D01*
X104437530Y-109789682D01*
X104424345Y-109789949D01*
X104411404Y-109790745D01*
X104398716Y-109792061D01*
X104386288Y-109793887D01*
X104374129Y-109796214D01*
X104362246Y-109799032D01*
X104350648Y-109802333D01*
X104339342Y-109806106D01*
X104328337Y-109810343D01*
X104317641Y-109815035D01*
X104307261Y-109820172D01*
X104297206Y-109825744D01*
X104287484Y-109831743D01*
X104278102Y-109838159D01*
X104269069Y-109844983D01*
X104260394Y-109852206D01*
X104252082Y-109859817D01*
X104244144Y-109867809D01*
X104236587Y-109876172D01*
X104229418Y-109884896D01*
X104222647Y-109893972D01*
X104216280Y-109903390D01*
X104210326Y-109913142D01*
X104204794Y-109923219D01*
X104199690Y-109933610D01*
X104195024Y-109944307D01*
X104190802Y-109955300D01*
X104187034Y-109966580D01*
X104183726Y-109978138D01*
X104180888Y-109989965D01*
X104178527Y-110002050D01*
X104176652Y-110014385D01*
X103977231Y-110014385D01*
X103980880Y-109990526D01*
X103985723Y-109966313D01*
X103991589Y-109942766D01*
X103998457Y-109919899D01*
X104006309Y-109897729D01*
X104015123Y-109876272D01*
X104024880Y-109855545D01*
X104035561Y-109835564D01*
X104047146Y-109816346D01*
X104059614Y-109797905D01*
X104072947Y-109780260D01*
X104087125Y-109763426D01*
X104102127Y-109747419D01*
X104117934Y-109732256D01*
X104134527Y-109717953D01*
X104151885Y-109704527D01*
X104169990Y-109691993D01*
X104188820Y-109680369D01*
X104208356Y-109669669D01*
X104228579Y-109659911D01*
X104249469Y-109651111D01*
X104271006Y-109643286D01*
X104293171Y-109636451D01*
X104315943Y-109630622D01*
X104339302Y-109625817D01*
X104363230Y-109622051D01*
X104387707Y-109619341D01*
X104412712Y-109617703D01*
X104438226Y-109617154D01*
X104463770Y-109617727D01*
X104488862Y-109619432D01*
X104513479Y-109622247D01*
X104537597Y-109626150D01*
X104561194Y-109631120D01*
X104584244Y-109637134D01*
X104606725Y-109644171D01*
X104628613Y-109652209D01*
X104649884Y-109661227D01*
X104670516Y-109671202D01*
X104690483Y-109682113D01*
X104709764Y-109693938D01*
X104728334Y-109706655D01*
X104746169Y-109720242D01*
X104763246Y-109734678D01*
X104779542Y-109749941D01*
X104795033Y-109766009D01*
X104809695Y-109782860D01*
X104823505Y-109800473D01*
X104836440Y-109818825D01*
X104848475Y-109837896D01*
X104859587Y-109857662D01*
X104869752Y-109878103D01*
X104878948Y-109899196D01*
X104887150Y-109920921D01*
X104894335Y-109943254D01*
X104900479Y-109966174D01*
X104905559Y-109989660D01*
X104909551Y-110013690D01*
X104909633Y-110014385D01*
X104912432Y-110038241D01*
G37*
G36*
X105996296Y-110038241D02*
G01*
X105998042Y-110063293D01*
X105998629Y-110088823D01*
X105998045Y-110114356D01*
X105996303Y-110139420D01*
X105993422Y-110163990D01*
X105989416Y-110188045D01*
X105984305Y-110211562D01*
X105978103Y-110234520D01*
X105970828Y-110256895D01*
X105962497Y-110278666D01*
X105953126Y-110299810D01*
X105942733Y-110320306D01*
X105931334Y-110340129D01*
X105918947Y-110359260D01*
X105905586Y-110377674D01*
X105891271Y-110395351D01*
X105876017Y-110412266D01*
X105859841Y-110428399D01*
X105842760Y-110443727D01*
X105824792Y-110458228D01*
X105805952Y-110471879D01*
X105786257Y-110484658D01*
X105765725Y-110496543D01*
X105744372Y-110507511D01*
X105722215Y-110517541D01*
X105699270Y-110526609D01*
X105675556Y-110534695D01*
X105651087Y-110541774D01*
X105625882Y-110547825D01*
X105599957Y-110552826D01*
X105573329Y-110556755D01*
X105546014Y-110559589D01*
X105518030Y-110561305D01*
X105489393Y-110561882D01*
X105459877Y-110561273D01*
X105431087Y-110559449D01*
X105403047Y-110556421D01*
X105375781Y-110552197D01*
X105349314Y-110546788D01*
X105323670Y-110540201D01*
X105298875Y-110532447D01*
X105274951Y-110523533D01*
X105251925Y-110513471D01*
X105229819Y-110502268D01*
X105208659Y-110489934D01*
X105188470Y-110476477D01*
X105169275Y-110461908D01*
X105151099Y-110446236D01*
X105133967Y-110429469D01*
X105117902Y-110411616D01*
X105233384Y-110278742D01*
X105245835Y-110290988D01*
X105258669Y-110302421D01*
X105271897Y-110313045D01*
X105285527Y-110322863D01*
X105299570Y-110331878D01*
X105314033Y-110340093D01*
X105328926Y-110347512D01*
X105344258Y-110354136D01*
X105360038Y-110359970D01*
X105376277Y-110365016D01*
X105392981Y-110369277D01*
X105410162Y-110372756D01*
X105427828Y-110375457D01*
X105445988Y-110377383D01*
X105464652Y-110378536D01*
X105483828Y-110378920D01*
X105498689Y-110378668D01*
X105513265Y-110377918D01*
X105527549Y-110376676D01*
X105541535Y-110374949D01*
X105555214Y-110372745D01*
X105568580Y-110370069D01*
X105581625Y-110366929D01*
X105594343Y-110363332D01*
X105606724Y-110359284D01*
X105618764Y-110354793D01*
X105630453Y-110349866D01*
X105641786Y-110344508D01*
X105652754Y-110338728D01*
X105663351Y-110332531D01*
X105673568Y-110325925D01*
X105683400Y-110318917D01*
X105692838Y-110311514D01*
X105701876Y-110303722D01*
X105710506Y-110295549D01*
X105718721Y-110287001D01*
X105726513Y-110278085D01*
X105733875Y-110268807D01*
X105740801Y-110259176D01*
X105747283Y-110249198D01*
X105753313Y-110238879D01*
X105758884Y-110228227D01*
X105763990Y-110217248D01*
X105768622Y-110205949D01*
X105772774Y-110194337D01*
X105776437Y-110182420D01*
X105779606Y-110170203D01*
X105782273Y-110157695D01*
X105059466Y-110157695D01*
X105057204Y-110124389D01*
X105056335Y-110108095D01*
X105056079Y-110100580D01*
X105055987Y-110093692D01*
X105056544Y-110066985D01*
X105058203Y-110040878D01*
X105060942Y-110015386D01*
X105061095Y-110014385D01*
X105261212Y-110014385D01*
X105784360Y-110014385D01*
X105782236Y-110001866D01*
X105779649Y-109989621D01*
X105776608Y-109977656D01*
X105773119Y-109965981D01*
X105769190Y-109954604D01*
X105764826Y-109943532D01*
X105760036Y-109932774D01*
X105754826Y-109922338D01*
X105749204Y-109912233D01*
X105743176Y-109902465D01*
X105736749Y-109893045D01*
X105729930Y-109883978D01*
X105722727Y-109875275D01*
X105715146Y-109866942D01*
X105707194Y-109858989D01*
X105698879Y-109851423D01*
X105690207Y-109844252D01*
X105681185Y-109837485D01*
X105671821Y-109831129D01*
X105662121Y-109825194D01*
X105652092Y-109819686D01*
X105641742Y-109814615D01*
X105631077Y-109809987D01*
X105620104Y-109805813D01*
X105608831Y-109802098D01*
X105597264Y-109798853D01*
X105585411Y-109796085D01*
X105573278Y-109793801D01*
X105560872Y-109792011D01*
X105548201Y-109790722D01*
X105535271Y-109789943D01*
X105522090Y-109789682D01*
X105508905Y-109789949D01*
X105495964Y-109790745D01*
X105483276Y-109792061D01*
X105470848Y-109793887D01*
X105458688Y-109796214D01*
X105446806Y-109799032D01*
X105435207Y-109802333D01*
X105423902Y-109806106D01*
X105412897Y-109810343D01*
X105402201Y-109815035D01*
X105391821Y-109820172D01*
X105381766Y-109825744D01*
X105372044Y-109831743D01*
X105362662Y-109838159D01*
X105353629Y-109844983D01*
X105344953Y-109852206D01*
X105336642Y-109859817D01*
X105328704Y-109867809D01*
X105321147Y-109876172D01*
X105313978Y-109884896D01*
X105307207Y-109893972D01*
X105300840Y-109903390D01*
X105294886Y-109913142D01*
X105289354Y-109923219D01*
X105284250Y-109933610D01*
X105279584Y-109944307D01*
X105275362Y-109955300D01*
X105271594Y-109966580D01*
X105268286Y-109978138D01*
X105265448Y-109989965D01*
X105263087Y-110002050D01*
X105261212Y-110014385D01*
X105061095Y-110014385D01*
X105064744Y-109990526D01*
X105069588Y-109966313D01*
X105075453Y-109942766D01*
X105082322Y-109919899D01*
X105090173Y-109897729D01*
X105098987Y-109876272D01*
X105108744Y-109855545D01*
X105119425Y-109835564D01*
X105131010Y-109816346D01*
X105143479Y-109797905D01*
X105156812Y-109780260D01*
X105170989Y-109763426D01*
X105185991Y-109747419D01*
X105201799Y-109732256D01*
X105218392Y-109717953D01*
X105235750Y-109704527D01*
X105253854Y-109691993D01*
X105272684Y-109680369D01*
X105292221Y-109669669D01*
X105312444Y-109659911D01*
X105333334Y-109651111D01*
X105354871Y-109643286D01*
X105377035Y-109636451D01*
X105399807Y-109630622D01*
X105423167Y-109625817D01*
X105447095Y-109622051D01*
X105471571Y-109619341D01*
X105496576Y-109617703D01*
X105522090Y-109617154D01*
X105547634Y-109617727D01*
X105572726Y-109619432D01*
X105597343Y-109622247D01*
X105621462Y-109626150D01*
X105645058Y-109631120D01*
X105668108Y-109637134D01*
X105690589Y-109644171D01*
X105712477Y-109652209D01*
X105733749Y-109661227D01*
X105754380Y-109671202D01*
X105774348Y-109682113D01*
X105793628Y-109693938D01*
X105812198Y-109706655D01*
X105830033Y-109720242D01*
X105847111Y-109734678D01*
X105863407Y-109749941D01*
X105878897Y-109766009D01*
X105893560Y-109782860D01*
X105907370Y-109800473D01*
X105920304Y-109818825D01*
X105932339Y-109837896D01*
X105943451Y-109857662D01*
X105953617Y-109878103D01*
X105962812Y-109899196D01*
X105971014Y-109920921D01*
X105978199Y-109943254D01*
X105984343Y-109966174D01*
X105989423Y-109989660D01*
X105993415Y-110013690D01*
X105993497Y-110014385D01*
X105996296Y-110038241D01*
G37*
G36*
X107327371Y-110550056D02*
G01*
X106799352Y-110550056D01*
X106763001Y-110549352D01*
X106727401Y-110547256D01*
X106692580Y-110543789D01*
X106658563Y-110538974D01*
X106625378Y-110532832D01*
X106593050Y-110525385D01*
X106561605Y-110516654D01*
X106531071Y-110506663D01*
X106501473Y-110495433D01*
X106472839Y-110482985D01*
X106445193Y-110469342D01*
X106418563Y-110454525D01*
X106392975Y-110438557D01*
X106368456Y-110421460D01*
X106345031Y-110403254D01*
X106322727Y-110383963D01*
X106301571Y-110363608D01*
X106281588Y-110342211D01*
X106262806Y-110319794D01*
X106245250Y-110296379D01*
X106228947Y-110271987D01*
X106213924Y-110246641D01*
X106200206Y-110220363D01*
X106187820Y-110193174D01*
X106176793Y-110165096D01*
X106167150Y-110136152D01*
X106158918Y-110106363D01*
X106152124Y-110075751D01*
X106146794Y-110044339D01*
X106142954Y-110012147D01*
X106140631Y-109979198D01*
X106139851Y-109945513D01*
X106139867Y-109944818D01*
X106365250Y-109944818D01*
X106365759Y-109968042D01*
X106367277Y-109990746D01*
X106369788Y-110012916D01*
X106373279Y-110034538D01*
X106377734Y-110055598D01*
X106383139Y-110076080D01*
X106389479Y-110095972D01*
X106396740Y-110115258D01*
X106404907Y-110133925D01*
X106413965Y-110151958D01*
X106423900Y-110169343D01*
X106434697Y-110186065D01*
X106446341Y-110202111D01*
X106458818Y-110217466D01*
X106472112Y-110232115D01*
X106486211Y-110246045D01*
X106501098Y-110259242D01*
X106516759Y-110271690D01*
X106533179Y-110283376D01*
X106550345Y-110294286D01*
X106568240Y-110304405D01*
X106586851Y-110313719D01*
X106606163Y-110322213D01*
X106626161Y-110329874D01*
X106646831Y-110336687D01*
X106668158Y-110342638D01*
X106690126Y-110347713D01*
X106712723Y-110351897D01*
X106735932Y-110355176D01*
X106759740Y-110357536D01*
X106784131Y-110358962D01*
X106809092Y-110359441D01*
X106809092Y-110358745D01*
X107102667Y-110358745D01*
X107102667Y-109530194D01*
X106809092Y-109530194D01*
X106784131Y-109530673D01*
X106759740Y-109532099D01*
X106735932Y-109534459D01*
X106712723Y-109537738D01*
X106690126Y-109541922D01*
X106668158Y-109546996D01*
X106646831Y-109552947D01*
X106626161Y-109559760D01*
X106606163Y-109567421D01*
X106586851Y-109575916D01*
X106568240Y-109585230D01*
X106550345Y-109595349D01*
X106533179Y-109606258D01*
X106516759Y-109617945D01*
X106501098Y-109630393D01*
X106486211Y-109643590D01*
X106472112Y-109657520D01*
X106458818Y-109672169D01*
X106446341Y-109687524D01*
X106434697Y-109703570D01*
X106423900Y-109720292D01*
X106413965Y-109737677D01*
X106404907Y-109755710D01*
X106396740Y-109774377D01*
X106389479Y-109793663D01*
X106383139Y-109813555D01*
X106377734Y-109834037D01*
X106373279Y-109855097D01*
X106369788Y-109876719D01*
X106367277Y-109898889D01*
X106365759Y-109921594D01*
X106365250Y-109944818D01*
X106139867Y-109944818D01*
X106140629Y-109911829D01*
X106142947Y-109878880D01*
X106146778Y-109846688D01*
X106152096Y-109815275D01*
X106158875Y-109784663D01*
X106167090Y-109754874D01*
X106176715Y-109725930D01*
X106187722Y-109697852D01*
X106200087Y-109670663D01*
X106213784Y-109644385D01*
X106228785Y-109619039D01*
X106245067Y-109594648D01*
X106262601Y-109571232D01*
X106281363Y-109548815D01*
X106301327Y-109527418D01*
X106322466Y-109507063D01*
X106344755Y-109487772D01*
X106368167Y-109469566D01*
X106392676Y-109452469D01*
X106418257Y-109436501D01*
X106444884Y-109421684D01*
X106472530Y-109408041D01*
X106501170Y-109395593D01*
X106530778Y-109384363D01*
X106561327Y-109374372D01*
X106592791Y-109365642D01*
X106625146Y-109358194D01*
X106658364Y-109352052D01*
X106692419Y-109347237D01*
X106727287Y-109343770D01*
X106762940Y-109341674D01*
X106799352Y-109340970D01*
X107327371Y-109340970D01*
X107327371Y-110358745D01*
X107327371Y-110550056D01*
G37*
%TO.C,REF\u002A\u002A*%
G36*
X106282460Y-99612796D02*
G01*
X106924328Y-99612796D01*
X106924328Y-99070303D01*
X107367445Y-99070303D01*
X107367445Y-100597591D01*
X106924328Y-100597591D01*
X106924328Y-100054284D01*
X106280831Y-100054284D01*
X106280831Y-100597591D01*
X105840972Y-100597591D01*
X105840972Y-99070303D01*
X106282460Y-99070303D01*
X106282460Y-99612796D01*
G37*
G36*
X105457793Y-100668066D02*
G01*
X105474340Y-100669324D01*
X105490646Y-100671396D01*
X105506691Y-100674262D01*
X105522454Y-100677900D01*
X105537916Y-100682291D01*
X105553055Y-100687413D01*
X105567851Y-100693247D01*
X105582283Y-100699772D01*
X105596332Y-100706967D01*
X105609976Y-100714813D01*
X105623196Y-100723288D01*
X105635970Y-100732372D01*
X105648279Y-100742044D01*
X105660101Y-100752285D01*
X105671417Y-100763073D01*
X105682205Y-100774389D01*
X105692446Y-100786211D01*
X105702118Y-100798520D01*
X105711202Y-100811294D01*
X105719677Y-100824513D01*
X105727522Y-100838158D01*
X105734718Y-100852207D01*
X105741243Y-100866639D01*
X105747077Y-100881435D01*
X105752199Y-100896574D01*
X105756590Y-100912036D01*
X105760228Y-100927799D01*
X105763093Y-100943844D01*
X105765165Y-100960150D01*
X105766423Y-100976697D01*
X105766847Y-100993464D01*
X105766423Y-101010230D01*
X105765165Y-101026777D01*
X105763093Y-101043083D01*
X105760228Y-101059128D01*
X105756589Y-101074891D01*
X105752199Y-101090353D01*
X105747076Y-101105492D01*
X105741243Y-101120288D01*
X105734718Y-101134720D01*
X105727522Y-101148769D01*
X105719677Y-101162414D01*
X105711202Y-101175633D01*
X105702118Y-101188407D01*
X105692446Y-101200716D01*
X105682205Y-101212538D01*
X105671416Y-101223854D01*
X105660101Y-101234642D01*
X105648279Y-101244883D01*
X105635970Y-101254555D01*
X105623196Y-101263639D01*
X105609976Y-101272114D01*
X105596332Y-101279960D01*
X105582283Y-101287155D01*
X105567850Y-101293680D01*
X105553054Y-101299514D01*
X105537915Y-101304636D01*
X105522454Y-101309027D01*
X105506691Y-101312665D01*
X105490646Y-101315530D01*
X105474340Y-101317602D01*
X105457793Y-101318861D01*
X105441026Y-101319284D01*
X105424260Y-101318861D01*
X105407713Y-101317602D01*
X105391407Y-101315530D01*
X105375362Y-101312665D01*
X105359598Y-101309027D01*
X105344137Y-101304636D01*
X105328998Y-101299514D01*
X105314202Y-101293680D01*
X105299769Y-101287155D01*
X105285720Y-101279960D01*
X105272076Y-101272114D01*
X105258856Y-101263640D01*
X105246082Y-101254556D01*
X105233774Y-101244883D01*
X105221951Y-101234642D01*
X105210636Y-101223854D01*
X105199847Y-101212538D01*
X105189607Y-101200716D01*
X105179934Y-101188408D01*
X105170850Y-101175633D01*
X105162375Y-101162414D01*
X105154530Y-101148769D01*
X105147334Y-101134721D01*
X105140810Y-101120288D01*
X105134976Y-101105492D01*
X105129853Y-101090353D01*
X105125463Y-101074891D01*
X105121824Y-101059128D01*
X105118959Y-101043083D01*
X105116887Y-101026777D01*
X105115629Y-101010230D01*
X105115205Y-100993464D01*
X105115605Y-100977307D01*
X105116799Y-100961260D01*
X105118776Y-100945350D01*
X105121523Y-100929602D01*
X105125031Y-100914044D01*
X105129289Y-100898703D01*
X105134284Y-100883605D01*
X105140007Y-100868777D01*
X105146445Y-100854246D01*
X105153589Y-100840037D01*
X105161426Y-100826179D01*
X105169947Y-100812698D01*
X105179139Y-100799620D01*
X105188992Y-100786972D01*
X105199494Y-100774781D01*
X105210636Y-100763073D01*
X105222343Y-100751932D01*
X105234534Y-100741429D01*
X105247182Y-100731576D01*
X105260260Y-100722384D01*
X105273742Y-100713864D01*
X105287600Y-100706026D01*
X105301808Y-100698882D01*
X105316340Y-100692444D01*
X105331168Y-100686721D01*
X105346266Y-100681726D01*
X105361607Y-100677469D01*
X105377165Y-100673961D01*
X105392913Y-100671213D01*
X105408823Y-100669237D01*
X105424870Y-100668043D01*
X105441027Y-100667642D01*
X105457793Y-100668066D01*
G37*
G36*
X96973744Y-98760773D02*
G01*
X97864866Y-98760773D01*
X97864866Y-101021158D01*
X97387537Y-101021158D01*
X97387537Y-100360556D01*
X97387537Y-99905221D01*
X97387537Y-99151759D01*
X97061716Y-99151759D01*
X97046880Y-99151435D01*
X97032064Y-99151550D01*
X97017277Y-99152102D01*
X97002528Y-99153089D01*
X96987828Y-99154510D01*
X96973186Y-99156362D01*
X96958610Y-99158643D01*
X96944111Y-99161352D01*
X96929698Y-99164487D01*
X96915381Y-99168046D01*
X96901169Y-99172026D01*
X96887071Y-99176426D01*
X96873096Y-99181245D01*
X96859256Y-99186479D01*
X96845558Y-99192128D01*
X96832012Y-99198188D01*
X96821368Y-99203798D01*
X96810973Y-99209794D01*
X96800837Y-99216169D01*
X96790967Y-99222912D01*
X96781375Y-99230016D01*
X96772069Y-99237470D01*
X96763058Y-99245267D01*
X96754353Y-99253396D01*
X96745961Y-99261849D01*
X96737893Y-99270617D01*
X96730157Y-99279691D01*
X96722764Y-99289062D01*
X96715721Y-99298720D01*
X96709040Y-99308657D01*
X96702729Y-99318864D01*
X96696796Y-99329331D01*
X96686298Y-99352928D01*
X96677200Y-99376942D01*
X96669501Y-99401314D01*
X96663202Y-99425984D01*
X96658303Y-99450893D01*
X96654804Y-99475980D01*
X96652704Y-99501187D01*
X96652004Y-99526453D01*
X96652704Y-99551720D01*
X96654804Y-99576927D01*
X96658303Y-99602014D01*
X96663202Y-99626923D01*
X96669501Y-99651593D01*
X96677200Y-99675965D01*
X96686298Y-99699979D01*
X96696796Y-99723575D01*
X96702647Y-99734169D01*
X96708880Y-99744505D01*
X96715487Y-99754576D01*
X96722458Y-99764371D01*
X96729785Y-99773883D01*
X96737457Y-99783102D01*
X96745466Y-99792018D01*
X96753804Y-99800623D01*
X96762459Y-99808908D01*
X96771424Y-99816863D01*
X96780689Y-99824479D01*
X96790245Y-99831748D01*
X96800083Y-99838660D01*
X96810194Y-99845205D01*
X96820568Y-99851376D01*
X96831197Y-99857162D01*
X96844599Y-99863363D01*
X96858161Y-99869147D01*
X96871872Y-99874513D01*
X96885722Y-99879457D01*
X96899703Y-99883979D01*
X96913804Y-99888076D01*
X96928015Y-99891746D01*
X96942327Y-99894987D01*
X96956730Y-99897796D01*
X96971214Y-99900173D01*
X96985769Y-99902114D01*
X97000386Y-99903618D01*
X97015054Y-99904683D01*
X97029764Y-99905306D01*
X97044507Y-99905486D01*
X97059272Y-99905221D01*
X97318300Y-99905221D01*
X97318300Y-100288061D01*
X96986776Y-100288061D01*
X96957994Y-100288483D01*
X96929260Y-100288029D01*
X96900592Y-100286702D01*
X96872011Y-100284506D01*
X96843536Y-100281446D01*
X96815186Y-100277526D01*
X96786981Y-100272750D01*
X96758939Y-100267122D01*
X96731082Y-100260647D01*
X96703427Y-100253329D01*
X96675995Y-100245171D01*
X96648804Y-100236178D01*
X96621875Y-100226355D01*
X96595226Y-100215705D01*
X96568877Y-100204233D01*
X96542848Y-100191943D01*
X96520924Y-100180574D01*
X96499485Y-100168436D01*
X96478547Y-100155546D01*
X96458128Y-100141921D01*
X96438248Y-100127578D01*
X96418923Y-100112533D01*
X96400172Y-100096804D01*
X96382013Y-100080407D01*
X96364463Y-100063359D01*
X96347541Y-100045677D01*
X96331264Y-100027378D01*
X96315651Y-100008478D01*
X96300720Y-99988995D01*
X96286488Y-99968946D01*
X96272974Y-99948346D01*
X96260195Y-99927214D01*
X96248151Y-99904196D01*
X96236882Y-99880843D01*
X96226394Y-99857174D01*
X96216692Y-99833208D01*
X96207779Y-99808966D01*
X96199661Y-99784467D01*
X96192343Y-99759731D01*
X96185829Y-99734778D01*
X96180125Y-99709628D01*
X96175235Y-99684300D01*
X96171164Y-99658815D01*
X96167917Y-99633191D01*
X96165499Y-99607449D01*
X96163914Y-99581609D01*
X96163167Y-99555689D01*
X96163263Y-99529711D01*
X96163052Y-99503561D01*
X96163684Y-99477466D01*
X96165157Y-99451446D01*
X96167464Y-99425520D01*
X96170602Y-99399709D01*
X96174565Y-99374031D01*
X96179349Y-99348506D01*
X96184949Y-99323155D01*
X96191360Y-99297997D01*
X96198578Y-99273052D01*
X96206599Y-99248339D01*
X96215417Y-99223878D01*
X96225027Y-99199689D01*
X96235426Y-99175791D01*
X96246607Y-99152205D01*
X96258568Y-99128951D01*
X96258567Y-99128951D01*
X96270946Y-99107606D01*
X96284064Y-99086774D01*
X96297902Y-99066473D01*
X96312443Y-99046720D01*
X96327671Y-99027530D01*
X96343568Y-99008922D01*
X96360116Y-98990912D01*
X96377298Y-98973517D01*
X96395097Y-98956753D01*
X96413496Y-98940638D01*
X96432478Y-98925189D01*
X96452024Y-98910423D01*
X96472119Y-98896356D01*
X96492743Y-98883005D01*
X96513881Y-98870387D01*
X96535515Y-98858520D01*
X96561116Y-98846054D01*
X96587050Y-98834415D01*
X96613296Y-98823607D01*
X96639834Y-98813634D01*
X96666644Y-98804502D01*
X96693706Y-98796214D01*
X96721000Y-98788775D01*
X96748506Y-98782189D01*
X96776202Y-98776462D01*
X96804070Y-98771597D01*
X96832089Y-98767599D01*
X96860239Y-98764473D01*
X96888500Y-98762223D01*
X96916851Y-98760853D01*
X96945273Y-98760368D01*
X96973744Y-98760773D01*
G37*
G36*
X107429859Y-98338205D02*
G01*
X107465730Y-98341007D01*
X107501078Y-98345568D01*
X107535859Y-98351842D01*
X107570030Y-98359787D01*
X107603546Y-98369357D01*
X107636363Y-98380508D01*
X107668437Y-98393198D01*
X107699724Y-98407380D01*
X107730179Y-98423012D01*
X107759759Y-98440049D01*
X107788420Y-98458447D01*
X107816117Y-98478162D01*
X107842805Y-98499149D01*
X107868442Y-98521365D01*
X107892983Y-98544766D01*
X107916383Y-98569306D01*
X107938599Y-98594943D01*
X107959587Y-98621632D01*
X107979301Y-98649329D01*
X107997699Y-98677989D01*
X108014736Y-98707569D01*
X108030368Y-98738025D01*
X108044551Y-98769312D01*
X108057240Y-98801386D01*
X108068392Y-98834203D01*
X108077962Y-98867719D01*
X108085906Y-98901889D01*
X108092181Y-98936671D01*
X108096741Y-98972019D01*
X108099543Y-99007889D01*
X108100543Y-99044238D01*
X108100543Y-100623657D01*
X108099543Y-100660005D01*
X108096741Y-100695875D01*
X108092181Y-100731222D01*
X108085907Y-100766004D01*
X108077963Y-100800174D01*
X108068393Y-100833690D01*
X108057241Y-100866507D01*
X108044552Y-100898581D01*
X108030370Y-100929868D01*
X108014738Y-100960323D01*
X107997702Y-100989903D01*
X107979304Y-101018564D01*
X107959589Y-101046260D01*
X107938602Y-101072949D01*
X107916386Y-101098586D01*
X107892986Y-101123127D01*
X107868445Y-101146527D01*
X107842809Y-101168743D01*
X107816120Y-101189731D01*
X107788423Y-101209446D01*
X107759763Y-101227844D01*
X107730183Y-101244881D01*
X107699727Y-101260513D01*
X107668441Y-101274696D01*
X107636367Y-101287385D01*
X107603550Y-101298537D01*
X107570034Y-101308107D01*
X107535863Y-101316052D01*
X107501082Y-101322327D01*
X107465734Y-101326887D01*
X107429863Y-101329689D01*
X107393515Y-101330689D01*
X105783954Y-101330689D01*
X105804387Y-101308224D01*
X105823230Y-101284685D01*
X105840459Y-101260156D01*
X105856051Y-101234720D01*
X105869981Y-101208461D01*
X105882228Y-101181462D01*
X105892767Y-101153808D01*
X105901576Y-101125581D01*
X105908631Y-101096866D01*
X105913909Y-101067746D01*
X105917387Y-101038304D01*
X105919040Y-101008624D01*
X105918847Y-100978791D01*
X105916783Y-100948887D01*
X105912825Y-100918995D01*
X105906951Y-100889201D01*
X107393511Y-100889201D01*
X107407115Y-100888775D01*
X107420538Y-100887675D01*
X107433763Y-100885919D01*
X107446775Y-100883523D01*
X107459555Y-100880503D01*
X107472089Y-100876876D01*
X107484359Y-100872658D01*
X107496350Y-100867866D01*
X107508044Y-100862517D01*
X107519426Y-100856627D01*
X107530478Y-100850212D01*
X107541185Y-100843289D01*
X107551529Y-100835875D01*
X107561496Y-100827987D01*
X107571067Y-100819640D01*
X107580227Y-100810851D01*
X107588959Y-100801637D01*
X107597247Y-100792015D01*
X107605074Y-100782000D01*
X107612424Y-100771610D01*
X107619281Y-100760861D01*
X107625627Y-100749769D01*
X107631447Y-100738352D01*
X107636724Y-100726625D01*
X107641442Y-100714605D01*
X107645584Y-100702309D01*
X107649134Y-100689753D01*
X107652076Y-100676954D01*
X107654392Y-100663929D01*
X107656067Y-100650693D01*
X107657084Y-100637263D01*
X107657426Y-100623657D01*
X107657426Y-99044238D01*
X107657041Y-99030591D01*
X107655979Y-99017123D01*
X107654259Y-99003852D01*
X107651895Y-98990793D01*
X107648906Y-98977964D01*
X107645306Y-98965381D01*
X107641113Y-98953060D01*
X107636344Y-98941018D01*
X107631014Y-98929271D01*
X107625141Y-98917836D01*
X107618741Y-98906730D01*
X107611830Y-98895970D01*
X107604426Y-98885570D01*
X107596544Y-98875549D01*
X107588201Y-98865923D01*
X107579413Y-98856708D01*
X107570198Y-98847920D01*
X107560572Y-98839577D01*
X107550551Y-98831695D01*
X107540152Y-98824290D01*
X107529391Y-98817379D01*
X107518285Y-98810979D01*
X107506850Y-98805106D01*
X107495103Y-98799776D01*
X107483061Y-98795007D01*
X107470740Y-98790814D01*
X107458157Y-98787214D01*
X107445328Y-98784225D01*
X107432269Y-98781861D01*
X107418998Y-98780140D01*
X107405530Y-98779079D01*
X107391883Y-98778693D01*
X105814907Y-98778693D01*
X105801259Y-98779079D01*
X105787792Y-98780140D01*
X105774520Y-98781861D01*
X105761462Y-98784224D01*
X105748633Y-98787214D01*
X105736049Y-98790814D01*
X105723728Y-98795007D01*
X105711686Y-98799776D01*
X105699939Y-98805106D01*
X105688505Y-98810979D01*
X105677399Y-98817379D01*
X105666638Y-98824290D01*
X105656238Y-98831694D01*
X105646217Y-98839577D01*
X105636591Y-98847920D01*
X105627376Y-98856707D01*
X105618588Y-98865922D01*
X105610245Y-98875548D01*
X105602363Y-98885570D01*
X105594959Y-98895969D01*
X105588048Y-98906730D01*
X105581648Y-98917836D01*
X105575774Y-98929271D01*
X105570445Y-98941017D01*
X105565675Y-98953059D01*
X105561483Y-98965380D01*
X105557883Y-98977964D01*
X105554893Y-98990793D01*
X105552530Y-99003851D01*
X105550809Y-99017123D01*
X105549748Y-99030590D01*
X105549362Y-99044238D01*
X105549362Y-100530798D01*
X105519568Y-100524923D01*
X105489677Y-100520966D01*
X105459772Y-100518902D01*
X105429939Y-100518709D01*
X105400259Y-100520363D01*
X105370818Y-100523840D01*
X105341697Y-100529118D01*
X105312982Y-100536173D01*
X105284756Y-100544982D01*
X105257101Y-100555521D01*
X105230103Y-100567768D01*
X105203844Y-100581699D01*
X105178408Y-100597290D01*
X105153878Y-100614519D01*
X105130340Y-100633362D01*
X105107874Y-100653796D01*
X105107874Y-99044238D01*
X105108874Y-99007890D01*
X105111676Y-98972020D01*
X105116236Y-98936672D01*
X105122510Y-98901891D01*
X105130455Y-98867720D01*
X105140025Y-98834204D01*
X105151176Y-98801388D01*
X105163865Y-98769314D01*
X105178048Y-98738027D01*
X105193679Y-98707572D01*
X105210716Y-98677992D01*
X105229114Y-98649331D01*
X105248828Y-98621635D01*
X105269816Y-98594946D01*
X105292031Y-98569309D01*
X105315432Y-98544768D01*
X105339972Y-98521368D01*
X105365609Y-98499152D01*
X105392298Y-98478164D01*
X105419994Y-98458449D01*
X105448655Y-98440051D01*
X105478235Y-98423014D01*
X105508690Y-98407382D01*
X105539977Y-98393199D01*
X105572051Y-98380510D01*
X105604868Y-98369358D01*
X105638384Y-98359788D01*
X105672554Y-98351843D01*
X105707336Y-98345569D01*
X105742684Y-98341008D01*
X105778554Y-98338206D01*
X105814902Y-98337205D01*
X105814907Y-98337205D01*
X107393511Y-98337205D01*
X107429859Y-98338205D01*
G37*
G36*
X93845045Y-101021158D02*
G01*
X92879799Y-101021158D01*
X92852340Y-101021592D01*
X92824915Y-101021276D01*
X92797539Y-101020213D01*
X92770228Y-101018406D01*
X92742996Y-101015857D01*
X92715859Y-101012570D01*
X92688831Y-101008547D01*
X92661928Y-101003791D01*
X92635163Y-100998305D01*
X92608553Y-100992091D01*
X92582112Y-100985154D01*
X92555856Y-100977495D01*
X92529799Y-100969118D01*
X92503956Y-100960025D01*
X92478342Y-100950219D01*
X92452972Y-100939703D01*
X92433069Y-100930523D01*
X92413558Y-100920650D01*
X92394455Y-100910097D01*
X92375777Y-100898877D01*
X92357539Y-100887006D01*
X92339759Y-100874496D01*
X92322452Y-100861362D01*
X92305635Y-100847617D01*
X92289324Y-100833275D01*
X92273535Y-100818350D01*
X92258285Y-100802856D01*
X92243590Y-100786806D01*
X92229466Y-100770215D01*
X92215930Y-100753096D01*
X92202997Y-100735463D01*
X92190685Y-100717330D01*
X92179643Y-100699162D01*
X92169287Y-100680649D01*
X92159622Y-100661813D01*
X92150655Y-100642672D01*
X92142390Y-100623247D01*
X92134834Y-100603556D01*
X92127991Y-100583620D01*
X92121868Y-100563459D01*
X92116470Y-100543091D01*
X92111803Y-100522536D01*
X92107872Y-100501815D01*
X92104683Y-100480947D01*
X92102241Y-100459951D01*
X92100553Y-100438848D01*
X92099623Y-100417656D01*
X92099457Y-100396396D01*
X92099465Y-100377558D01*
X92099945Y-100363185D01*
X92592260Y-100363185D01*
X92593117Y-100377917D01*
X92594817Y-100392502D01*
X92597345Y-100406906D01*
X92600687Y-100421095D01*
X92604826Y-100435038D01*
X92609748Y-100448701D01*
X92615437Y-100462051D01*
X92621879Y-100475054D01*
X92629057Y-100487678D01*
X92636957Y-100499890D01*
X92645564Y-100511656D01*
X92654862Y-100522944D01*
X92664836Y-100533720D01*
X92675470Y-100543951D01*
X92686750Y-100553605D01*
X92702934Y-100564151D01*
X92719501Y-100573961D01*
X92736427Y-100583026D01*
X92753686Y-100591342D01*
X92771252Y-100598900D01*
X92789101Y-100605695D01*
X92807207Y-100611720D01*
X92825544Y-100616967D01*
X92844088Y-100621431D01*
X92862813Y-100625104D01*
X92881694Y-100627980D01*
X92900705Y-100630053D01*
X92919821Y-100631315D01*
X92939016Y-100631760D01*
X92958266Y-100631382D01*
X92977545Y-100630173D01*
X93367716Y-100630173D01*
X93367716Y-100029847D01*
X93367716Y-99704026D01*
X93367716Y-99146871D01*
X93004427Y-99146871D01*
X92987972Y-99146225D01*
X92971564Y-99146323D01*
X92955227Y-99147158D01*
X92938985Y-99148724D01*
X92922861Y-99151012D01*
X92906879Y-99154015D01*
X92891062Y-99157727D01*
X92875435Y-99162140D01*
X92860020Y-99167247D01*
X92844842Y-99173040D01*
X92829923Y-99179513D01*
X92815289Y-99186657D01*
X92800961Y-99194466D01*
X92786965Y-99202933D01*
X92773323Y-99212050D01*
X92760059Y-99221810D01*
X92749358Y-99231236D01*
X92739266Y-99241195D01*
X92729797Y-99251658D01*
X92720964Y-99262594D01*
X92712782Y-99273973D01*
X92705264Y-99285764D01*
X92698424Y-99297939D01*
X92692275Y-99310465D01*
X92686832Y-99323314D01*
X92682109Y-99336456D01*
X92678118Y-99349859D01*
X92674875Y-99363494D01*
X92672392Y-99377330D01*
X92670684Y-99391338D01*
X92669763Y-99405487D01*
X92669645Y-99419747D01*
X92669536Y-99429954D01*
X92669830Y-99440129D01*
X92670524Y-99450261D01*
X92671615Y-99460338D01*
X92673099Y-99470349D01*
X92674974Y-99480283D01*
X92677235Y-99490128D01*
X92679879Y-99499874D01*
X92682904Y-99509508D01*
X92686306Y-99519020D01*
X92690081Y-99528398D01*
X92694227Y-99537630D01*
X92698739Y-99546707D01*
X92703616Y-99555615D01*
X92708852Y-99564344D01*
X92714445Y-99572883D01*
X92720324Y-99580942D01*
X92726461Y-99588779D01*
X92732850Y-99596391D01*
X92739484Y-99603770D01*
X92746358Y-99610912D01*
X92753463Y-99617812D01*
X92760793Y-99624463D01*
X92768342Y-99630861D01*
X92776104Y-99636999D01*
X92784070Y-99642873D01*
X92792236Y-99648477D01*
X92800594Y-99653806D01*
X92809137Y-99658854D01*
X92817859Y-99663615D01*
X92826754Y-99668085D01*
X92835814Y-99672258D01*
X92846233Y-99676554D01*
X92856749Y-99680568D01*
X92867357Y-99684297D01*
X92878050Y-99687743D01*
X92888823Y-99690902D01*
X92899670Y-99693775D01*
X92910586Y-99696359D01*
X92921563Y-99698654D01*
X92932598Y-99700659D01*
X92943683Y-99702372D01*
X92954814Y-99703793D01*
X92965984Y-99704921D01*
X92977188Y-99705753D01*
X92988419Y-99706289D01*
X92999673Y-99706529D01*
X93010943Y-99706470D01*
X93299294Y-99706470D01*
X93299294Y-100032291D01*
X92964512Y-100032291D01*
X92951729Y-100032169D01*
X92938967Y-100032411D01*
X92926232Y-100033013D01*
X92913531Y-100033975D01*
X92900873Y-100035296D01*
X92888265Y-100036973D01*
X92875714Y-100039005D01*
X92863228Y-100041391D01*
X92850814Y-100044128D01*
X92838480Y-100047216D01*
X92826234Y-100050653D01*
X92814083Y-100054438D01*
X92802034Y-100058568D01*
X92790095Y-100063043D01*
X92778273Y-100067860D01*
X92766577Y-100073018D01*
X92756818Y-100077820D01*
X92747254Y-100082948D01*
X92737892Y-100088396D01*
X92728738Y-100094158D01*
X92719800Y-100100228D01*
X92711087Y-100106598D01*
X92702604Y-100113262D01*
X92694360Y-100120215D01*
X92686361Y-100127449D01*
X92678616Y-100134958D01*
X92671132Y-100142736D01*
X92663915Y-100150775D01*
X92656974Y-100159071D01*
X92650315Y-100167616D01*
X92643947Y-100176403D01*
X92637877Y-100185427D01*
X92632383Y-100194690D01*
X92627230Y-100204121D01*
X92622419Y-100213708D01*
X92617954Y-100223443D01*
X92613837Y-100233316D01*
X92610070Y-100243318D01*
X92606656Y-100253439D01*
X92603598Y-100263670D01*
X92600899Y-100274002D01*
X92598560Y-100284424D01*
X92596586Y-100294928D01*
X92594978Y-100305504D01*
X92593739Y-100316142D01*
X92592871Y-100326833D01*
X92592378Y-100337568D01*
X92592262Y-100348337D01*
X92592260Y-100363185D01*
X92099945Y-100363185D01*
X92100093Y-100358768D01*
X92101338Y-100340039D01*
X92103196Y-100321386D01*
X92105664Y-100302824D01*
X92108736Y-100284367D01*
X92112411Y-100266031D01*
X92116684Y-100247831D01*
X92121551Y-100229780D01*
X92127009Y-100211893D01*
X92133054Y-100194186D01*
X92139682Y-100176673D01*
X92146889Y-100159369D01*
X92154673Y-100142289D01*
X92163028Y-100125446D01*
X92171951Y-100108857D01*
X92171951Y-100108859D01*
X92180442Y-100094465D01*
X92189376Y-100080380D01*
X92198746Y-100066612D01*
X92208542Y-100053170D01*
X92218755Y-100040063D01*
X92229376Y-100027302D01*
X92240397Y-100014895D01*
X92251807Y-100002851D01*
X92263598Y-99991181D01*
X92275761Y-99979892D01*
X92288287Y-99968994D01*
X92301167Y-99958496D01*
X92314392Y-99948409D01*
X92327952Y-99938740D01*
X92341839Y-99929500D01*
X92356043Y-99920697D01*
X92370025Y-99912566D01*
X92384233Y-99904899D01*
X92398657Y-99897699D01*
X92413284Y-99890970D01*
X92428102Y-99884716D01*
X92443101Y-99878938D01*
X92458268Y-99873642D01*
X92473591Y-99868831D01*
X92489059Y-99864508D01*
X92504660Y-99860676D01*
X92520383Y-99857339D01*
X92536215Y-99854501D01*
X92552146Y-99852164D01*
X92568163Y-99850333D01*
X92584254Y-99849011D01*
X92600409Y-99848202D01*
X92600409Y-99825395D01*
X92586355Y-99822233D01*
X92572397Y-99818734D01*
X92558539Y-99814901D01*
X92544789Y-99810736D01*
X92531152Y-99806242D01*
X92517633Y-99801422D01*
X92504239Y-99796277D01*
X92490975Y-99790810D01*
X92477847Y-99785025D01*
X92464861Y-99778922D01*
X92452023Y-99772505D01*
X92439339Y-99765777D01*
X92426814Y-99758739D01*
X92414454Y-99751394D01*
X92402265Y-99743745D01*
X92390253Y-99735794D01*
X92378989Y-99727791D01*
X92367989Y-99719465D01*
X92357261Y-99710823D01*
X92346809Y-99701872D01*
X92336640Y-99692619D01*
X92326761Y-99683070D01*
X92317178Y-99673233D01*
X92307896Y-99663115D01*
X92298923Y-99652722D01*
X92290264Y-99642062D01*
X92281926Y-99631142D01*
X92273915Y-99619969D01*
X92266236Y-99608549D01*
X92258897Y-99596890D01*
X92251904Y-99584999D01*
X92245262Y-99572883D01*
X92238641Y-99559265D01*
X92232451Y-99545473D01*
X92226693Y-99531518D01*
X92221371Y-99517410D01*
X92216486Y-99503159D01*
X92212042Y-99488776D01*
X92208040Y-99474271D01*
X92204483Y-99459653D01*
X92201372Y-99444934D01*
X92198712Y-99430124D01*
X92196503Y-99415232D01*
X92194748Y-99400270D01*
X92193449Y-99385248D01*
X92192610Y-99370175D01*
X92192231Y-99355063D01*
X92192316Y-99339921D01*
X92192146Y-99320065D01*
X92192701Y-99300264D01*
X92193976Y-99280536D01*
X92195967Y-99260900D01*
X92198667Y-99241375D01*
X92202073Y-99221980D01*
X92206179Y-99202733D01*
X92210979Y-99183655D01*
X92216469Y-99164763D01*
X92222643Y-99146078D01*
X92229497Y-99127617D01*
X92237024Y-99109400D01*
X92245221Y-99091446D01*
X92254081Y-99073773D01*
X92263601Y-99056401D01*
X92273773Y-99039350D01*
X92285569Y-99022397D01*
X92297960Y-99005937D01*
X92310929Y-98989985D01*
X92324461Y-98974554D01*
X92338538Y-98959657D01*
X92353143Y-98945307D01*
X92368262Y-98931519D01*
X92383876Y-98918305D01*
X92399969Y-98905679D01*
X92416525Y-98893655D01*
X92433527Y-98882246D01*
X92450959Y-98871465D01*
X92468804Y-98861326D01*
X92487046Y-98851843D01*
X92505667Y-98843029D01*
X92524653Y-98834897D01*
X92549471Y-98825199D01*
X92574505Y-98816164D01*
X92599740Y-98807797D01*
X92625164Y-98800098D01*
X92650763Y-98793071D01*
X92676524Y-98786718D01*
X92702433Y-98781041D01*
X92728477Y-98776042D01*
X92754642Y-98771725D01*
X92780915Y-98768091D01*
X92807284Y-98765143D01*
X92833733Y-98762883D01*
X92860251Y-98761314D01*
X92886823Y-98760437D01*
X92913436Y-98760256D01*
X92940077Y-98760773D01*
X93845045Y-98760773D01*
X93845045Y-99146871D01*
X93845045Y-101021158D01*
G37*
G36*
X95039328Y-98732341D02*
G01*
X95074414Y-98733573D01*
X95109383Y-98735955D01*
X95144209Y-98739478D01*
X95178863Y-98744136D01*
X95213320Y-98749922D01*
X95247550Y-98756830D01*
X95281528Y-98764851D01*
X95315224Y-98773979D01*
X95348613Y-98784208D01*
X95381667Y-98795530D01*
X95414358Y-98807938D01*
X95446658Y-98821425D01*
X95478541Y-98835985D01*
X95509979Y-98851610D01*
X95540945Y-98868294D01*
X95570682Y-98886191D01*
X95599701Y-98905088D01*
X95627979Y-98924963D01*
X95655496Y-98945793D01*
X95682227Y-98967555D01*
X95708151Y-98990224D01*
X95733246Y-99013777D01*
X95757489Y-99038193D01*
X95780857Y-99063446D01*
X95803329Y-99089513D01*
X95824882Y-99116373D01*
X95845494Y-99144000D01*
X95865143Y-99172372D01*
X95883805Y-99201465D01*
X95901460Y-99231257D01*
X95918083Y-99261723D01*
X95935849Y-99298495D01*
X95952437Y-99335737D01*
X95967839Y-99373421D01*
X95982050Y-99411519D01*
X95995064Y-99450001D01*
X96006874Y-99488840D01*
X96017474Y-99528007D01*
X96026857Y-99567474D01*
X96035018Y-99607211D01*
X96041949Y-99647191D01*
X96047645Y-99687384D01*
X96052100Y-99727763D01*
X96055306Y-99768298D01*
X96057258Y-99808962D01*
X96057949Y-99849725D01*
X96057373Y-99890559D01*
X96057979Y-99931313D01*
X96057328Y-99971998D01*
X96055426Y-100012586D01*
X96052280Y-100053048D01*
X96047896Y-100093357D01*
X96042280Y-100133484D01*
X96035438Y-100173402D01*
X96027376Y-100213081D01*
X96018101Y-100252495D01*
X96007618Y-100291615D01*
X95995934Y-100330412D01*
X95983055Y-100368859D01*
X95968988Y-100406927D01*
X95953737Y-100444589D01*
X95937310Y-100481816D01*
X95919712Y-100518579D01*
X95903392Y-100549328D01*
X95886010Y-100579396D01*
X95867590Y-100608761D01*
X95848155Y-100637396D01*
X95827728Y-100665278D01*
X95806333Y-100692382D01*
X95783993Y-100718684D01*
X95760730Y-100744159D01*
X95736568Y-100768784D01*
X95711530Y-100792532D01*
X95685639Y-100815381D01*
X95658918Y-100837305D01*
X95631391Y-100858280D01*
X95603081Y-100878281D01*
X95574010Y-100897285D01*
X95544203Y-100915266D01*
X95513093Y-100932167D01*
X95481499Y-100947987D01*
X95449448Y-100962722D01*
X95416969Y-100976362D01*
X95384090Y-100988902D01*
X95350840Y-101000333D01*
X95317247Y-101010649D01*
X95283339Y-101019842D01*
X95249145Y-101027905D01*
X95214694Y-101034832D01*
X95180012Y-101040614D01*
X95145130Y-101045245D01*
X95110074Y-101048717D01*
X95074875Y-101051024D01*
X95039559Y-101052158D01*
X95004155Y-101052112D01*
X94979229Y-101052205D01*
X94954330Y-101051728D01*
X94929468Y-101050683D01*
X94904652Y-101049071D01*
X94879893Y-101046895D01*
X94855199Y-101044155D01*
X94830581Y-101040854D01*
X94806047Y-101036992D01*
X94781607Y-101032572D01*
X94757272Y-101027595D01*
X94733051Y-101022064D01*
X94708952Y-101015978D01*
X94684986Y-101009341D01*
X94661163Y-101002153D01*
X94637492Y-100994416D01*
X94613982Y-100986133D01*
X94593485Y-100977938D01*
X94573202Y-100969280D01*
X94553140Y-100960164D01*
X94533306Y-100950595D01*
X94513709Y-100940576D01*
X94494355Y-100930112D01*
X94475253Y-100919209D01*
X94456408Y-100907870D01*
X94437830Y-100896101D01*
X94419525Y-100883906D01*
X94401501Y-100871289D01*
X94383765Y-100858255D01*
X94366325Y-100844809D01*
X94349189Y-100830955D01*
X94332363Y-100816698D01*
X94315855Y-100802043D01*
X94300765Y-100788154D01*
X94286002Y-100773944D01*
X94271570Y-100759418D01*
X94257476Y-100744584D01*
X94243722Y-100729446D01*
X94230314Y-100714011D01*
X94217257Y-100698284D01*
X94204555Y-100682273D01*
X94192213Y-100665983D01*
X94180236Y-100649419D01*
X94168628Y-100632589D01*
X94157394Y-100615498D01*
X94146538Y-100598152D01*
X94136066Y-100580557D01*
X94125982Y-100562719D01*
X94116290Y-100544644D01*
X94107338Y-100527024D01*
X94098795Y-100509221D01*
X94090663Y-100491243D01*
X94082946Y-100473097D01*
X94075645Y-100454791D01*
X94068762Y-100436331D01*
X94062299Y-100417725D01*
X94056259Y-100398980D01*
X94050645Y-100380103D01*
X94045458Y-100361103D01*
X94040700Y-100341984D01*
X94036374Y-100322756D01*
X94032482Y-100303425D01*
X94029026Y-100283999D01*
X94026009Y-100264484D01*
X94023433Y-100244889D01*
X94506461Y-100244889D01*
X94508397Y-100255641D01*
X94510578Y-100266335D01*
X94513001Y-100276969D01*
X94515665Y-100287537D01*
X94518569Y-100298036D01*
X94521712Y-100308461D01*
X94525092Y-100318810D01*
X94528706Y-100329077D01*
X94532555Y-100339258D01*
X94536637Y-100349350D01*
X94540949Y-100359349D01*
X94545491Y-100369250D01*
X94550261Y-100379050D01*
X94555258Y-100388744D01*
X94560480Y-100398328D01*
X94565926Y-100407799D01*
X94571130Y-100416430D01*
X94576537Y-100424923D01*
X94582143Y-100433276D01*
X94587945Y-100441484D01*
X94593940Y-100449545D01*
X94600126Y-100457455D01*
X94606500Y-100465211D01*
X94613058Y-100472810D01*
X94619798Y-100480248D01*
X94626716Y-100487522D01*
X94633811Y-100494629D01*
X94641078Y-100501566D01*
X94648515Y-100508328D01*
X94656119Y-100514913D01*
X94663887Y-100521318D01*
X94671817Y-100527539D01*
X94680165Y-100533679D01*
X94688637Y-100539633D01*
X94697230Y-100545398D01*
X94705940Y-100550974D01*
X94714764Y-100556358D01*
X94723698Y-100561549D01*
X94732741Y-100566546D01*
X94741888Y-100571345D01*
X94751136Y-100575947D01*
X94760482Y-100580350D01*
X94769923Y-100584551D01*
X94779455Y-100588548D01*
X94789076Y-100592342D01*
X94798782Y-100595929D01*
X94808571Y-100599308D01*
X94818438Y-100602478D01*
X94840255Y-100608470D01*
X94862255Y-100613658D01*
X94884414Y-100618040D01*
X94906710Y-100621611D01*
X94929122Y-100624368D01*
X94951626Y-100626309D01*
X94974201Y-100627431D01*
X94996824Y-100627729D01*
X95017516Y-100628013D01*
X95038076Y-100627485D01*
X95058483Y-100626158D01*
X95078721Y-100624043D01*
X95098769Y-100621153D01*
X95118609Y-100617501D01*
X95138223Y-100613099D01*
X95157592Y-100607959D01*
X95176697Y-100602093D01*
X95195519Y-100595515D01*
X95214040Y-100588236D01*
X95232241Y-100580268D01*
X95250103Y-100571625D01*
X95267608Y-100562317D01*
X95284736Y-100552359D01*
X95301469Y-100541761D01*
X95317789Y-100530537D01*
X95333676Y-100518699D01*
X95349113Y-100506259D01*
X95364079Y-100493230D01*
X95378557Y-100479623D01*
X95392527Y-100465452D01*
X95405972Y-100450728D01*
X95418872Y-100435464D01*
X95431209Y-100419672D01*
X95442963Y-100403365D01*
X95454117Y-100386555D01*
X95464651Y-100369255D01*
X95474546Y-100351476D01*
X95483785Y-100333231D01*
X95492348Y-100314533D01*
X95500217Y-100295393D01*
X95509631Y-100271037D01*
X95518405Y-100246475D01*
X95526536Y-100221720D01*
X95534022Y-100196784D01*
X95540860Y-100171681D01*
X95547049Y-100146423D01*
X95552586Y-100121023D01*
X95557469Y-100095493D01*
X95561696Y-100069847D01*
X95565264Y-100044096D01*
X95568171Y-100018254D01*
X95570415Y-99992333D01*
X95571993Y-99966345D01*
X95572904Y-99940305D01*
X95573144Y-99914224D01*
X95572713Y-99888115D01*
X95573093Y-99862471D01*
X95572815Y-99836855D01*
X95571881Y-99811281D01*
X95570293Y-99785760D01*
X95568053Y-99760304D01*
X95565163Y-99734926D01*
X95561627Y-99709639D01*
X95557445Y-99684455D01*
X95552620Y-99659386D01*
X95547154Y-99634444D01*
X95541050Y-99609642D01*
X95534310Y-99584993D01*
X95526936Y-99560509D01*
X95518929Y-99536202D01*
X95510294Y-99512085D01*
X95501031Y-99488169D01*
X95492961Y-99469240D01*
X95484223Y-99450663D01*
X95474832Y-99432453D01*
X95464799Y-99414628D01*
X95454138Y-99397203D01*
X95442860Y-99380194D01*
X95430980Y-99363617D01*
X95418509Y-99347487D01*
X95405461Y-99331821D01*
X95391847Y-99316634D01*
X95377682Y-99301942D01*
X95362978Y-99287762D01*
X95347746Y-99274109D01*
X95332002Y-99260999D01*
X95315756Y-99248448D01*
X95299022Y-99236472D01*
X95281780Y-99225854D01*
X95264200Y-99215905D01*
X95246301Y-99206633D01*
X95228102Y-99198042D01*
X95209624Y-99190138D01*
X95190886Y-99182926D01*
X95171908Y-99176412D01*
X95152710Y-99170603D01*
X95133311Y-99165502D01*
X95113731Y-99161117D01*
X95093991Y-99157452D01*
X95074109Y-99154513D01*
X95054106Y-99152305D01*
X95034001Y-99150835D01*
X95013814Y-99150108D01*
X94993565Y-99150130D01*
X94970564Y-99150331D01*
X94947619Y-99151473D01*
X94924759Y-99153550D01*
X94902013Y-99156559D01*
X94879408Y-99160496D01*
X94856974Y-99165355D01*
X94834739Y-99171133D01*
X94812732Y-99177824D01*
X94802738Y-99181368D01*
X94792833Y-99185126D01*
X94783019Y-99189098D01*
X94773300Y-99193281D01*
X94763680Y-99197673D01*
X94754162Y-99202273D01*
X94744748Y-99207078D01*
X94735443Y-99212087D01*
X94726249Y-99217298D01*
X94717171Y-99222710D01*
X94708210Y-99228320D01*
X94699371Y-99234126D01*
X94690657Y-99240127D01*
X94682072Y-99246321D01*
X94673618Y-99252706D01*
X94665299Y-99259280D01*
X94657427Y-99265894D01*
X94649723Y-99272688D01*
X94642190Y-99279657D01*
X94634830Y-99286799D01*
X94627646Y-99294110D01*
X94620641Y-99301586D01*
X94613817Y-99309224D01*
X94607178Y-99317022D01*
X94600726Y-99324975D01*
X94594464Y-99333080D01*
X94588395Y-99341335D01*
X94582521Y-99349734D01*
X94576845Y-99358276D01*
X94571371Y-99366957D01*
X94566101Y-99375773D01*
X94561037Y-99384721D01*
X94555822Y-99394485D01*
X94550841Y-99404359D01*
X94546095Y-99414338D01*
X94541586Y-99424418D01*
X94537316Y-99434595D01*
X94533285Y-99444864D01*
X94529495Y-99455221D01*
X94525948Y-99465663D01*
X94522644Y-99476184D01*
X94519585Y-99486781D01*
X94516773Y-99497448D01*
X94514209Y-99508183D01*
X94511895Y-99518980D01*
X94509831Y-99529835D01*
X94508019Y-99540745D01*
X94506461Y-99551704D01*
X94023433Y-99551704D01*
X94023431Y-99551704D01*
X94026217Y-99529230D01*
X94029519Y-99506848D01*
X94033336Y-99484565D01*
X94037663Y-99462392D01*
X94042499Y-99440337D01*
X94047842Y-99418407D01*
X94053687Y-99396613D01*
X94060033Y-99374962D01*
X94066877Y-99353463D01*
X94074217Y-99332126D01*
X94082049Y-99310957D01*
X94090371Y-99289967D01*
X94099181Y-99269164D01*
X94108475Y-99248557D01*
X94118252Y-99228153D01*
X94128508Y-99207963D01*
X94138648Y-99189501D01*
X94149237Y-99171320D01*
X94160269Y-99153427D01*
X94171737Y-99135831D01*
X94183636Y-99118538D01*
X94195959Y-99101558D01*
X94208699Y-99084896D01*
X94221850Y-99068561D01*
X94235406Y-99052560D01*
X94249361Y-99036902D01*
X94263708Y-99021593D01*
X94278442Y-99006642D01*
X94293555Y-98992056D01*
X94309041Y-98977842D01*
X94324894Y-98964009D01*
X94341108Y-98950564D01*
X94357875Y-98937268D01*
X94374925Y-98924369D01*
X94392250Y-98911871D01*
X94409843Y-98899778D01*
X94427696Y-98888093D01*
X94445804Y-98876820D01*
X94464158Y-98865964D01*
X94482751Y-98855528D01*
X94501576Y-98845517D01*
X94520626Y-98835934D01*
X94539893Y-98826783D01*
X94559370Y-98818069D01*
X94579050Y-98809795D01*
X94598925Y-98801965D01*
X94618989Y-98794583D01*
X94639235Y-98787653D01*
X94683699Y-98774421D01*
X94728600Y-98762975D01*
X94773883Y-98753323D01*
X94819495Y-98745474D01*
X94865383Y-98739435D01*
X94911491Y-98735215D01*
X94957766Y-98732822D01*
X95004154Y-98732264D01*
X95039328Y-98732341D01*
G37*
G36*
X98461851Y-102327713D02*
G01*
X98474673Y-102346700D01*
X98515012Y-102411451D01*
X98629232Y-102604534D01*
X98740083Y-102799484D01*
X98776211Y-102866568D01*
X98786295Y-102887072D01*
X98789857Y-102896810D01*
X98786529Y-102907333D01*
X98776017Y-102929131D01*
X98730276Y-103012108D01*
X98646308Y-103156852D01*
X98517783Y-103374472D01*
X98453617Y-103482636D01*
X98428191Y-103447895D01*
X98398374Y-103402345D01*
X98356283Y-103331920D01*
X98306898Y-103245696D01*
X98255201Y-103152748D01*
X98206172Y-103062150D01*
X98164790Y-102982979D01*
X98136038Y-102924310D01*
X98127954Y-102905500D01*
X98124895Y-102895219D01*
X98127999Y-102882050D01*
X98137615Y-102858566D01*
X98172811Y-102786884D01*
X98223324Y-102692647D01*
X98281997Y-102588330D01*
X98341672Y-102486405D01*
X98395191Y-102399346D01*
X98417406Y-102365290D01*
X98435397Y-102339628D01*
X98448270Y-102323920D01*
X98452508Y-102320285D01*
X98455131Y-102319724D01*
X98461851Y-102327713D01*
G37*
G36*
X98940327Y-103143620D02*
G01*
X98948071Y-103153873D01*
X98961467Y-103174544D01*
X99001816Y-103241149D01*
X99112985Y-103433526D01*
X99219519Y-103624985D01*
X99254073Y-103690443D01*
X99263702Y-103710367D01*
X99267100Y-103719760D01*
X99266267Y-103723213D01*
X99263822Y-103729433D01*
X99254427Y-103749557D01*
X99239574Y-103778898D01*
X99219921Y-103816222D01*
X99168852Y-103909881D01*
X99106490Y-104020662D01*
X99073891Y-104077078D01*
X99042830Y-104129521D01*
X99014033Y-104176856D01*
X98988227Y-104217949D01*
X98966138Y-104251665D01*
X98956714Y-104265402D01*
X98948491Y-104276870D01*
X98941561Y-104285927D01*
X98936014Y-104292431D01*
X98931941Y-104296240D01*
X98930485Y-104297090D01*
X98929432Y-104297213D01*
X98925682Y-104294447D01*
X98919869Y-104287762D01*
X98902193Y-104262861D01*
X98876674Y-104222962D01*
X98843581Y-104168515D01*
X98755752Y-104017786D01*
X98640865Y-103814285D01*
X98588117Y-103719821D01*
X98757821Y-103425444D01*
X98792172Y-103366566D01*
X98824723Y-103312133D01*
X98854727Y-103263302D01*
X98881434Y-103221228D01*
X98904096Y-103187067D01*
X98913676Y-103173315D01*
X98921964Y-103161975D01*
X98928867Y-103153191D01*
X98934291Y-103147107D01*
X98936419Y-103145123D01*
X98938142Y-103143869D01*
X98939448Y-103143362D01*
X98940327Y-103143620D01*
G37*
G36*
X99911345Y-103148305D02*
G01*
X99914962Y-103152147D01*
X99926052Y-103166911D01*
X99941744Y-103190252D01*
X99961393Y-103221135D01*
X99984351Y-103258525D01*
X100009974Y-103301387D01*
X100037614Y-103348685D01*
X100066627Y-103399384D01*
X100123980Y-103500279D01*
X100174470Y-103588417D01*
X100212634Y-103654314D01*
X100233014Y-103688483D01*
X100256452Y-103725196D01*
X100173152Y-103862861D01*
X100134146Y-103928263D01*
X100089518Y-104004571D01*
X100044773Y-104082299D01*
X100005414Y-104151960D01*
X99988215Y-104182380D01*
X99971711Y-104210759D01*
X99956296Y-104236476D01*
X99942365Y-104258910D01*
X99936079Y-104268702D01*
X99930312Y-104277440D01*
X99925112Y-104285047D01*
X99920530Y-104291445D01*
X99916614Y-104296556D01*
X99913414Y-104300303D01*
X99910979Y-104302608D01*
X99910064Y-104303196D01*
X99909358Y-104303394D01*
X99907305Y-104301898D01*
X99903603Y-104297508D01*
X99891621Y-104280639D01*
X99874148Y-104253970D01*
X99851917Y-104218684D01*
X99796125Y-104126989D01*
X99730128Y-104015019D01*
X99562517Y-103726644D01*
X99619636Y-103624964D01*
X99679209Y-103519575D01*
X99733084Y-103425602D01*
X99780769Y-103343857D01*
X99821772Y-103275153D01*
X99855601Y-103220303D01*
X99869671Y-103198327D01*
X99881763Y-103180118D01*
X99891816Y-103165780D01*
X99899767Y-103155412D01*
X99905556Y-103149117D01*
X99907620Y-103147528D01*
X99909121Y-103146996D01*
X99911345Y-103148305D01*
G37*
G36*
X98478888Y-104013955D02*
G01*
X98516175Y-104076337D01*
X98622389Y-104259734D01*
X98727957Y-104446450D01*
X98764436Y-104512982D01*
X98781479Y-104546657D01*
X98782176Y-104549999D01*
X98782163Y-104554442D01*
X98781470Y-104559912D01*
X98780127Y-104566334D01*
X98778162Y-104573636D01*
X98775605Y-104581742D01*
X98772486Y-104590580D01*
X98768833Y-104600075D01*
X98760049Y-104620742D01*
X98749486Y-104643150D01*
X98737382Y-104666710D01*
X98723971Y-104690829D01*
X98556075Y-104979892D01*
X98545804Y-104997303D01*
X98535675Y-105014067D01*
X98525746Y-105030102D01*
X98516076Y-105045329D01*
X98506724Y-105059668D01*
X98497748Y-105073040D01*
X98489207Y-105085363D01*
X98481160Y-105096558D01*
X98473665Y-105106546D01*
X98466782Y-105115245D01*
X98460568Y-105122576D01*
X98455083Y-105128460D01*
X98452632Y-105130834D01*
X98450385Y-105132815D01*
X98448349Y-105134395D01*
X98446533Y-105135563D01*
X98444942Y-105136309D01*
X98443585Y-105136622D01*
X98442469Y-105136494D01*
X98441601Y-105135914D01*
X98421725Y-105105805D01*
X98381584Y-105039702D01*
X98268762Y-104848082D01*
X98159635Y-104658176D01*
X98124113Y-104594218D01*
X98110704Y-104567110D01*
X98114510Y-104555382D01*
X98125279Y-104532818D01*
X98163803Y-104461658D01*
X98218468Y-104366587D01*
X98281469Y-104260563D01*
X98345000Y-104156544D01*
X98401255Y-104067486D01*
X98442429Y-104006349D01*
X98454921Y-103990299D01*
X98458716Y-103986612D01*
X98460715Y-103986088D01*
X98478888Y-104013955D01*
G37*
G36*
X100385000Y-103996855D02*
G01*
X100389286Y-104000815D01*
X100402280Y-104016973D01*
X100442820Y-104076891D01*
X100496789Y-104163420D01*
X100557019Y-104264331D01*
X100616341Y-104367394D01*
X100667589Y-104460380D01*
X100703593Y-104531059D01*
X100713640Y-104554212D01*
X100717188Y-104567203D01*
X100716823Y-104570470D01*
X100715750Y-104574832D01*
X100714008Y-104580216D01*
X100711630Y-104586549D01*
X100705116Y-104601769D01*
X100696498Y-104619907D01*
X100686063Y-104640378D01*
X100674102Y-104662595D01*
X100660902Y-104685975D01*
X100646753Y-104709930D01*
X100612378Y-104767876D01*
X100570851Y-104839457D01*
X100527403Y-104915577D01*
X100487269Y-104987139D01*
X100469166Y-105019402D01*
X100451860Y-105049501D01*
X100435760Y-105076777D01*
X100421274Y-105100570D01*
X100408812Y-105120223D01*
X100403468Y-105128291D01*
X100398782Y-105135076D01*
X100394806Y-105140497D01*
X100391592Y-105144471D01*
X100389190Y-105146916D01*
X100388309Y-105147539D01*
X100387651Y-105147749D01*
X100380897Y-105141530D01*
X100368132Y-105123921D01*
X100328129Y-105060833D01*
X100274765Y-104971077D01*
X100215165Y-104867247D01*
X100156454Y-104761936D01*
X100105756Y-104667737D01*
X100070194Y-104597242D01*
X100060316Y-104574820D01*
X100056894Y-104563046D01*
X100060378Y-104550892D01*
X100070042Y-104528777D01*
X100104543Y-104460541D01*
X100153654Y-104370089D01*
X100210631Y-104269172D01*
X100268731Y-104169543D01*
X100321211Y-104082953D01*
X100361327Y-104021153D01*
X100374642Y-104003222D01*
X100382337Y-103995895D01*
X100385000Y-103996855D01*
G37*
G36*
X98001932Y-103172717D02*
G01*
X98041973Y-103240380D01*
X98154654Y-103436129D01*
X98263706Y-103629743D01*
X98299210Y-103694738D01*
X98312615Y-103721985D01*
X98302022Y-103743702D01*
X98273554Y-103796106D01*
X98182859Y-103957912D01*
X98080264Y-104137272D01*
X98005501Y-104264056D01*
X98004101Y-104266270D01*
X98002681Y-104268414D01*
X98001241Y-104270486D01*
X97999786Y-104272484D01*
X97998317Y-104274407D01*
X97996837Y-104276252D01*
X97995349Y-104278019D01*
X97993855Y-104279705D01*
X97992358Y-104281308D01*
X97990861Y-104282828D01*
X97989366Y-104284262D01*
X97987876Y-104285609D01*
X97986393Y-104286867D01*
X97984921Y-104288034D01*
X97983461Y-104289108D01*
X97982016Y-104290089D01*
X97980590Y-104290973D01*
X97979183Y-104291760D01*
X97977800Y-104292448D01*
X97976443Y-104293035D01*
X97975114Y-104293519D01*
X97973816Y-104293899D01*
X97972552Y-104294173D01*
X97971323Y-104294340D01*
X97970134Y-104294397D01*
X97968986Y-104294343D01*
X97967882Y-104294176D01*
X97966825Y-104293894D01*
X97965816Y-104293496D01*
X97964860Y-104292981D01*
X97963958Y-104292346D01*
X97963114Y-104291590D01*
X97943549Y-104262272D01*
X97903671Y-104196601D01*
X97791234Y-104004997D01*
X97682324Y-103814378D01*
X97646853Y-103749937D01*
X97633460Y-103722342D01*
X97637264Y-103710891D01*
X97648023Y-103688540D01*
X97686504Y-103617645D01*
X97741090Y-103522665D01*
X97803969Y-103416607D01*
X97867329Y-103312478D01*
X97923359Y-103223284D01*
X97964245Y-103162034D01*
X97976568Y-103145953D01*
X97980272Y-103142259D01*
X97982176Y-103141735D01*
X98001932Y-103172717D01*
G37*
G36*
X101040373Y-103422823D02*
G01*
X101213410Y-103719888D01*
X101045338Y-104011641D01*
X101018793Y-104057506D01*
X100994427Y-104099148D01*
X100972175Y-104136658D01*
X100951970Y-104170128D01*
X100933748Y-104199648D01*
X100917444Y-104225308D01*
X100902992Y-104247200D01*
X100896440Y-104256761D01*
X100890327Y-104265414D01*
X100884645Y-104273170D01*
X100879384Y-104280041D01*
X100874538Y-104286038D01*
X100870098Y-104291172D01*
X100866056Y-104295455D01*
X100862404Y-104298898D01*
X100859133Y-104301513D01*
X100856235Y-104303310D01*
X100854924Y-104303905D01*
X100853703Y-104304301D01*
X100852572Y-104304498D01*
X100851528Y-104304497D01*
X100850572Y-104304301D01*
X100849702Y-104303911D01*
X100848917Y-104303327D01*
X100848217Y-104302552D01*
X100847600Y-104301587D01*
X100847064Y-104300433D01*
X100846236Y-104297565D01*
X100845725Y-104293959D01*
X100845521Y-104289627D01*
X100842490Y-104281804D01*
X100833863Y-104264729D01*
X100802237Y-104207113D01*
X100755470Y-104125363D01*
X100698390Y-104028060D01*
X100668658Y-103977496D01*
X100640519Y-103928804D01*
X100614617Y-103883157D01*
X100591597Y-103841731D01*
X100572103Y-103805700D01*
X100556781Y-103776239D01*
X100546274Y-103754521D01*
X100543028Y-103746933D01*
X100541227Y-103741721D01*
X100540331Y-103736425D01*
X100540213Y-103730252D01*
X100540874Y-103723196D01*
X100542317Y-103715254D01*
X100544545Y-103706420D01*
X100547558Y-103696689D01*
X100551359Y-103686056D01*
X100555951Y-103674517D01*
X100561334Y-103662067D01*
X100567512Y-103648700D01*
X100582257Y-103619199D01*
X100600203Y-103585974D01*
X100621366Y-103548988D01*
X100789515Y-103260277D01*
X100867335Y-103125758D01*
X101040373Y-103422823D01*
G37*
G36*
X100397441Y-102323315D02*
G01*
X100398255Y-102323652D01*
X100399014Y-102324120D01*
X100400374Y-102325444D01*
X100413668Y-102343923D01*
X100430973Y-102370640D01*
X100474895Y-102443754D01*
X100526701Y-102534725D01*
X100580956Y-102633491D01*
X100632222Y-102729992D01*
X100675062Y-102814165D01*
X100704040Y-102875951D01*
X100711631Y-102895304D01*
X100713718Y-102905288D01*
X100709387Y-102917072D01*
X100699191Y-102938725D01*
X100683792Y-102969011D01*
X100663855Y-103006694D01*
X100613019Y-103099304D01*
X100551989Y-103206667D01*
X100551988Y-103206667D01*
X100520447Y-103260943D01*
X100490639Y-103311589D01*
X100463243Y-103357496D01*
X100438939Y-103397554D01*
X100418406Y-103430654D01*
X100402326Y-103455687D01*
X100396167Y-103464832D01*
X100391377Y-103471544D01*
X100388040Y-103475685D01*
X100386942Y-103476748D01*
X100386240Y-103477115D01*
X100379808Y-103470995D01*
X100367315Y-103453502D01*
X100327718Y-103390697D01*
X100274600Y-103301294D01*
X100215108Y-103197886D01*
X100156392Y-103093066D01*
X100105601Y-102999427D01*
X100069883Y-102929563D01*
X100059911Y-102907483D01*
X100056389Y-102896068D01*
X100057234Y-102891754D01*
X100059712Y-102884681D01*
X100069237Y-102862897D01*
X100084296Y-102831990D01*
X100104220Y-102793236D01*
X100155995Y-102697284D01*
X100219219Y-102585240D01*
X100240694Y-102548108D01*
X100260581Y-102514099D01*
X100278928Y-102483141D01*
X100295788Y-102455162D01*
X100311210Y-102430089D01*
X100325245Y-102407850D01*
X100337942Y-102388373D01*
X100349354Y-102371586D01*
X100359529Y-102357416D01*
X100364168Y-102351290D01*
X100368518Y-102345791D01*
X100372584Y-102340911D01*
X100376372Y-102336639D01*
X100379889Y-102332968D01*
X100383141Y-102329888D01*
X100386134Y-102327390D01*
X100388875Y-102325465D01*
X100391370Y-102324104D01*
X100393625Y-102323298D01*
X100395646Y-102323038D01*
X100397441Y-102323315D01*
G37*
%TD*%
D11*
%TO.C,SW12*%
X131850000Y-198067100D03*
X138650000Y-198067100D03*
%TD*%
D12*
%TO.C,J1*%
X143400000Y-184890000D03*
X143400000Y-179110000D03*
D13*
X142870000Y-186320000D03*
D14*
X147050000Y-186320000D03*
D13*
X142870000Y-177680000D03*
D14*
X147050000Y-177680000D03*
%TD*%
D15*
%TO.C,J3*%
X62900000Y-75295000D03*
D16*
X62900000Y-77835000D03*
X62900000Y-80375000D03*
X62900000Y-82915000D03*
X62900000Y-85455000D03*
X62900000Y-87995000D03*
X62900000Y-90535000D03*
X62900000Y-93075000D03*
X62900000Y-95615000D03*
X62900000Y-98155000D03*
X62900000Y-100695000D03*
X62900000Y-103235000D03*
X62900000Y-105775000D03*
X62900000Y-108315000D03*
X62900000Y-110855000D03*
%TD*%
D15*
%TO.C,J2*%
X54250000Y-149250000D03*
D16*
X54250000Y-151790000D03*
X54250000Y-154330000D03*
%TD*%
D15*
%TO.C,J4*%
X136900000Y-75255000D03*
D16*
X136900000Y-77795000D03*
X136900000Y-80335000D03*
X136900000Y-82875000D03*
X136900000Y-85415000D03*
X136900000Y-87955000D03*
X136900000Y-90495000D03*
X136900000Y-93035000D03*
X136900000Y-95575000D03*
X136900000Y-98115000D03*
X136900000Y-100655000D03*
X136900000Y-103195000D03*
X136900000Y-105735000D03*
X136900000Y-108275000D03*
X136900000Y-110815000D03*
%TD*%
D17*
%TO.C,U5*%
X128800000Y-79075000D03*
X70800000Y-79075000D03*
X128800000Y-107325000D03*
X70800000Y-107325000D03*
D15*
X128000000Y-85865000D03*
D16*
X128000000Y-88405000D03*
X128000000Y-90945000D03*
X128000000Y-93485000D03*
X128000000Y-96025000D03*
X128000000Y-98565000D03*
X128000000Y-101105000D03*
%TD*%
D18*
%TO.C,BT1*%
X100000000Y-174505000D03*
X100000000Y-189495000D03*
D19*
X72835000Y-189495000D03*
D20*
X72835000Y-174505000D03*
%TD*%
M02*
