%TF.GenerationSoftware,KiCad,Pcbnew,10.0.1*%
%TF.CreationDate,2026-05-20T17:12:25+02:00*%
%TF.ProjectId,Badge_RP2350_FPGA,42616467-655f-4525-9032-3335305f4650,v1.5.3*%
%TF.SameCoordinates,Original*%
%TF.FileFunction,Paste,Top*%
%TF.FilePolarity,Positive*%
%FSLAX46Y46*%
G04 Gerber Fmt 4.6, Leading zero omitted, Abs format (unit mm)*
G04 Created by KiCad (PCBNEW 10.0.1) date 2026-05-20 17:12:25*
%MOMM*%
%LPD*%
G01*
G04 APERTURE LIST*
G04 Aperture macros list*
%AMRoundRect*
0 Rectangle with rounded corners*
0 $1 Rounding radius*
0 $2 $3 $4 $5 $6 $7 $8 $9 X,Y pos of 4 corners*
0 Add a 4 corners polygon primitive as box body*
4,1,4,$2,$3,$4,$5,$6,$7,$8,$9,$2,$3,0*
0 Add four circle primitives for the rounded corners*
1,1,$1+$1,$2,$3*
1,1,$1+$1,$4,$5*
1,1,$1+$1,$6,$7*
1,1,$1+$1,$8,$9*
0 Add four rect primitives between the rounded corners*
20,1,$1+$1,$2,$3,$4,$5,0*
20,1,$1+$1,$4,$5,$6,$7,0*
20,1,$1+$1,$6,$7,$8,$9,0*
20,1,$1+$1,$8,$9,$2,$3,0*%
%AMFreePoly0*
4,1,5,0.304700,-0.241400,-0.304900,-0.241400,-0.304900,0.241200,0.304700,0.241200,0.304700,-0.241400,0.304700,-0.241400,$1*%
%AMFreePoly1*
4,1,5,0.304700,-0.241200,-0.304900,-0.241200,-0.304900,0.241400,0.304700,0.241400,0.304700,-0.241200,0.304700,-0.241200,$1*%
%AMFreePoly2*
4,1,18,-0.437500,0.050000,-0.433694,0.069134,-0.422855,0.085355,-0.406634,0.096194,-0.387500,0.100000,0.387500,0.100000,0.437500,0.050000,0.437500,-0.050000,0.433694,-0.069134,0.422855,-0.085355,0.406634,-0.096194,0.387500,-0.100000,-0.387500,-0.100000,-0.406634,-0.096194,-0.422855,-0.085355,-0.433694,-0.069134,-0.437500,-0.050000,-0.437500,0.050000,-0.437500,0.050000,$1*%
%AMFreePoly3*
4,1,18,-0.437500,0.050000,-0.433694,0.069134,-0.422855,0.085355,-0.406634,0.096194,-0.387500,0.100000,0.387500,0.100000,0.406634,0.096194,0.422855,0.085355,0.433694,0.069134,0.437500,0.050000,0.437500,-0.050000,0.387500,-0.100000,-0.387500,-0.100000,-0.406634,-0.096194,-0.422855,-0.085355,-0.433694,-0.069134,-0.437500,-0.050000,-0.437500,0.050000,-0.437500,0.050000,$1*%
%AMFreePoly4*
4,1,18,-0.100000,0.387500,-0.050000,0.437500,0.050000,0.437500,0.069134,0.433694,0.085355,0.422855,0.096194,0.406634,0.100000,0.387500,0.100000,-0.387500,0.096194,-0.406634,0.085355,-0.422855,0.069134,-0.433694,0.050000,-0.437500,-0.050000,-0.437500,-0.069134,-0.433694,-0.085355,-0.422855,-0.096194,-0.406634,-0.100000,-0.387500,-0.100000,0.387500,-0.100000,0.387500,$1*%
%AMFreePoly5*
4,1,18,-0.100000,0.387500,-0.096194,0.406634,-0.085355,0.422855,-0.069134,0.433694,-0.050000,0.437500,0.050000,0.437500,0.100000,0.387500,0.100000,-0.387500,0.096194,-0.406634,0.085355,-0.422855,0.069134,-0.433694,0.050000,-0.437500,-0.050000,-0.437500,-0.069134,-0.433694,-0.085355,-0.422855,-0.096194,-0.406634,-0.100000,-0.387500,-0.100000,0.387500,-0.100000,0.387500,$1*%
%AMFreePoly6*
4,1,18,-0.437500,0.050000,-0.433694,0.069134,-0.422855,0.085355,-0.406634,0.096194,-0.387500,0.100000,0.387500,0.100000,0.406634,0.096194,0.422855,0.085355,0.433694,0.069134,0.437500,0.050000,0.437500,-0.050000,0.433694,-0.069134,0.422855,-0.085355,0.406634,-0.096194,0.387500,-0.100000,-0.387500,-0.100000,-0.437500,-0.050000,-0.437500,0.050000,-0.437500,0.050000,$1*%
%AMFreePoly7*
4,1,18,-0.437500,0.050000,-0.387500,0.100000,0.387500,0.100000,0.406634,0.096194,0.422855,0.085355,0.433694,0.069134,0.437500,0.050000,0.437500,-0.050000,0.433694,-0.069134,0.422855,-0.085355,0.406634,-0.096194,0.387500,-0.100000,-0.387500,-0.100000,-0.406634,-0.096194,-0.422855,-0.085355,-0.433694,-0.069134,-0.437500,-0.050000,-0.437500,0.050000,-0.437500,0.050000,$1*%
%AMFreePoly8*
4,1,18,-0.100000,0.387500,-0.096194,0.406634,-0.085355,0.422855,-0.069134,0.433694,-0.050000,0.437500,0.050000,0.437500,0.069134,0.433694,0.085355,0.422855,0.096194,0.406634,0.100000,0.387500,0.100000,-0.387500,0.050000,-0.437500,-0.050000,-0.437500,-0.069134,-0.433694,-0.085355,-0.422855,-0.096194,-0.406634,-0.100000,-0.387500,-0.100000,0.387500,-0.100000,0.387500,$1*%
%AMFreePoly9*
4,1,18,-0.100000,0.387500,-0.096194,0.406634,-0.085355,0.422855,-0.069134,0.433694,-0.050000,0.437500,0.050000,0.437500,0.069134,0.433694,0.085355,0.422855,0.096194,0.406634,0.100000,0.387500,0.100000,-0.387500,0.096194,-0.406634,0.085355,-0.422855,0.069134,-0.433694,0.050000,-0.437500,-0.050000,-0.437500,-0.100000,-0.387500,-0.100000,0.387500,-0.100000,0.387500,$1*%
G04 Aperture macros list end*
%ADD10C,0.010000*%
%ADD11RoundRect,0.162500X-0.650000X-0.162500X0.650000X-0.162500X0.650000X0.162500X-0.650000X0.162500X0*%
%ADD12RoundRect,0.140000X0.140000X0.170000X-0.140000X0.170000X-0.140000X-0.170000X0.140000X-0.170000X0*%
%ADD13R,1.000000X1.500000*%
%ADD14R,1.200000X2.500000*%
%ADD15RoundRect,0.140000X-0.170000X0.140000X-0.170000X-0.140000X0.170000X-0.140000X0.170000X0.140000X0*%
%ADD16RoundRect,0.135000X-0.185000X0.135000X-0.185000X-0.135000X0.185000X-0.135000X0.185000X0.135000X0*%
%ADD17RoundRect,0.150000X0.575000X-0.150000X0.575000X0.150000X-0.575000X0.150000X-0.575000X-0.150000X0*%
%ADD18RoundRect,0.075000X0.650000X-0.075000X0.650000X0.075000X-0.650000X0.075000X-0.650000X-0.075000X0*%
%ADD19RoundRect,0.140000X-0.140000X-0.170000X0.140000X-0.170000X0.140000X0.170000X-0.140000X0.170000X0*%
%ADD20RoundRect,0.140000X0.170000X-0.140000X0.170000X0.140000X-0.170000X0.140000X-0.170000X-0.140000X0*%
%ADD21RoundRect,0.135000X0.135000X0.185000X-0.135000X0.185000X-0.135000X-0.185000X0.135000X-0.185000X0*%
%ADD22FreePoly0,180.000000*%
%ADD23FreePoly1,180.000000*%
%ADD24RoundRect,0.027500X0.402500X0.082500X-0.402500X0.082500X-0.402500X-0.082500X0.402500X-0.082500X0*%
%ADD25RoundRect,0.027500X0.082500X0.402500X-0.082500X0.402500X-0.082500X-0.402500X0.082500X-0.402500X0*%
%ADD26RoundRect,0.135000X-0.135000X-0.185000X0.135000X-0.185000X0.135000X0.185000X-0.135000X0.185000X0*%
%ADD27RoundRect,0.250000X0.350000X0.350000X-0.350000X0.350000X-0.350000X-0.350000X0.350000X-0.350000X0*%
%ADD28FreePoly2,180.000000*%
%ADD29RoundRect,0.050000X0.387500X0.050000X-0.387500X0.050000X-0.387500X-0.050000X0.387500X-0.050000X0*%
%ADD30FreePoly3,180.000000*%
%ADD31FreePoly4,180.000000*%
%ADD32RoundRect,0.050000X0.050000X0.387500X-0.050000X0.387500X-0.050000X-0.387500X0.050000X-0.387500X0*%
%ADD33FreePoly5,180.000000*%
%ADD34FreePoly6,180.000000*%
%ADD35FreePoly7,180.000000*%
%ADD36FreePoly8,180.000000*%
%ADD37FreePoly9,180.000000*%
%ADD38R,0.700000X1.700000*%
%ADD39RoundRect,0.250000X0.450000X0.350000X-0.450000X0.350000X-0.450000X-0.350000X0.450000X-0.350000X0*%
%ADD40RoundRect,0.250000X0.300000X1.600000X-0.300000X1.600000X-0.300000X-1.600000X0.300000X-1.600000X0*%
%ADD41R,1.500000X1.000000*%
%ADD42RoundRect,0.250000X-0.300000X-1.600000X0.300000X-1.600000X0.300000X1.600000X-0.300000X1.600000X0*%
%ADD43R,0.490000X1.157000*%
%ADD44R,0.490000X1.175000*%
%ADD45RoundRect,0.135000X0.185000X-0.135000X0.185000X0.135000X-0.185000X0.135000X-0.185000X-0.135000X0*%
%ADD46RoundRect,0.250000X-1.600000X0.300000X-1.600000X-0.300000X1.600000X-0.300000X1.600000X0.300000X0*%
%ADD47RoundRect,0.162500X0.650000X0.162500X-0.650000X0.162500X-0.650000X-0.162500X0.650000X-0.162500X0*%
%ADD48RoundRect,0.250000X-0.250000X-0.475000X0.250000X-0.475000X0.250000X0.475000X-0.250000X0.475000X0*%
G04 APERTURE END LIST*
D10*
%TO.C,U2*%
X98637500Y-132335000D02*
X97217500Y-132335000D01*
X97217500Y-130915000D01*
X98637500Y-130915000D01*
X98637500Y-132335000D01*
G36*
X98637500Y-132335000D02*
G01*
X97217500Y-132335000D01*
X97217500Y-130915000D01*
X98637500Y-130915000D01*
X98637500Y-132335000D01*
G37*
X98637500Y-134585000D02*
X97217500Y-134585000D01*
X97217500Y-133165000D01*
X98637500Y-133165000D01*
X98637500Y-134585000D01*
G36*
X98637500Y-134585000D02*
G01*
X97217500Y-134585000D01*
X97217500Y-133165000D01*
X98637500Y-133165000D01*
X98637500Y-134585000D01*
G37*
X98637500Y-136835000D02*
X97217500Y-136835000D01*
X97217500Y-135415000D01*
X98637500Y-135415000D01*
X98637500Y-136835000D01*
G36*
X98637500Y-136835000D02*
G01*
X97217500Y-136835000D01*
X97217500Y-135415000D01*
X98637500Y-135415000D01*
X98637500Y-136835000D01*
G37*
X100887500Y-132335000D02*
X99467500Y-132335000D01*
X99467500Y-130915000D01*
X100887500Y-130915000D01*
X100887500Y-132335000D01*
G36*
X100887500Y-132335000D02*
G01*
X99467500Y-132335000D01*
X99467500Y-130915000D01*
X100887500Y-130915000D01*
X100887500Y-132335000D01*
G37*
X100887500Y-134585000D02*
X99467500Y-134585000D01*
X99467500Y-133165000D01*
X100887500Y-133165000D01*
X100887500Y-134585000D01*
G36*
X100887500Y-134585000D02*
G01*
X99467500Y-134585000D01*
X99467500Y-133165000D01*
X100887500Y-133165000D01*
X100887500Y-134585000D01*
G37*
X100887500Y-136835000D02*
X99467500Y-136835000D01*
X99467500Y-135415000D01*
X100887500Y-135415000D01*
X100887500Y-136835000D01*
G36*
X100887500Y-136835000D02*
G01*
X99467500Y-136835000D01*
X99467500Y-135415000D01*
X100887500Y-135415000D01*
X100887500Y-136835000D01*
G37*
X103137500Y-132335000D02*
X101717500Y-132335000D01*
X101717500Y-130915000D01*
X103137500Y-130915000D01*
X103137500Y-132335000D01*
G36*
X103137500Y-132335000D02*
G01*
X101717500Y-132335000D01*
X101717500Y-130915000D01*
X103137500Y-130915000D01*
X103137500Y-132335000D01*
G37*
X103137500Y-134585000D02*
X101717500Y-134585000D01*
X101717500Y-133165000D01*
X103137500Y-133165000D01*
X103137500Y-134585000D01*
G36*
X103137500Y-134585000D02*
G01*
X101717500Y-134585000D01*
X101717500Y-133165000D01*
X103137500Y-133165000D01*
X103137500Y-134585000D01*
G37*
X103137500Y-136835000D02*
X101717500Y-136835000D01*
X101717500Y-135415000D01*
X103137500Y-135415000D01*
X103137500Y-136835000D01*
G36*
X103137500Y-136835000D02*
G01*
X101717500Y-136835000D01*
X101717500Y-135415000D01*
X103137500Y-135415000D01*
X103137500Y-136835000D01*
G37*
%TD*%
D11*
%TO.C,U6*%
X81412500Y-115730000D03*
X81412500Y-117000000D03*
X81412500Y-118270000D03*
X81412500Y-119540000D03*
X88587500Y-119540000D03*
X88587500Y-118270000D03*
X88587500Y-117000000D03*
X88587500Y-115730000D03*
%TD*%
D12*
%TO.C,C14*%
X97780000Y-146500000D03*
X96820000Y-146500000D03*
%TD*%
%TO.C,C9*%
X95980000Y-155300000D03*
X95020000Y-155300000D03*
%TD*%
D13*
%TO.C,SW4*%
X77650100Y-131375000D03*
X77650100Y-123375000D03*
X82149900Y-131375000D03*
X82149900Y-123375000D03*
%TD*%
D14*
%TO.C,SW12*%
X132750100Y-195317000D03*
X135250000Y-195317000D03*
X137749900Y-195317000D03*
%TD*%
D15*
%TO.C,C44*%
X132950000Y-168707400D03*
X132950000Y-169667400D03*
%TD*%
D16*
%TO.C,R6*%
X111250000Y-154500000D03*
X111250000Y-155520000D03*
%TD*%
D12*
%TO.C,C10*%
X95480000Y-151500000D03*
X94520000Y-151500000D03*
%TD*%
D17*
%TO.C,J1*%
X141955000Y-185250000D03*
X141955000Y-184450000D03*
D18*
X141955000Y-183250000D03*
X141955000Y-182250000D03*
X141955000Y-181750000D03*
X141955000Y-180750000D03*
D17*
X141955000Y-179550000D03*
X141955000Y-178750000D03*
X141955000Y-178750000D03*
X141955000Y-179550000D03*
D18*
X141955000Y-180250000D03*
X141955000Y-181250000D03*
X141955000Y-182750000D03*
X141955000Y-183750000D03*
D17*
X141955000Y-184450000D03*
X141955000Y-185250000D03*
%TD*%
D15*
%TO.C,C40*%
X144750000Y-165857400D03*
X144750000Y-166817400D03*
%TD*%
D19*
%TO.C,C25*%
X95000000Y-140100000D03*
X95960000Y-140100000D03*
%TD*%
D16*
%TO.C,R10*%
X142416667Y-165827400D03*
X142416667Y-166847400D03*
%TD*%
D12*
%TO.C,C1*%
X139480000Y-166697400D03*
X138520000Y-166697400D03*
%TD*%
D20*
%TO.C,C11*%
X101000000Y-145980000D03*
X101000000Y-145020000D03*
%TD*%
D21*
%TO.C,R2*%
X101250000Y-144000000D03*
X100230000Y-144000000D03*
%TD*%
D22*
%TO.C,D10*%
X128111200Y-142380100D03*
D23*
X126688800Y-142369900D03*
%TD*%
D20*
%TO.C,C45*%
X139750000Y-176827400D03*
X139750000Y-175867400D03*
%TD*%
D21*
%TO.C,R1*%
X134770000Y-161647400D03*
X133750000Y-161647400D03*
%TD*%
%TO.C,R5*%
X97810000Y-155300000D03*
X96790000Y-155300000D03*
%TD*%
D12*
%TO.C,C5*%
X134750000Y-162947400D03*
X133790000Y-162947400D03*
%TD*%
D24*
%TO.C,U2*%
X105112500Y-138075000D03*
X105112500Y-137675000D03*
X105112500Y-137275000D03*
X105112500Y-136875000D03*
X105112500Y-136475000D03*
X105112500Y-136075000D03*
X105112500Y-135675000D03*
X105112500Y-135275000D03*
X105112500Y-134875000D03*
X105112500Y-134475000D03*
X105112500Y-134075000D03*
X105112500Y-133675000D03*
X105112500Y-133275000D03*
X105112500Y-132875000D03*
X105112500Y-132475000D03*
X105112500Y-132075000D03*
X105112500Y-131675000D03*
X105112500Y-131275000D03*
X105112500Y-130875000D03*
X105112500Y-130475000D03*
X105112500Y-130075000D03*
X105112500Y-129675000D03*
D25*
X104377500Y-128940000D03*
X103977500Y-128940000D03*
X103577500Y-128940000D03*
X103177500Y-128940000D03*
X102777500Y-128940000D03*
X102377500Y-128940000D03*
X101977500Y-128940000D03*
X101577500Y-128940000D03*
X101177500Y-128940000D03*
X100777500Y-128940000D03*
X100377500Y-128940000D03*
X99977500Y-128940000D03*
X99577500Y-128940000D03*
X99177500Y-128940000D03*
X98777500Y-128940000D03*
X98377500Y-128940000D03*
X97977500Y-128940000D03*
X97577500Y-128940000D03*
X97177500Y-128940000D03*
X96777500Y-128940000D03*
X96377500Y-128940000D03*
X95977500Y-128940000D03*
D24*
X95242500Y-129675000D03*
X95242500Y-130075000D03*
X95242500Y-130475000D03*
X95242500Y-130875000D03*
X95242500Y-131275000D03*
X95242500Y-131675000D03*
X95242500Y-132075000D03*
X95242500Y-132475000D03*
X95242500Y-132875000D03*
X95242500Y-133275000D03*
X95242500Y-133675000D03*
X95242500Y-134075000D03*
X95242500Y-134475000D03*
X95242500Y-134875000D03*
X95242500Y-135275000D03*
X95242500Y-135675000D03*
X95242500Y-136075000D03*
X95242500Y-136475000D03*
X95242500Y-136875000D03*
X95242500Y-137275000D03*
X95242500Y-137675000D03*
X95242500Y-138075000D03*
D25*
X95977500Y-138810000D03*
X96377500Y-138810000D03*
X96777500Y-138810000D03*
X97177500Y-138810000D03*
X97577500Y-138810000D03*
X97977500Y-138810000D03*
X98377500Y-138810000D03*
X98777500Y-138810000D03*
X99177500Y-138810000D03*
X99577500Y-138810000D03*
X99977500Y-138810000D03*
X100377500Y-138810000D03*
X100777500Y-138810000D03*
X101177500Y-138810000D03*
X101577500Y-138810000D03*
X101977500Y-138810000D03*
X102377500Y-138810000D03*
X102777500Y-138810000D03*
X103177500Y-138810000D03*
X103577500Y-138810000D03*
X103977500Y-138810000D03*
X104377500Y-138810000D03*
%TD*%
D21*
%TO.C,R18*%
X140270000Y-183750000D03*
X139250000Y-183750000D03*
%TD*%
D26*
%TO.C,R3*%
X108740000Y-165500000D03*
X109760000Y-165500000D03*
%TD*%
D12*
%TO.C,C21*%
X101300000Y-139980000D03*
X100340000Y-139980000D03*
%TD*%
D21*
%TO.C,R16*%
X134760000Y-165697400D03*
X133740000Y-165697400D03*
%TD*%
D27*
%TO.C,U1*%
X102000000Y-151800000D03*
X102000000Y-150400000D03*
X100600000Y-151800000D03*
X100600000Y-150400000D03*
D28*
X104737500Y-153900000D03*
D29*
X104737500Y-153500000D03*
X104737500Y-153100000D03*
X104737500Y-152700000D03*
X104737500Y-152300000D03*
X104737500Y-151900000D03*
X104737500Y-151500000D03*
X104737500Y-151100000D03*
X104737500Y-150700000D03*
X104737500Y-150300000D03*
X104737500Y-149900000D03*
X104737500Y-149500000D03*
X104737500Y-149100000D03*
X104737500Y-148700000D03*
D30*
X104737500Y-148300000D03*
D31*
X104100000Y-147662500D03*
D32*
X103700000Y-147662500D03*
X103300000Y-147662500D03*
X102900000Y-147662500D03*
X102500000Y-147662500D03*
X102100000Y-147662500D03*
X101700000Y-147662500D03*
X101300000Y-147662500D03*
X100900000Y-147662500D03*
X100500000Y-147662500D03*
X100100000Y-147662500D03*
X99700000Y-147662500D03*
X99300000Y-147662500D03*
X98900000Y-147662500D03*
D33*
X98500000Y-147662500D03*
D34*
X97862500Y-148300000D03*
D29*
X97862500Y-148700000D03*
X97862500Y-149100000D03*
X97862500Y-149500000D03*
X97862500Y-149900000D03*
X97862500Y-150300000D03*
X97862500Y-150700000D03*
X97862500Y-151100000D03*
X97862500Y-151500000D03*
X97862500Y-151900000D03*
X97862500Y-152300000D03*
X97862500Y-152700000D03*
X97862500Y-153100000D03*
X97862500Y-153500000D03*
D35*
X97862500Y-153900000D03*
D36*
X98500000Y-154537500D03*
D32*
X98900000Y-154537500D03*
X99300000Y-154537500D03*
X99700000Y-154537500D03*
X100100000Y-154537500D03*
X100500000Y-154537500D03*
X100900000Y-154537500D03*
X101300000Y-154537500D03*
X101700000Y-154537500D03*
X102100000Y-154537500D03*
X102500000Y-154537500D03*
X102900000Y-154537500D03*
X103300000Y-154537500D03*
X103700000Y-154537500D03*
D37*
X104100000Y-154537500D03*
%TD*%
D21*
%TO.C,R20*%
X140270000Y-180000000D03*
X139250000Y-180000000D03*
%TD*%
D13*
%TO.C,SW8*%
X125150100Y-121375000D03*
X125150100Y-113375000D03*
X129649900Y-121375000D03*
X129649900Y-113375000D03*
%TD*%
D19*
%TO.C,C31*%
X105740000Y-138900000D03*
X106700000Y-138900000D03*
%TD*%
D13*
%TO.C,SW9*%
X132650100Y-131375000D03*
X132650100Y-123375000D03*
X137149900Y-131375000D03*
X137149900Y-123375000D03*
%TD*%
D38*
%TO.C,L1*%
X95350000Y-157000000D03*
X96750000Y-157000000D03*
%TD*%
D20*
%TO.C,C7*%
X94000000Y-157440000D03*
X94000000Y-156480000D03*
%TD*%
D39*
%TO.C,Y1*%
X105700000Y-143050000D03*
X103500000Y-143050000D03*
X103500000Y-144750000D03*
X105700000Y-144750000D03*
%TD*%
D13*
%TO.C,SW3*%
X62650100Y-131375000D03*
X62650100Y-123375000D03*
X67149900Y-131375000D03*
X67149900Y-123375000D03*
%TD*%
D15*
%TO.C,C41*%
X131750000Y-168707400D03*
X131750000Y-169667400D03*
%TD*%
D12*
%TO.C,C47*%
X139530000Y-171947400D03*
X138570000Y-171947400D03*
%TD*%
D22*
%TO.C,D5*%
X73111200Y-122380100D03*
D23*
X71688800Y-122369900D03*
%TD*%
D19*
%TO.C,C38*%
X88640000Y-114260000D03*
X89600000Y-114260000D03*
%TD*%
D12*
%TO.C,C15*%
X95480000Y-150500000D03*
X94520000Y-150500000D03*
%TD*%
D15*
%TO.C,C43*%
X143583333Y-165857400D03*
X143583333Y-166817400D03*
%TD*%
D13*
%TO.C,SW6*%
X70150100Y-141375000D03*
X70150100Y-133375000D03*
X74649900Y-141375000D03*
X74649900Y-133375000D03*
%TD*%
D40*
%TO.C,L3*%
X144500000Y-169947400D03*
X141500000Y-169947400D03*
%TD*%
D22*
%TO.C,D9*%
X135611200Y-132380100D03*
D23*
X134188800Y-132369900D03*
%TD*%
D22*
%TO.C,D7*%
X128111200Y-122380100D03*
D23*
X126688800Y-122369900D03*
%TD*%
D20*
%TO.C,C33*%
X107000000Y-130660000D03*
X107000000Y-129700000D03*
%TD*%
D12*
%TO.C,C24*%
X96260000Y-127700000D03*
X95300000Y-127700000D03*
%TD*%
D16*
%TO.C,R14*%
X90400000Y-117280000D03*
X90400000Y-118300000D03*
%TD*%
D19*
%TO.C,C48*%
X136520000Y-171947400D03*
X137480000Y-171947400D03*
%TD*%
D20*
%TO.C,C34*%
X93800000Y-130660000D03*
X93800000Y-129700000D03*
%TD*%
D22*
%TO.C,D2*%
X80611200Y-132380100D03*
D23*
X79188800Y-132369900D03*
%TD*%
D15*
%TO.C,C20*%
X93800000Y-133340000D03*
X93800000Y-134300000D03*
%TD*%
D41*
%TO.C,SW1*%
X117049900Y-155945100D03*
X112750100Y-155945100D03*
X117049900Y-154344900D03*
X112750100Y-154344900D03*
%TD*%
D13*
%TO.C,SW7*%
X117650100Y-131375000D03*
X117650100Y-123375000D03*
X122149900Y-131375000D03*
X122149900Y-123375000D03*
%TD*%
%TO.C,SW10*%
X125150100Y-141375000D03*
X125150100Y-133375000D03*
X129649900Y-141375000D03*
X129649900Y-133375000D03*
%TD*%
D16*
%TO.C,R4*%
X84850100Y-147790100D03*
X84850100Y-148810100D03*
%TD*%
D13*
%TO.C,SW11*%
X97650100Y-121875000D03*
X97650100Y-113875000D03*
X102149900Y-121875000D03*
X102149900Y-113875000D03*
%TD*%
D19*
%TO.C,C2*%
X136540000Y-166697400D03*
X137500000Y-166697400D03*
%TD*%
D42*
%TO.C,L2*%
X132000000Y-172947400D03*
X135000000Y-172947400D03*
%TD*%
D12*
%TO.C,C3*%
X101250000Y-142750000D03*
X100290000Y-142750000D03*
%TD*%
D43*
%TO.C,U3*%
X136550000Y-176805600D03*
X137500000Y-176805600D03*
X138450000Y-176805600D03*
D44*
X138450000Y-174498200D03*
X136550000Y-174498200D03*
%TD*%
D22*
%TO.C,D1*%
X65611200Y-132380100D03*
D23*
X64188800Y-132369900D03*
%TD*%
D22*
%TO.C,D6*%
X73111200Y-142380100D03*
D23*
X71688800Y-142369900D03*
%TD*%
D45*
%TO.C,R19*%
X108100000Y-137110000D03*
X108100000Y-136090000D03*
%TD*%
D15*
%TO.C,C32*%
X93800000Y-138220000D03*
X93800000Y-139180000D03*
%TD*%
D16*
%TO.C,R13*%
X135350000Y-168697400D03*
X135350000Y-169717400D03*
%TD*%
D46*
%TO.C,L4*%
X137750000Y-161947400D03*
X137750000Y-164947400D03*
%TD*%
D19*
%TO.C,C8*%
X107020000Y-152250000D03*
X107980000Y-152250000D03*
%TD*%
D45*
%TO.C,R8*%
X100000000Y-157760000D03*
X100000000Y-156740000D03*
%TD*%
D26*
%TO.C,R15*%
X80350000Y-114510000D03*
X81370000Y-114510000D03*
%TD*%
D13*
%TO.C,SW5*%
X70150100Y-121375000D03*
X70150100Y-113375000D03*
X74649900Y-121375000D03*
X74649900Y-113375000D03*
%TD*%
D22*
%TO.C,D11*%
X100711200Y-123505100D03*
D23*
X99288800Y-123494900D03*
%TD*%
D45*
%TO.C,R7*%
X101500000Y-157750000D03*
X101500000Y-156730000D03*
%TD*%
D47*
%TO.C,U7*%
X112837500Y-163655000D03*
X112837500Y-162385000D03*
X112837500Y-161115000D03*
X112837500Y-159845000D03*
X105662500Y-159845000D03*
X105662500Y-161115000D03*
X105662500Y-162385000D03*
X105662500Y-163655000D03*
%TD*%
D16*
%TO.C,R9*%
X141250000Y-165827400D03*
X141250000Y-166847400D03*
%TD*%
D26*
%TO.C,R12*%
X105240000Y-157000000D03*
X106260000Y-157000000D03*
%TD*%
D19*
%TO.C,C46*%
X136520000Y-173047400D03*
X137480000Y-173047400D03*
%TD*%
D48*
%TO.C,C19*%
X107340000Y-149750000D03*
X109240000Y-149750000D03*
%TD*%
D19*
%TO.C,C4*%
X104200000Y-146000000D03*
X105160000Y-146000000D03*
%TD*%
D12*
%TO.C,C42*%
X134750000Y-164322400D03*
X133790000Y-164322400D03*
%TD*%
%TO.C,C39*%
X107480000Y-165500000D03*
X106520000Y-165500000D03*
%TD*%
%TO.C,C16*%
X96780000Y-154300000D03*
X95820000Y-154300000D03*
%TD*%
D16*
%TO.C,R17*%
X134150000Y-168697400D03*
X134150000Y-169717400D03*
%TD*%
D41*
%TO.C,SW2*%
X86700200Y-147500000D03*
X91000000Y-147500000D03*
X86700200Y-149100200D03*
X91000000Y-149100200D03*
%TD*%
D15*
%TO.C,C6*%
X94000000Y-154500000D03*
X94000000Y-155460000D03*
%TD*%
D16*
%TO.C,R11*%
X107000000Y-154490000D03*
X107000000Y-155510000D03*
%TD*%
D12*
%TO.C,C23*%
X106060000Y-127700000D03*
X105100000Y-127700000D03*
%TD*%
D20*
%TO.C,C22*%
X92400000Y-138180000D03*
X92400000Y-137220000D03*
%TD*%
D19*
%TO.C,C13*%
X104790000Y-155750000D03*
X105750000Y-155750000D03*
%TD*%
D22*
%TO.C,D3*%
X120611200Y-132380100D03*
D23*
X119188800Y-132369900D03*
%TD*%
M02*
