M48
; DRILL file KiCad 10.0.1 date 2026-05-20T17:12:19
; FORMAT={-:-/ absolute / metric / decimal}
; #@! TF.CreationDate,2026-05-20T17:12:19+02:00
; #@! TF.GenerationSoftware,Kicad,Pcbnew,10.0.1
; #@! TF.FileFunction,Plated,1,2,PTH
FMAT,2
METRIC
; #@! TA.AperFunction,Plated,PTH,ComponentDrill
T1C0.250
; #@! TA.AperFunction,Plated,PTH,ViaDrill
T2C0.300
; #@! TA.AperFunction,Plated,PTH,ViaDrill
T3C0.400
; #@! TA.AperFunction,Plated,PTH,ComponentDrill
T4C0.600
; #@! TA.AperFunction,Plated,PTH,ComponentDrill
T5C1.000
; #@! TA.AperFunction,Plated,PTH,ComponentDrill
T6C1.020
%
G90
G05
T1
X99.925Y-149.725
X99.925Y-151.1
X99.925Y-152.475
X101.3Y-149.725
X101.3Y-151.1
X101.3Y-152.475
X102.675Y-149.725
X102.675Y-151.1
X102.675Y-152.475
T2
X51.4Y-115.3
X51.4Y-121.8
X51.5Y-128.9
X52.4Y-85.7
X53.2Y-129.0
X53.3Y-121.7
X53.4Y-115.1
X53.9Y-110.8
X55.4Y-129.0
X55.5Y-121.7
X55.6Y-115.1
X56.2Y-108.3
X57.7Y-149.2
X58.0Y-129.0
X58.1Y-121.7
X58.2Y-115.1
X58.75Y-105.775
X59.5Y-140.0
X61.0Y-146.8
X61.0Y-149.9
X61.0Y-153.1
X61.4Y-136.9
X63.2Y-181.9
X63.9Y-168.9
X64.6Y-114.9
X65.3Y-119.2
X65.4Y-97.2
X65.5Y-100.0
X65.7Y-103.0
X65.75Y-131.25
X66.3Y-112.0
X66.6Y-84.2
X66.8Y-86.8
X67.0Y-91.8
X67.1Y-80.8
X67.1Y-94.5
X67.4Y-78.2
X68.1Y-111.9
X70.0Y-101.9
X70.6Y-115.1
X72.1Y-127.0
X72.1Y-147.2
X72.1Y-152.2
X73.4Y-86.7
X73.4Y-94.5
X73.5Y-84.1
X73.5Y-89.3
X73.5Y-91.7
X79.2Y-103.5
X79.756Y-117.094
X79.8Y-124.7
X80.0Y-131.25
X80.0Y-144.7
X80.1Y-139.6
X81.723Y-151.65
X82.423Y-147.605
X82.423Y-151.65
X82.9Y-133.7
X83.018Y-135.182
X83.185Y-137.033
X83.2Y-158.8
X83.247Y-151.638
X83.248Y-147.605
X83.5Y-125.3
X84.8Y-145.6
X84.9Y-150.0
X85.1Y-135.0
X85.1Y-140.8
X85.8Y-122.2
X86.0Y-130.3
X86.7Y-155.3
X87.768Y-129.932
X88.1Y-82.9
X88.3Y-132.1
X88.5Y-143.5
X88.646Y-120.523
X89.4Y-136.9
X89.5Y-130.9
X89.789Y-128.524
X90.5Y-136.9
X91.0Y-140.9
X91.032Y-145.068
X91.313Y-131.953
X91.5Y-136.6
X91.599Y-131.314
X91.7Y-128.7
X91.902Y-140.797
X91.948Y-151.6
X92.0Y-141.8
X92.202Y-130.81
X92.213Y-135.509
X92.5Y-147.5
X93.3Y-150.9
X93.4Y-127.0
X93.5Y-122.7
X93.518Y-144.482
X93.8Y-114.4
X93.8Y-132.0
X93.803Y-129.109
X93.9Y-140.1
X94.6Y-143.8
X95.3Y-129.0
X95.4Y-93.6
X95.581Y-122.251
X95.581Y-127.331
X95.8Y-142.4
X96.1Y-130.2
X96.1Y-130.2
X96.2Y-145.134
X96.6Y-143.2
X97.2Y-141.9
X97.282Y-145.034
X97.3Y-147.3
X97.6Y-127.7
X97.79Y-144.399
X98.2Y-141.1
X98.5Y-146.5
X98.637Y-155.837
X98.75Y-153.5
X98.8Y-113.875
X98.8Y-143.1
X98.8Y-150.749
X98.806Y-149.25
X99.45Y-143.36
X99.5Y-145.5
X100.0Y-146.0
X100.0Y-148.75
X100.1Y-145.0
X100.6Y-127.9
X100.701Y-140.435
X100.924Y-148.674
X101.037Y-127.353
X101.4Y-170.5
X101.5Y-137.8
X101.5Y-153.75
X101.527Y-126.681
X101.9Y-126.0
X102.1Y-143.1
X102.7Y-146.0
X102.9Y-139.7
X103.46Y-140.12
X103.5Y-146.0
X103.697Y-148.6
X104.2Y-168.4
X104.305Y-140.095
X104.75Y-154.75
X104.8Y-139.6
X104.9Y-122.1
X105.0Y-138.8
X105.1Y-129.0
X105.718Y-140.718
X105.75Y-154.75
X105.8Y-152.9
X105.9Y-150.5
X106.1Y-128.6
X106.15Y-136.95
X106.2Y-135.7
X106.2Y-149.3
X106.3Y-133.65
X106.5Y-137.6
X106.68Y-140.462
X107.0Y-142.5
X107.0Y-116.6
X107.0Y-144.5
X107.2Y-148.532
X107.275Y-136.525
X107.5Y-134.9
X107.5Y-147.2
X107.7Y-122.7
X107.725Y-139.348
X107.903Y-144.103
X107.911Y-133.725
X108.0Y-116.5
X108.0Y-156.25
X108.2Y-130.7
X108.25Y-162.5
X108.8Y-145.9
X109.168Y-134.568
X109.2Y-178.7
X109.4Y-123.8
X109.5Y-145.4
X109.5Y-147.5
X109.5Y-163.7
X109.9Y-139.6
X109.95Y-113.35
X109.95Y-114.05
X109.95Y-144.743
X109.95Y-146.4
X110.4Y-146.976
X110.6Y-119.0
X110.6Y-120.2
X111.125Y-150.4
X111.5Y-109.4
X111.5Y-163.75
X111.8Y-176.1
X111.875Y-119.125
X112.3Y-128.5
X112.8Y-139.6
X113.0Y-124.1
X113.0Y-128.35
X113.6Y-125.3
X113.6Y-128.9
X113.6Y-135.5
X113.7Y-133.9
X114.1Y-173.8
X114.3Y-124.2
X114.8Y-127.6
X114.8Y-132.425
X115.3Y-158.7
X115.5Y-132.425
X116.0Y-125.9
X116.0Y-131.4
X116.1Y-109.9
X116.6Y-132.2
X116.6Y-133.725
X116.8Y-116.5
X117.1Y-125.2
X117.1Y-139.6
X117.6Y-149.6
X117.8Y-142.2
X117.8Y-144.2
X119.5Y-128.1
X119.8Y-140.6
X120.3Y-94.2
X120.396Y-144.526
X120.65Y-131.572
X121.8Y-116.5
X122.5Y-94.3
X122.6Y-135.2
X122.8Y-110.1
X123.2Y-95.3
X124.3Y-130.9
X124.5Y-123.7
X124.9Y-143.3
X125.0Y-95.7
X125.3Y-131.4
X125.3Y-163.2
X125.8Y-132.1
X125.9Y-97.0
X126.1Y-99.4
X128.143Y-123.444
X128.2Y-160.0
X128.5Y-125.1
X129.7Y-91.6
X129.9Y-89.6
X130.7Y-190.9
X131.3Y-92.7
X131.3Y-94.1
X131.4Y-95.3
X131.5Y-96.5
X131.5Y-97.8
X131.6Y-99.1
X131.6Y-100.3
X131.6Y-102.4
X131.7Y-89.7
X131.8Y-180.3
X131.8Y-186.0
X132.0Y-82.8
X132.1Y-91.7
X132.2Y-135.2
X132.715Y-122.047
X133.2Y-87.2
X133.2Y-154.9
X133.5Y-167.6
X133.5Y-170.6
X133.6Y-91.4
X133.9Y-116.6
X134.6Y-81.8
X135.0Y-117.7
X135.6Y-165.0
X135.7Y-167.9
X136.0Y-190.9
X137.7Y-175.8
X138.0Y-169.3
X140.2Y-167.6
X140.2Y-171.8
X140.3Y-178.9
X140.7Y-173.5
X140.9Y-121.7
X141.3Y-163.3
X141.5Y-190.9
X141.7Y-121.7
X141.8Y-79.7
X142.1Y-149.6
X142.2Y-126.0
X142.2Y-134.4
X142.4Y-86.6
X142.5Y-101.1
X142.5Y-121.7
X143.0Y-167.5
X143.4Y-78.3
X143.4Y-175.5
X147.3Y-134.3
X147.5Y-125.8
X147.6Y-149.4
X147.7Y-86.5
X147.7Y-100.9
T3
X100.177Y-133.875
T5
X54.25Y-149.25
X54.25Y-151.79
X54.25Y-154.33
X62.9Y-75.295
X62.9Y-77.835
X62.9Y-80.375
X62.9Y-82.915
X62.9Y-85.455
X62.9Y-87.995
X62.9Y-90.535
X62.9Y-93.075
X62.9Y-95.615
X62.9Y-98.155
X62.9Y-100.695
X62.9Y-103.235
X62.9Y-105.775
X62.9Y-108.315
X62.9Y-110.855
X128.0Y-85.865
X128.0Y-88.405
X128.0Y-90.945
X128.0Y-93.485
X128.0Y-96.025
X128.0Y-98.565
X128.0Y-101.105
X136.9Y-75.255
X136.9Y-77.795
X136.9Y-80.335
X136.9Y-82.875
X136.9Y-85.415
X136.9Y-87.955
X136.9Y-90.495
X136.9Y-93.035
X136.9Y-95.575
X136.9Y-98.115
X136.9Y-100.655
X136.9Y-103.195
X136.9Y-105.735
X136.9Y-108.275
X136.9Y-110.815
T6
X72.835Y-174.505
X72.835Y-189.495
T4
G00X142.32Y-177.68
M15
G01X143.42Y-177.68
M16
G05
G00X142.32Y-186.32
M15
G01X143.42Y-186.32
M16
G05
G00X146.75Y-177.68
M15
G01X147.35Y-177.68
M16
G05
G00X146.75Y-186.32
M15
G01X147.35Y-186.32
M16
G05
M30
