%TF.GenerationSoftware,KiCad,Pcbnew,10.0.1*%
%TF.CreationDate,2026-05-20T17:12:26+02:00*%
%TF.ProjectId,Badge_RP2350_FPGA,42616467-655f-4525-9032-3335305f4650,v1.5.3*%
%TF.SameCoordinates,Original*%
%TF.FileFunction,Soldermask,Top*%
%TF.FilePolarity,Negative*%
%FSLAX46Y46*%
G04 Gerber Fmt 4.6, Leading zero omitted, Abs format (unit mm)*
G04 Created by KiCad (PCBNEW 10.0.1) date 2026-05-20 17:12:26*
%MOMM*%
%LPD*%
G01*
G04 APERTURE LIST*
G04 Aperture macros list*
%AMRoundRect*
0 Rectangle with rounded corners*
0 $1 Rounding radius*
0 $2 $3 $4 $5 $6 $7 $8 $9 X,Y pos of 4 corners*
0 Add a 4 corners polygon primitive as box body*
4,1,4,$2,$3,$4,$5,$6,$7,$8,$9,$2,$3,0*
0 Add four circle primitives for the rounded corners*
1,1,$1+$1,$2,$3*
1,1,$1+$1,$4,$5*
1,1,$1+$1,$6,$7*
1,1,$1+$1,$8,$9*
0 Add four rect primitives between the rounded corners*
20,1,$1+$1,$2,$3,$4,$5,0*
20,1,$1+$1,$4,$5,$6,$7,0*
20,1,$1+$1,$6,$7,$8,$9,0*
20,1,$1+$1,$8,$9,$2,$3,0*%
%AMFreePoly0*
4,1,13,0.340621,0.277121,0.355500,0.241200,0.355500,-0.241400,0.340621,-0.277321,0.304700,-0.292200,-0.304900,-0.292200,-0.340821,-0.277321,-0.355700,-0.241400,-0.355700,0.241200,-0.340821,0.277121,-0.304900,0.292000,0.304700,0.292000,0.340621,0.277121,0.340621,0.277121,$1*%
%AMFreePoly1*
4,1,13,0.340621,0.277321,0.355500,0.241400,0.355500,-0.241200,0.340621,-0.277121,0.304700,-0.292000,-0.304900,-0.292000,-0.340821,-0.277121,-0.355700,-0.241200,-0.355700,0.241400,-0.340821,0.277321,-0.304900,0.292200,0.304700,0.292200,0.340621,0.277321,0.340621,0.277321,$1*%
%AMFreePoly2*
4,1,18,-0.437500,0.050000,-0.433694,0.069134,-0.422855,0.085355,-0.406634,0.096194,-0.387500,0.100000,0.387500,0.100000,0.437500,0.050000,0.437500,-0.050000,0.433694,-0.069134,0.422855,-0.085355,0.406634,-0.096194,0.387500,-0.100000,-0.387500,-0.100000,-0.406634,-0.096194,-0.422855,-0.085355,-0.433694,-0.069134,-0.437500,-0.050000,-0.437500,0.050000,-0.437500,0.050000,$1*%
%AMFreePoly3*
4,1,18,-0.437500,0.050000,-0.433694,0.069134,-0.422855,0.085355,-0.406634,0.096194,-0.387500,0.100000,0.387500,0.100000,0.406634,0.096194,0.422855,0.085355,0.433694,0.069134,0.437500,0.050000,0.437500,-0.050000,0.387500,-0.100000,-0.387500,-0.100000,-0.406634,-0.096194,-0.422855,-0.085355,-0.433694,-0.069134,-0.437500,-0.050000,-0.437500,0.050000,-0.437500,0.050000,$1*%
%AMFreePoly4*
4,1,18,-0.100000,0.387500,-0.050000,0.437500,0.050000,0.437500,0.069134,0.433694,0.085355,0.422855,0.096194,0.406634,0.100000,0.387500,0.100000,-0.387500,0.096194,-0.406634,0.085355,-0.422855,0.069134,-0.433694,0.050000,-0.437500,-0.050000,-0.437500,-0.069134,-0.433694,-0.085355,-0.422855,-0.096194,-0.406634,-0.100000,-0.387500,-0.100000,0.387500,-0.100000,0.387500,$1*%
%AMFreePoly5*
4,1,18,-0.100000,0.387500,-0.096194,0.406634,-0.085355,0.422855,-0.069134,0.433694,-0.050000,0.437500,0.050000,0.437500,0.100000,0.387500,0.100000,-0.387500,0.096194,-0.406634,0.085355,-0.422855,0.069134,-0.433694,0.050000,-0.437500,-0.050000,-0.437500,-0.069134,-0.433694,-0.085355,-0.422855,-0.096194,-0.406634,-0.100000,-0.387500,-0.100000,0.387500,-0.100000,0.387500,$1*%
%AMFreePoly6*
4,1,18,-0.437500,0.050000,-0.433694,0.069134,-0.422855,0.085355,-0.406634,0.096194,-0.387500,0.100000,0.387500,0.100000,0.406634,0.096194,0.422855,0.085355,0.433694,0.069134,0.437500,0.050000,0.437500,-0.050000,0.433694,-0.069134,0.422855,-0.085355,0.406634,-0.096194,0.387500,-0.100000,-0.387500,-0.100000,-0.437500,-0.050000,-0.437500,0.050000,-0.437500,0.050000,$1*%
%AMFreePoly7*
4,1,18,-0.437500,0.050000,-0.387500,0.100000,0.387500,0.100000,0.406634,0.096194,0.422855,0.085355,0.433694,0.069134,0.437500,0.050000,0.437500,-0.050000,0.433694,-0.069134,0.422855,-0.085355,0.406634,-0.096194,0.387500,-0.100000,-0.387500,-0.100000,-0.406634,-0.096194,-0.422855,-0.085355,-0.433694,-0.069134,-0.437500,-0.050000,-0.437500,0.050000,-0.437500,0.050000,$1*%
%AMFreePoly8*
4,1,18,-0.100000,0.387500,-0.096194,0.406634,-0.085355,0.422855,-0.069134,0.433694,-0.050000,0.437500,0.050000,0.437500,0.069134,0.433694,0.085355,0.422855,0.096194,0.406634,0.100000,0.387500,0.100000,-0.387500,0.050000,-0.437500,-0.050000,-0.437500,-0.069134,-0.433694,-0.085355,-0.422855,-0.096194,-0.406634,-0.100000,-0.387500,-0.100000,0.387500,-0.100000,0.387500,$1*%
%AMFreePoly9*
4,1,18,-0.100000,0.387500,-0.096194,0.406634,-0.085355,0.422855,-0.069134,0.433694,-0.050000,0.437500,0.050000,0.437500,0.069134,0.433694,0.085355,0.422855,0.096194,0.406634,0.100000,0.387500,0.100000,-0.387500,0.096194,-0.406634,0.085355,-0.422855,0.069134,-0.433694,0.050000,-0.437500,-0.050000,-0.437500,-0.100000,-0.387500,-0.100000,0.387500,-0.100000,0.387500,$1*%
G04 Aperture macros list end*
%ADD10C,0.000000*%
%ADD11RoundRect,0.162500X-0.650000X-0.162500X0.650000X-0.162500X0.650000X0.162500X-0.650000X0.162500X0*%
%ADD12RoundRect,0.140000X0.140000X0.170000X-0.140000X0.170000X-0.140000X-0.170000X0.140000X-0.170000X0*%
%ADD13RoundRect,0.050800X0.500000X-0.750000X0.500000X0.750000X-0.500000X0.750000X-0.500000X-0.750000X0*%
%ADD14RoundRect,0.050800X-0.500000X0.750000X-0.500000X-0.750000X0.500000X-0.750000X0.500000X0.750000X0*%
%ADD15C,1.000000*%
%ADD16RoundRect,0.050800X-0.600000X-1.250000X0.600000X-1.250000X0.600000X1.250000X-0.600000X1.250000X0*%
%ADD17RoundRect,0.140000X-0.170000X0.140000X-0.170000X-0.140000X0.170000X-0.140000X0.170000X0.140000X0*%
%ADD18RoundRect,0.135000X-0.185000X0.135000X-0.185000X-0.135000X0.185000X-0.135000X0.185000X0.135000X0*%
%ADD19C,0.650000*%
%ADD20RoundRect,0.150000X0.575000X-0.150000X0.575000X0.150000X-0.575000X0.150000X-0.575000X-0.150000X0*%
%ADD21RoundRect,0.075000X0.650000X-0.075000X0.650000X0.075000X-0.650000X0.075000X-0.650000X-0.075000X0*%
%ADD22O,2.100000X1.000000*%
%ADD23O,1.600000X1.000000*%
%ADD24RoundRect,0.140000X-0.140000X-0.170000X0.140000X-0.170000X0.140000X0.170000X-0.140000X0.170000X0*%
%ADD25R,1.700000X1.700000*%
%ADD26C,1.700000*%
%ADD27RoundRect,0.140000X0.170000X-0.140000X0.170000X0.140000X-0.170000X0.140000X-0.170000X-0.140000X0*%
%ADD28RoundRect,0.135000X0.135000X0.185000X-0.135000X0.185000X-0.135000X-0.185000X0.135000X-0.185000X0*%
%ADD29FreePoly0,180.000000*%
%ADD30FreePoly1,180.000000*%
%ADD31RoundRect,0.053000X0.479000X0.159000X-0.479000X0.159000X-0.479000X-0.159000X0.479000X-0.159000X0*%
%ADD32RoundRect,0.053000X0.159000X0.479000X-0.159000X0.479000X-0.159000X-0.479000X0.159000X-0.479000X0*%
%ADD33RoundRect,0.102000X3.370000X3.370000X-3.370000X3.370000X-3.370000X-3.370000X3.370000X-3.370000X0*%
%ADD34RoundRect,0.135000X-0.135000X-0.185000X0.135000X-0.185000X0.135000X0.185000X-0.135000X0.185000X0*%
%ADD35FreePoly2,180.000000*%
%ADD36RoundRect,0.050000X0.387500X0.050000X-0.387500X0.050000X-0.387500X-0.050000X0.387500X-0.050000X0*%
%ADD37FreePoly3,180.000000*%
%ADD38FreePoly4,180.000000*%
%ADD39RoundRect,0.050000X0.050000X0.387500X-0.050000X0.387500X-0.050000X-0.387500X0.050000X-0.387500X0*%
%ADD40FreePoly5,180.000000*%
%ADD41FreePoly6,180.000000*%
%ADD42FreePoly7,180.000000*%
%ADD43FreePoly8,180.000000*%
%ADD44FreePoly9,180.000000*%
%ADD45RoundRect,0.153000X-1.547000X1.547000X-1.547000X-1.547000X1.547000X-1.547000X1.547000X1.547000X0*%
%ADD46R,0.700000X1.700000*%
%ADD47RoundRect,0.250000X0.450000X0.350000X-0.450000X0.350000X-0.450000X-0.350000X0.450000X-0.350000X0*%
%ADD48RoundRect,0.250000X0.300000X1.600000X-0.300000X1.600000X-0.300000X-1.600000X0.300000X-1.600000X0*%
%ADD49RoundRect,0.050800X0.750000X0.500000X-0.750000X0.500000X-0.750000X-0.500000X0.750000X-0.500000X0*%
%ADD50RoundRect,0.250000X-0.300000X-1.600000X0.300000X-1.600000X0.300000X1.600000X-0.300000X1.600000X0*%
%ADD51RoundRect,0.050800X-0.245000X-0.578500X0.245000X-0.578500X0.245000X0.578500X-0.245000X0.578500X0*%
%ADD52RoundRect,0.050800X-0.245000X-0.587500X0.245000X-0.587500X0.245000X0.587500X-0.245000X0.587500X0*%
%ADD53RoundRect,0.135000X0.185000X-0.135000X0.185000X0.135000X-0.185000X0.135000X-0.185000X-0.135000X0*%
%ADD54RoundRect,0.250000X-1.600000X0.300000X-1.600000X-0.300000X1.600000X-0.300000X1.600000X0.300000X0*%
%ADD55RoundRect,0.050800X-0.332500X0.100000X-0.332500X-0.100000X0.332500X-0.100000X0.332500X0.100000X0*%
%ADD56RoundRect,0.050800X-0.100000X0.332500X-0.100000X-0.332500X0.100000X-0.332500X0.100000X0.332500X0*%
%ADD57RoundRect,0.050800X-0.825000X0.825000X-0.825000X-0.825000X0.825000X-0.825000X0.825000X0.825000X0*%
%ADD58RoundRect,0.162500X0.650000X0.162500X-0.650000X0.162500X-0.650000X-0.162500X0.650000X-0.162500X0*%
%ADD59RoundRect,0.250000X-0.250000X-0.475000X0.250000X-0.475000X0.250000X0.475000X-0.250000X0.475000X0*%
%ADD60C,2.500000*%
%ADD61RoundRect,0.050800X-0.750000X-0.500000X0.750000X-0.500000X0.750000X0.500000X-0.750000X0.500000X0*%
%ADD62C,3.300000*%
%ADD63R,2.000000X2.000000*%
%ADD64C,2.000000*%
G04 APERTURE END LIST*
D10*
%TO.C,REF\u002A\u002A*%
G36*
X121364110Y-60396191D02*
G01*
X118943146Y-60396191D01*
X118943146Y-59277171D01*
X121364110Y-59277171D01*
X121364110Y-60396191D01*
G37*
G36*
X125054722Y-61509831D02*
G01*
X127690877Y-56926151D01*
X129116551Y-56926151D01*
X125759492Y-62704171D01*
X124344575Y-62704171D01*
X120965993Y-56926151D01*
X122413189Y-56926151D01*
X125054722Y-61509831D01*
G37*
G36*
X120474843Y-67253141D02*
G01*
X120474843Y-69900363D01*
X120086716Y-69900363D01*
X119698590Y-69900363D01*
X119698590Y-67253141D01*
X119698590Y-64605918D01*
X120086716Y-64605918D01*
X120474843Y-64605918D01*
X120474843Y-67253141D01*
G37*
G36*
X126961857Y-64944101D02*
G01*
X126961857Y-65282282D01*
X125961686Y-65287441D01*
X124961514Y-65292598D01*
X124956429Y-67596479D01*
X124951344Y-69900358D01*
X124563302Y-69900358D01*
X124175263Y-69900358D01*
X124175309Y-67591508D01*
X124175309Y-65282651D01*
X123180111Y-65282651D01*
X122184910Y-65282651D01*
X122184910Y-64944284D01*
X122184910Y-64605917D01*
X124573384Y-64605917D01*
X126961857Y-64605917D01*
X126961857Y-64944101D01*
G37*
G36*
X109003563Y-67252828D02*
G01*
X109003563Y-69900371D01*
X108615437Y-69900371D01*
X108227315Y-69900371D01*
X108227315Y-67709764D01*
X108222393Y-66165690D01*
X108217065Y-65698345D01*
X108210557Y-65529512D01*
X108186306Y-65576095D01*
X108123312Y-65705583D01*
X107898152Y-66177333D01*
X107170579Y-67720317D01*
X106147355Y-69900766D01*
X105799832Y-69895589D01*
X105452317Y-69890415D01*
X104426461Y-67741842D01*
X103400609Y-65593270D01*
X103395524Y-67746818D01*
X103390439Y-69900365D01*
X103002408Y-69900365D01*
X102614369Y-69900365D01*
X102614407Y-67253141D01*
X102614407Y-64605918D01*
X103157906Y-64605918D01*
X103701401Y-64605918D01*
X104745244Y-66794618D01*
X105485647Y-68340603D01*
X105799946Y-68984050D01*
X105823651Y-68939602D01*
X105887374Y-68811952D01*
X106117395Y-68342870D01*
X106865372Y-66800326D01*
X107919942Y-64615870D01*
X108461751Y-64610579D01*
X109003563Y-64605287D01*
X109003563Y-67252828D01*
G37*
G36*
X117533642Y-67252830D02*
G01*
X117533642Y-69900373D01*
X117145516Y-69900373D01*
X116757390Y-69900373D01*
X116757390Y-67709764D01*
X116752695Y-66165549D01*
X116747613Y-65698051D01*
X116741406Y-65529033D01*
X116717296Y-65575534D01*
X116654402Y-65704971D01*
X116429322Y-66176708D01*
X115701428Y-67720014D01*
X114677426Y-69901119D01*
X114330498Y-69895770D01*
X113983563Y-69890426D01*
X112957127Y-67740959D01*
X111930688Y-65591489D01*
X111925603Y-67745933D01*
X111920518Y-69900375D01*
X111532479Y-69900375D01*
X111144448Y-69900375D01*
X111144482Y-67253141D01*
X111144482Y-64605918D01*
X111688347Y-64605918D01*
X112232220Y-64605918D01*
X113274350Y-66786472D01*
X114014233Y-68328886D01*
X114329686Y-68975189D01*
X114353853Y-68932257D01*
X114417992Y-68806046D01*
X114648672Y-68339478D01*
X114986701Y-67646871D01*
X115397057Y-66799611D01*
X116451237Y-64615870D01*
X116992436Y-64610580D01*
X117533642Y-64605288D01*
X117533642Y-67252830D01*
G37*
G36*
X84220000Y-60330000D02*
G01*
X78501832Y-68415460D01*
X78218423Y-68815565D01*
X75042588Y-65064578D01*
X75250380Y-65022463D01*
X75451761Y-64972839D01*
X75646720Y-64915913D01*
X75835244Y-64851893D01*
X76017321Y-64780986D01*
X76192939Y-64703400D01*
X76362086Y-64619343D01*
X76524749Y-64529021D01*
X76680915Y-64432644D01*
X76830574Y-64330418D01*
X76973713Y-64222550D01*
X77110319Y-64109249D01*
X77240381Y-63990723D01*
X77363885Y-63867177D01*
X77480820Y-63738821D01*
X77591175Y-63605862D01*
X77694935Y-63468507D01*
X77792090Y-63326963D01*
X77882627Y-63181440D01*
X77966534Y-63032143D01*
X78043798Y-62879281D01*
X78114408Y-62723061D01*
X78178351Y-62563691D01*
X78235615Y-62401378D01*
X78330057Y-62068754D01*
X78397636Y-61726851D01*
X78438256Y-61377329D01*
X78451817Y-61021848D01*
X78451819Y-61021848D01*
X78438229Y-60663789D01*
X78397410Y-60307158D01*
X78329289Y-59954557D01*
X78284967Y-59780580D01*
X78233793Y-59608586D01*
X78175756Y-59438900D01*
X78110848Y-59271846D01*
X78039059Y-59107750D01*
X77960381Y-58946938D01*
X77874804Y-58789733D01*
X77782319Y-58636462D01*
X77682917Y-58487449D01*
X77576588Y-58343019D01*
X77463325Y-58203498D01*
X77343116Y-58069210D01*
X77215954Y-57940482D01*
X77081829Y-57817637D01*
X76940732Y-57701001D01*
X76792654Y-57590899D01*
X76637585Y-57487656D01*
X76475517Y-57391597D01*
X76306440Y-57303048D01*
X76130346Y-57222333D01*
X75947224Y-57149777D01*
X75757066Y-57085706D01*
X75559863Y-57030445D01*
X75355606Y-56984319D01*
X75144284Y-56947652D01*
X74925891Y-56920771D01*
X84220000Y-56920771D01*
X84220000Y-60330000D01*
G37*
G36*
X100077031Y-64610468D02*
G01*
X100459130Y-64615870D01*
X100459130Y-66427128D01*
X100457380Y-67583666D01*
X100452847Y-67947890D01*
X100443790Y-68207640D01*
X100428646Y-68391584D01*
X100405852Y-68528387D01*
X100373842Y-68646717D01*
X100331055Y-68775241D01*
X100301182Y-68856802D01*
X100267882Y-68935935D01*
X100231186Y-69012605D01*
X100191128Y-69086775D01*
X100147738Y-69158409D01*
X100101048Y-69227470D01*
X100051091Y-69293922D01*
X99997898Y-69357729D01*
X99941502Y-69418855D01*
X99881934Y-69477262D01*
X99819226Y-69532915D01*
X99753410Y-69585777D01*
X99684518Y-69635812D01*
X99612582Y-69682983D01*
X99537634Y-69727255D01*
X99459706Y-69768590D01*
X99413167Y-69790659D01*
X99362454Y-69812324D01*
X99308022Y-69833472D01*
X99250324Y-69853993D01*
X99189816Y-69873775D01*
X99126952Y-69892708D01*
X99062186Y-69910681D01*
X98995974Y-69927582D01*
X98928770Y-69943300D01*
X98861027Y-69957723D01*
X98793202Y-69970742D01*
X98725748Y-69982244D01*
X98659121Y-69992119D01*
X98593773Y-70000255D01*
X98530161Y-70006542D01*
X98468739Y-70010867D01*
X98331648Y-70017108D01*
X98203361Y-70020743D01*
X98086797Y-70022317D01*
X97984878Y-70022380D01*
X97782055Y-70018440D01*
X97782052Y-70018438D01*
X97592050Y-70003886D01*
X97410381Y-69980451D01*
X97237175Y-69948216D01*
X97072560Y-69907264D01*
X96916666Y-69857675D01*
X96769622Y-69799534D01*
X96631559Y-69732922D01*
X96502605Y-69657922D01*
X96382889Y-69574617D01*
X96272542Y-69483088D01*
X96171693Y-69383418D01*
X96080471Y-69275690D01*
X95999005Y-69159986D01*
X95927425Y-69036388D01*
X95865861Y-68904979D01*
X95814442Y-68765842D01*
X95776984Y-68649864D01*
X95761962Y-68598307D01*
X95749153Y-68545993D01*
X95743519Y-68518370D01*
X95738365Y-68489138D01*
X95733668Y-68457825D01*
X95729403Y-68423958D01*
X95725547Y-68387064D01*
X95722076Y-68346669D01*
X95716188Y-68253489D01*
X95711547Y-68140632D01*
X95707959Y-68004315D01*
X95705232Y-67840754D01*
X95703171Y-67646166D01*
X95700275Y-67148773D01*
X95697726Y-66481865D01*
X95690604Y-64605919D01*
X96078814Y-64605919D01*
X96467026Y-64605919D01*
X96473477Y-66461961D01*
X96478524Y-67637932D01*
X96483818Y-67993565D01*
X96493645Y-68235319D01*
X96510017Y-68393961D01*
X96521286Y-68451729D01*
X96534946Y-68500256D01*
X96570446Y-68584971D01*
X96618531Y-68678872D01*
X96638330Y-68716155D01*
X96659449Y-68752375D01*
X96681889Y-68787535D01*
X96705655Y-68821636D01*
X96730749Y-68854679D01*
X96757174Y-68886667D01*
X96784933Y-68917600D01*
X96814030Y-68947480D01*
X96844466Y-68976309D01*
X96876246Y-69004088D01*
X96909372Y-69030820D01*
X96943848Y-69056504D01*
X96979676Y-69081144D01*
X97016859Y-69104741D01*
X97055401Y-69127296D01*
X97095304Y-69148810D01*
X97136571Y-69169286D01*
X97179206Y-69188724D01*
X97223212Y-69207128D01*
X97268591Y-69224497D01*
X97315346Y-69240833D01*
X97363481Y-69256139D01*
X97412999Y-69270416D01*
X97463903Y-69283665D01*
X97516195Y-69295887D01*
X97569878Y-69307086D01*
X97681433Y-69326414D01*
X97798591Y-69341663D01*
X97921376Y-69352846D01*
X97962366Y-69355141D01*
X98006568Y-69356339D01*
X98102770Y-69355609D01*
X98206313Y-69350991D01*
X98313528Y-69342818D01*
X98420744Y-69331426D01*
X98524292Y-69317149D01*
X98620504Y-69300323D01*
X98664711Y-69291058D01*
X98705708Y-69281282D01*
X98779520Y-69260781D01*
X98850673Y-69237657D01*
X98919139Y-69211931D01*
X98984891Y-69183623D01*
X99047902Y-69152752D01*
X99108147Y-69119339D01*
X99165597Y-69083403D01*
X99220226Y-69044965D01*
X99272008Y-69004045D01*
X99320915Y-68960663D01*
X99366920Y-68914838D01*
X99409997Y-68866591D01*
X99450118Y-68815942D01*
X99487258Y-68762910D01*
X99521388Y-68707517D01*
X99552483Y-68649782D01*
X99562051Y-68629350D01*
X99572665Y-68604266D01*
X99583973Y-68575511D01*
X99595622Y-68544062D01*
X99607258Y-68510901D01*
X99618530Y-68477006D01*
X99629083Y-68443358D01*
X99638566Y-68410936D01*
X99645991Y-68383700D01*
X99652517Y-68356497D01*
X99655464Y-68342045D01*
X99658212Y-68326564D01*
X99660769Y-68309710D01*
X99663145Y-68291137D01*
X99665348Y-68270500D01*
X99667386Y-68247453D01*
X99671004Y-68192749D01*
X99674069Y-68124262D01*
X99676649Y-68039227D01*
X99678813Y-67934883D01*
X99680632Y-67808465D01*
X99682174Y-67657211D01*
X99683508Y-67478358D01*
X99685830Y-67026798D01*
X99688153Y-66431679D01*
X99694928Y-64605068D01*
X100077031Y-64610468D01*
G37*
G36*
X91827706Y-64499089D02*
G01*
X91973383Y-64503511D01*
X92101383Y-64511456D01*
X92160366Y-64516960D01*
X92216864Y-64523598D01*
X92271521Y-64531452D01*
X92324982Y-64540608D01*
X92377891Y-64551150D01*
X92430893Y-64563160D01*
X92539755Y-64591925D01*
X92656726Y-64627576D01*
X92746050Y-64657105D01*
X92825873Y-64685597D01*
X92898041Y-64713904D01*
X92964396Y-64742876D01*
X92995971Y-64757878D01*
X93026784Y-64773367D01*
X93087047Y-64806227D01*
X93147032Y-64842309D01*
X93208581Y-64882464D01*
X93257799Y-64917170D01*
X93305765Y-64953979D01*
X93352377Y-64992763D01*
X93397536Y-65033396D01*
X93441140Y-65075749D01*
X93483090Y-65119696D01*
X93523285Y-65165109D01*
X93561624Y-65211861D01*
X93598008Y-65259825D01*
X93632335Y-65308873D01*
X93664505Y-65358877D01*
X93694418Y-65409712D01*
X93721973Y-65461249D01*
X93747070Y-65513360D01*
X93769609Y-65565920D01*
X93789488Y-65618800D01*
X93805605Y-65670275D01*
X93823309Y-65735640D01*
X93841451Y-65809574D01*
X93858877Y-65886759D01*
X93874435Y-65961877D01*
X93886975Y-66029609D01*
X93895343Y-66084637D01*
X93897603Y-66105724D01*
X93898388Y-66121641D01*
X93897890Y-66122559D01*
X93896408Y-66123449D01*
X93890588Y-66125147D01*
X93881111Y-66126726D01*
X93868158Y-66128183D01*
X93851911Y-66129510D01*
X93832551Y-66130703D01*
X93785223Y-66132662D01*
X93727626Y-66134013D01*
X93661216Y-66134710D01*
X93587446Y-66134708D01*
X93507771Y-66133961D01*
X93117154Y-66128566D01*
X93083258Y-65998212D01*
X93073973Y-65964559D01*
X93063820Y-65931694D01*
X93052788Y-65899595D01*
X93040862Y-65868239D01*
X93028030Y-65837601D01*
X93014278Y-65807659D01*
X92999593Y-65778390D01*
X92983962Y-65749770D01*
X92967372Y-65721776D01*
X92949810Y-65694385D01*
X92931262Y-65667574D01*
X92911715Y-65641320D01*
X92891155Y-65615598D01*
X92869571Y-65590387D01*
X92846948Y-65565662D01*
X92823273Y-65541401D01*
X92770999Y-65493466D01*
X92713917Y-65448643D01*
X92652160Y-65406969D01*
X92585861Y-65368481D01*
X92515151Y-65333215D01*
X92440163Y-65301208D01*
X92361031Y-65272498D01*
X92277886Y-65247121D01*
X92190861Y-65225114D01*
X92100088Y-65206514D01*
X92005700Y-65191359D01*
X91907829Y-65179684D01*
X91806609Y-65171527D01*
X91702170Y-65166924D01*
X91594647Y-65165913D01*
X91484171Y-65168531D01*
X91357137Y-65176775D01*
X91236507Y-65191085D01*
X91122462Y-65211339D01*
X91015183Y-65237413D01*
X90914852Y-65269184D01*
X90821650Y-65306528D01*
X90735758Y-65349322D01*
X90657357Y-65397443D01*
X90586629Y-65450767D01*
X90554199Y-65479342D01*
X90523755Y-65509172D01*
X90495320Y-65540241D01*
X90468916Y-65572533D01*
X90444566Y-65606034D01*
X90422293Y-65640729D01*
X90402120Y-65676600D01*
X90384068Y-65713634D01*
X90368162Y-65751814D01*
X90354423Y-65791126D01*
X90342873Y-65831554D01*
X90333537Y-65873082D01*
X90326436Y-65915696D01*
X90321593Y-65959379D01*
X90319525Y-65991574D01*
X90318779Y-66023104D01*
X90319353Y-66053969D01*
X90321248Y-66084169D01*
X90324466Y-66113706D01*
X90329006Y-66142580D01*
X90334869Y-66170791D01*
X90342055Y-66198341D01*
X90350566Y-66225229D01*
X90360401Y-66251457D01*
X90371562Y-66277024D01*
X90384048Y-66301933D01*
X90397860Y-66326182D01*
X90412999Y-66349774D01*
X90429465Y-66372707D01*
X90447258Y-66394984D01*
X90466380Y-66416605D01*
X90486831Y-66437570D01*
X90508611Y-66457879D01*
X90531720Y-66477535D01*
X90556160Y-66496536D01*
X90581931Y-66514885D01*
X90609032Y-66532580D01*
X90637466Y-66549624D01*
X90667232Y-66566016D01*
X90698331Y-66581757D01*
X90764530Y-66611290D01*
X90836066Y-66638228D01*
X90912943Y-66662574D01*
X90962958Y-66675122D01*
X91040637Y-66692056D01*
X91263311Y-66736103D01*
X91549622Y-66788761D01*
X91868224Y-66844074D01*
X92192764Y-66899685D01*
X92457707Y-66947592D01*
X92672782Y-66990200D01*
X92847715Y-67029911D01*
X92992234Y-67069129D01*
X93116068Y-67110258D01*
X93228944Y-67155700D01*
X93340590Y-67207860D01*
X93410176Y-67243865D01*
X93475961Y-67281438D01*
X93538002Y-67320647D01*
X93596356Y-67361556D01*
X93651080Y-67404234D01*
X93702232Y-67448745D01*
X93749868Y-67495158D01*
X93794046Y-67543538D01*
X93834823Y-67593951D01*
X93872255Y-67646465D01*
X93906401Y-67701145D01*
X93937317Y-67758059D01*
X93965061Y-67817272D01*
X93989689Y-67878851D01*
X94011259Y-67942863D01*
X94029828Y-68009374D01*
X94037823Y-68046738D01*
X94044364Y-68089096D01*
X94049478Y-68135749D01*
X94053193Y-68186001D01*
X94055535Y-68239153D01*
X94056531Y-68294506D01*
X94056209Y-68351364D01*
X94054597Y-68409028D01*
X94051720Y-68466800D01*
X94047607Y-68523982D01*
X94042284Y-68579876D01*
X94035778Y-68633785D01*
X94028117Y-68685009D01*
X94019328Y-68732851D01*
X94009438Y-68776614D01*
X93998475Y-68815599D01*
X93968667Y-68902618D01*
X93935414Y-68985801D01*
X93898613Y-69065256D01*
X93858160Y-69141091D01*
X93813950Y-69213416D01*
X93765879Y-69282340D01*
X93713844Y-69347971D01*
X93657741Y-69410418D01*
X93597464Y-69469790D01*
X93532912Y-69526196D01*
X93463978Y-69579745D01*
X93390560Y-69630545D01*
X93312553Y-69678706D01*
X93229854Y-69724336D01*
X93142358Y-69767544D01*
X93049962Y-69808439D01*
X92970142Y-69839703D01*
X92885039Y-69868895D01*
X92795201Y-69895941D01*
X92701176Y-69920771D01*
X92603514Y-69943310D01*
X92502762Y-69963488D01*
X92399469Y-69981233D01*
X92294184Y-69996471D01*
X92187455Y-70009131D01*
X92079830Y-70019140D01*
X91971859Y-70026427D01*
X91864089Y-70030919D01*
X91757070Y-70032544D01*
X91651349Y-70031231D01*
X91547476Y-70026905D01*
X91445998Y-70019496D01*
X91446004Y-70019498D01*
X91212367Y-69992585D01*
X90992266Y-69954999D01*
X90785797Y-69906822D01*
X90593060Y-69848131D01*
X90414152Y-69779007D01*
X90249173Y-69699530D01*
X90171936Y-69655934D01*
X90098219Y-69609779D01*
X90028033Y-69561076D01*
X89961390Y-69509834D01*
X89898303Y-69456064D01*
X89838784Y-69399774D01*
X89782846Y-69340976D01*
X89730500Y-69279679D01*
X89681759Y-69215894D01*
X89636635Y-69149629D01*
X89595141Y-69080895D01*
X89557288Y-69009703D01*
X89523090Y-68936061D01*
X89492558Y-68859980D01*
X89465704Y-68781471D01*
X89442542Y-68700542D01*
X89423083Y-68617203D01*
X89407339Y-68531466D01*
X89395323Y-68443339D01*
X89387047Y-68352832D01*
X89374194Y-68168722D01*
X89762490Y-68168722D01*
X90150782Y-68168722D01*
X90163697Y-68293119D01*
X90174823Y-68373516D01*
X90191197Y-68451110D01*
X90212779Y-68525859D01*
X90239534Y-68597717D01*
X90271424Y-68666642D01*
X90308412Y-68732589D01*
X90350460Y-68795515D01*
X90397531Y-68855375D01*
X90449588Y-68912127D01*
X90506593Y-68965725D01*
X90568510Y-69016127D01*
X90635302Y-69063289D01*
X90706930Y-69107166D01*
X90783357Y-69147714D01*
X90864548Y-69184891D01*
X90950463Y-69218652D01*
X91030967Y-69245378D01*
X91116863Y-69269224D01*
X91207435Y-69290159D01*
X91301964Y-69308154D01*
X91399735Y-69323176D01*
X91500030Y-69335198D01*
X91602132Y-69344187D01*
X91705324Y-69350113D01*
X91808889Y-69352947D01*
X91912111Y-69352658D01*
X92014271Y-69349214D01*
X92114654Y-69342587D01*
X92212542Y-69332746D01*
X92307219Y-69319660D01*
X92397967Y-69303298D01*
X92484068Y-69283632D01*
X92526234Y-69272150D01*
X92568500Y-69259244D01*
X92610679Y-69245011D01*
X92652584Y-69229546D01*
X92694029Y-69212946D01*
X92734826Y-69195308D01*
X92774787Y-69176729D01*
X92813727Y-69157305D01*
X92851458Y-69137133D01*
X92887793Y-69116310D01*
X92922545Y-69094931D01*
X92955527Y-69073094D01*
X92986551Y-69050895D01*
X93015431Y-69028430D01*
X93041980Y-69005798D01*
X93066010Y-68983093D01*
X93091647Y-68956481D01*
X93115442Y-68929728D01*
X93137434Y-68902740D01*
X93157664Y-68875420D01*
X93176173Y-68847675D01*
X93193002Y-68819408D01*
X93208190Y-68790525D01*
X93221779Y-68760932D01*
X93233809Y-68730532D01*
X93244321Y-68699231D01*
X93253354Y-68666934D01*
X93260951Y-68633546D01*
X93267151Y-68598972D01*
X93271994Y-68563116D01*
X93275522Y-68525885D01*
X93277775Y-68487182D01*
X93278655Y-68451358D01*
X93278284Y-68416509D01*
X93276648Y-68382619D01*
X93273732Y-68349670D01*
X93269520Y-68317645D01*
X93263997Y-68286527D01*
X93257149Y-68256299D01*
X93248959Y-68226945D01*
X93239413Y-68198447D01*
X93228495Y-68170788D01*
X93216191Y-68143951D01*
X93202484Y-68117919D01*
X93187361Y-68092675D01*
X93170805Y-68068203D01*
X93152801Y-68044484D01*
X93133335Y-68021502D01*
X93112391Y-67999241D01*
X93089954Y-67977682D01*
X93066008Y-67956810D01*
X93040539Y-67936606D01*
X93013531Y-67917055D01*
X92984969Y-67898138D01*
X92954838Y-67879839D01*
X92923122Y-67862141D01*
X92889807Y-67845028D01*
X92854878Y-67828481D01*
X92780113Y-67797019D01*
X92698708Y-67767621D01*
X92610539Y-67740150D01*
X92559524Y-67727321D01*
X92481304Y-67710263D01*
X92379781Y-67689714D01*
X92258858Y-67666412D01*
X91974416Y-67614493D01*
X91659196Y-67560405D01*
X91126925Y-67468694D01*
X90931272Y-67431292D01*
X90771571Y-67396974D01*
X90639542Y-67363825D01*
X90526908Y-67329930D01*
X90425391Y-67293376D01*
X90326712Y-67252248D01*
X90225976Y-67204453D01*
X90178280Y-67179153D01*
X90132358Y-67152907D01*
X90088206Y-67125707D01*
X90045816Y-67097543D01*
X90005186Y-67068407D01*
X89966308Y-67038292D01*
X89929177Y-67007187D01*
X89893789Y-66975085D01*
X89860138Y-66941977D01*
X89828219Y-66907854D01*
X89798026Y-66872709D01*
X89769554Y-66836531D01*
X89742797Y-66799314D01*
X89717751Y-66761048D01*
X89694410Y-66721725D01*
X89672769Y-66681335D01*
X89652821Y-66639872D01*
X89634563Y-66597326D01*
X89617989Y-66553688D01*
X89603092Y-66508950D01*
X89589869Y-66463104D01*
X89578313Y-66416140D01*
X89568420Y-66368051D01*
X89560184Y-66318828D01*
X89553599Y-66268462D01*
X89548661Y-66216944D01*
X89545363Y-66164267D01*
X89543702Y-66110421D01*
X89545264Y-65999191D01*
X89549682Y-65928453D01*
X89556876Y-65859204D01*
X89566834Y-65791459D01*
X89579541Y-65725231D01*
X89594984Y-65660533D01*
X89613149Y-65597379D01*
X89634022Y-65535783D01*
X89657590Y-65475759D01*
X89683840Y-65417320D01*
X89712758Y-65360479D01*
X89744330Y-65305251D01*
X89778542Y-65251649D01*
X89815382Y-65199687D01*
X89854834Y-65149378D01*
X89896887Y-65100736D01*
X89941526Y-65053775D01*
X89988737Y-65008508D01*
X90038507Y-64964949D01*
X90090823Y-64923112D01*
X90145670Y-64883011D01*
X90203036Y-64844658D01*
X90262906Y-64808068D01*
X90325267Y-64773254D01*
X90390106Y-64740230D01*
X90457408Y-64709010D01*
X90527161Y-64679608D01*
X90599350Y-64652036D01*
X90673962Y-64626308D01*
X90830401Y-64580442D01*
X90996369Y-64542118D01*
X91065258Y-64528852D01*
X91128814Y-64518411D01*
X91160049Y-64514152D01*
X91191699Y-64510481D01*
X91224346Y-64507359D01*
X91258573Y-64504748D01*
X91294963Y-64502608D01*
X91334099Y-64500899D01*
X91422937Y-64498620D01*
X91529749Y-64497599D01*
X91659196Y-64497520D01*
X91827706Y-64499089D01*
G37*
%TD*%
D11*
%TO.C,U6*%
X81412500Y-115730000D03*
X81412500Y-117000000D03*
X81412500Y-118270000D03*
X81412500Y-119540000D03*
X88587500Y-119540000D03*
X88587500Y-118270000D03*
X88587500Y-117000000D03*
X88587500Y-115730000D03*
%TD*%
D12*
%TO.C,C14*%
X97780000Y-146500000D03*
X96820000Y-146500000D03*
%TD*%
%TO.C,C9*%
X95980000Y-155300000D03*
X95020000Y-155300000D03*
%TD*%
D13*
%TO.C,SW4*%
X77650100Y-131375000D03*
X77650100Y-123375000D03*
D14*
X82149900Y-131375000D03*
X82149900Y-123375000D03*
%TD*%
D15*
%TO.C,SW12*%
X131850000Y-198067100D03*
X138650000Y-198067100D03*
D16*
X132750100Y-195317000D03*
X135250000Y-195317000D03*
X137749900Y-195317000D03*
%TD*%
D17*
%TO.C,C44*%
X132950000Y-168707400D03*
X132950000Y-169667400D03*
%TD*%
D18*
%TO.C,R6*%
X111250000Y-154500000D03*
X111250000Y-155520000D03*
%TD*%
D12*
%TO.C,C10*%
X95480000Y-151500000D03*
X94520000Y-151500000D03*
%TD*%
D19*
%TO.C,J1*%
X143400000Y-184890000D03*
X143400000Y-179110000D03*
D20*
X141955000Y-185250000D03*
X141955000Y-184450000D03*
D21*
X141955000Y-183250000D03*
X141955000Y-182250000D03*
X141955000Y-181750000D03*
X141955000Y-180750000D03*
D20*
X141955000Y-179550000D03*
X141955000Y-178750000D03*
X141955000Y-178750000D03*
X141955000Y-179550000D03*
D21*
X141955000Y-180250000D03*
X141955000Y-181250000D03*
X141955000Y-182750000D03*
X141955000Y-183750000D03*
D20*
X141955000Y-184450000D03*
X141955000Y-185250000D03*
D22*
X142870000Y-186320000D03*
D23*
X147050000Y-186320000D03*
D22*
X142870000Y-177680000D03*
D23*
X147050000Y-177680000D03*
%TD*%
D17*
%TO.C,C40*%
X144750000Y-165857400D03*
X144750000Y-166817400D03*
%TD*%
D24*
%TO.C,C25*%
X95000000Y-140100000D03*
X95960000Y-140100000D03*
%TD*%
D18*
%TO.C,R10*%
X142416667Y-165827400D03*
X142416667Y-166847400D03*
%TD*%
D12*
%TO.C,C1*%
X139480000Y-166697400D03*
X138520000Y-166697400D03*
%TD*%
D25*
%TO.C,J3*%
X62900000Y-75295000D03*
D26*
X62900000Y-77835000D03*
X62900000Y-80375000D03*
X62900000Y-82915000D03*
X62900000Y-85455000D03*
X62900000Y-87995000D03*
X62900000Y-90535000D03*
X62900000Y-93075000D03*
X62900000Y-95615000D03*
X62900000Y-98155000D03*
X62900000Y-100695000D03*
X62900000Y-103235000D03*
X62900000Y-105775000D03*
X62900000Y-108315000D03*
X62900000Y-110855000D03*
%TD*%
D27*
%TO.C,C11*%
X101000000Y-145980000D03*
X101000000Y-145020000D03*
%TD*%
D28*
%TO.C,R2*%
X101250000Y-144000000D03*
X100230000Y-144000000D03*
%TD*%
D29*
%TO.C,D10*%
X128111200Y-142380100D03*
D30*
X126688800Y-142369900D03*
%TD*%
D27*
%TO.C,C45*%
X139750000Y-176827400D03*
X139750000Y-175867400D03*
%TD*%
D28*
%TO.C,R1*%
X134770000Y-161647400D03*
X133750000Y-161647400D03*
%TD*%
%TO.C,R5*%
X97810000Y-155300000D03*
X96790000Y-155300000D03*
%TD*%
D12*
%TO.C,C5*%
X134750000Y-162947400D03*
X133790000Y-162947400D03*
%TD*%
D31*
%TO.C,U2*%
X105112500Y-138075000D03*
X105112500Y-137675000D03*
X105112500Y-137275000D03*
X105112500Y-136875000D03*
X105112500Y-136475000D03*
X105112500Y-136075000D03*
X105112500Y-135675000D03*
X105112500Y-135275000D03*
X105112500Y-134875000D03*
X105112500Y-134475000D03*
X105112500Y-134075000D03*
X105112500Y-133675000D03*
X105112500Y-133275000D03*
X105112500Y-132875000D03*
X105112500Y-132475000D03*
X105112500Y-132075000D03*
X105112500Y-131675000D03*
X105112500Y-131275000D03*
X105112500Y-130875000D03*
X105112500Y-130475000D03*
X105112500Y-130075000D03*
X105112500Y-129675000D03*
D32*
X104377500Y-128940000D03*
X103977500Y-128940000D03*
X103577500Y-128940000D03*
X103177500Y-128940000D03*
X102777500Y-128940000D03*
X102377500Y-128940000D03*
X101977500Y-128940000D03*
X101577500Y-128940000D03*
X101177500Y-128940000D03*
X100777500Y-128940000D03*
X100377500Y-128940000D03*
X99977500Y-128940000D03*
X99577500Y-128940000D03*
X99177500Y-128940000D03*
X98777500Y-128940000D03*
X98377500Y-128940000D03*
X97977500Y-128940000D03*
X97577500Y-128940000D03*
X97177500Y-128940000D03*
X96777500Y-128940000D03*
X96377500Y-128940000D03*
X95977500Y-128940000D03*
D31*
X95242500Y-129675000D03*
X95242500Y-130075000D03*
X95242500Y-130475000D03*
X95242500Y-130875000D03*
X95242500Y-131275000D03*
X95242500Y-131675000D03*
X95242500Y-132075000D03*
X95242500Y-132475000D03*
X95242500Y-132875000D03*
X95242500Y-133275000D03*
X95242500Y-133675000D03*
X95242500Y-134075000D03*
X95242500Y-134475000D03*
X95242500Y-134875000D03*
X95242500Y-135275000D03*
X95242500Y-135675000D03*
X95242500Y-136075000D03*
X95242500Y-136475000D03*
X95242500Y-136875000D03*
X95242500Y-137275000D03*
X95242500Y-137675000D03*
X95242500Y-138075000D03*
D32*
X95977500Y-138810000D03*
X96377500Y-138810000D03*
X96777500Y-138810000D03*
X97177500Y-138810000D03*
X97577500Y-138810000D03*
X97977500Y-138810000D03*
X98377500Y-138810000D03*
X98777500Y-138810000D03*
X99177500Y-138810000D03*
X99577500Y-138810000D03*
X99977500Y-138810000D03*
X100377500Y-138810000D03*
X100777500Y-138810000D03*
X101177500Y-138810000D03*
X101577500Y-138810000D03*
X101977500Y-138810000D03*
X102377500Y-138810000D03*
X102777500Y-138810000D03*
X103177500Y-138810000D03*
X103577500Y-138810000D03*
X103977500Y-138810000D03*
X104377500Y-138810000D03*
D33*
X100177500Y-133875000D03*
%TD*%
D28*
%TO.C,R18*%
X140270000Y-183750000D03*
X139250000Y-183750000D03*
%TD*%
D34*
%TO.C,R3*%
X108740000Y-165500000D03*
X109760000Y-165500000D03*
%TD*%
D12*
%TO.C,C21*%
X101300000Y-139980000D03*
X100340000Y-139980000D03*
%TD*%
D28*
%TO.C,R16*%
X134760000Y-165697400D03*
X133740000Y-165697400D03*
%TD*%
D35*
%TO.C,U1*%
X104737500Y-153900000D03*
D36*
X104737500Y-153500000D03*
X104737500Y-153100000D03*
X104737500Y-152700000D03*
X104737500Y-152300000D03*
X104737500Y-151900000D03*
X104737500Y-151500000D03*
X104737500Y-151100000D03*
X104737500Y-150700000D03*
X104737500Y-150300000D03*
X104737500Y-149900000D03*
X104737500Y-149500000D03*
X104737500Y-149100000D03*
X104737500Y-148700000D03*
D37*
X104737500Y-148300000D03*
D38*
X104100000Y-147662500D03*
D39*
X103700000Y-147662500D03*
X103300000Y-147662500D03*
X102900000Y-147662500D03*
X102500000Y-147662500D03*
X102100000Y-147662500D03*
X101700000Y-147662500D03*
X101300000Y-147662500D03*
X100900000Y-147662500D03*
X100500000Y-147662500D03*
X100100000Y-147662500D03*
X99700000Y-147662500D03*
X99300000Y-147662500D03*
X98900000Y-147662500D03*
D40*
X98500000Y-147662500D03*
D41*
X97862500Y-148300000D03*
D36*
X97862500Y-148700000D03*
X97862500Y-149100000D03*
X97862500Y-149500000D03*
X97862500Y-149900000D03*
X97862500Y-150300000D03*
X97862500Y-150700000D03*
X97862500Y-151100000D03*
X97862500Y-151500000D03*
X97862500Y-151900000D03*
X97862500Y-152300000D03*
X97862500Y-152700000D03*
X97862500Y-153100000D03*
X97862500Y-153500000D03*
D42*
X97862500Y-153900000D03*
D43*
X98500000Y-154537500D03*
D39*
X98900000Y-154537500D03*
X99300000Y-154537500D03*
X99700000Y-154537500D03*
X100100000Y-154537500D03*
X100500000Y-154537500D03*
X100900000Y-154537500D03*
X101300000Y-154537500D03*
X101700000Y-154537500D03*
X102100000Y-154537500D03*
X102500000Y-154537500D03*
X102900000Y-154537500D03*
X103300000Y-154537500D03*
X103700000Y-154537500D03*
D44*
X104100000Y-154537500D03*
D45*
X101300000Y-151100000D03*
%TD*%
D28*
%TO.C,R20*%
X140270000Y-180000000D03*
X139250000Y-180000000D03*
%TD*%
D13*
%TO.C,SW8*%
X125150100Y-121375000D03*
X125150100Y-113375000D03*
D14*
X129649900Y-121375000D03*
X129649900Y-113375000D03*
%TD*%
D24*
%TO.C,C31*%
X105740000Y-138900000D03*
X106700000Y-138900000D03*
%TD*%
D13*
%TO.C,SW9*%
X132650100Y-131375000D03*
X132650100Y-123375000D03*
D14*
X137149900Y-131375000D03*
X137149900Y-123375000D03*
%TD*%
D46*
%TO.C,L1*%
X95350000Y-157000000D03*
X96750000Y-157000000D03*
%TD*%
D27*
%TO.C,C7*%
X94000000Y-157440000D03*
X94000000Y-156480000D03*
%TD*%
D47*
%TO.C,Y1*%
X105700000Y-143050000D03*
X103500000Y-143050000D03*
X103500000Y-144750000D03*
X105700000Y-144750000D03*
%TD*%
D13*
%TO.C,SW3*%
X62650100Y-131375000D03*
X62650100Y-123375000D03*
D14*
X67149900Y-131375000D03*
X67149900Y-123375000D03*
%TD*%
D17*
%TO.C,C41*%
X131750000Y-168707400D03*
X131750000Y-169667400D03*
%TD*%
D12*
%TO.C,C47*%
X139530000Y-171947400D03*
X138570000Y-171947400D03*
%TD*%
D29*
%TO.C,D5*%
X73111200Y-122380100D03*
D30*
X71688800Y-122369900D03*
%TD*%
D24*
%TO.C,C38*%
X88640000Y-114260000D03*
X89600000Y-114260000D03*
%TD*%
D12*
%TO.C,C15*%
X95480000Y-150500000D03*
X94520000Y-150500000D03*
%TD*%
D17*
%TO.C,C43*%
X143583333Y-165857400D03*
X143583333Y-166817400D03*
%TD*%
D13*
%TO.C,SW6*%
X70150100Y-141375000D03*
X70150100Y-133375000D03*
D14*
X74649900Y-141375000D03*
X74649900Y-133375000D03*
%TD*%
D48*
%TO.C,L3*%
X144500000Y-169947400D03*
X141500000Y-169947400D03*
%TD*%
D29*
%TO.C,D9*%
X135611200Y-132380100D03*
D30*
X134188800Y-132369900D03*
%TD*%
D29*
%TO.C,D7*%
X128111200Y-122380100D03*
D30*
X126688800Y-122369900D03*
%TD*%
D27*
%TO.C,C33*%
X107000000Y-130660000D03*
X107000000Y-129700000D03*
%TD*%
D12*
%TO.C,C24*%
X96260000Y-127700000D03*
X95300000Y-127700000D03*
%TD*%
D18*
%TO.C,R14*%
X90400000Y-117280000D03*
X90400000Y-118300000D03*
%TD*%
D24*
%TO.C,C48*%
X136520000Y-171947400D03*
X137480000Y-171947400D03*
%TD*%
D27*
%TO.C,C34*%
X93800000Y-130660000D03*
X93800000Y-129700000D03*
%TD*%
D29*
%TO.C,D2*%
X80611200Y-132380100D03*
D30*
X79188800Y-132369900D03*
%TD*%
D17*
%TO.C,C20*%
X93800000Y-133340000D03*
X93800000Y-134300000D03*
%TD*%
D49*
%TO.C,SW1*%
X117049900Y-155945100D03*
X112750100Y-155945100D03*
X117049900Y-154344900D03*
X112750100Y-154344900D03*
%TD*%
D13*
%TO.C,SW7*%
X117650100Y-131375000D03*
X117650100Y-123375000D03*
D14*
X122149900Y-131375000D03*
X122149900Y-123375000D03*
%TD*%
D13*
%TO.C,SW10*%
X125150100Y-141375000D03*
X125150100Y-133375000D03*
D14*
X129649900Y-141375000D03*
X129649900Y-133375000D03*
%TD*%
D18*
%TO.C,R4*%
X84850100Y-147790100D03*
X84850100Y-148810100D03*
%TD*%
D13*
%TO.C,SW11*%
X97650100Y-121875000D03*
X97650100Y-113875000D03*
D14*
X102149900Y-121875000D03*
X102149900Y-113875000D03*
%TD*%
D24*
%TO.C,C2*%
X136540000Y-166697400D03*
X137500000Y-166697400D03*
%TD*%
D50*
%TO.C,L2*%
X132000000Y-172947400D03*
X135000000Y-172947400D03*
%TD*%
D12*
%TO.C,C3*%
X101250000Y-142750000D03*
X100290000Y-142750000D03*
%TD*%
D51*
%TO.C,U3*%
X136550000Y-176805600D03*
X137500000Y-176805600D03*
X138450000Y-176805600D03*
D52*
X138450000Y-174498200D03*
X136550000Y-174498200D03*
%TD*%
D29*
%TO.C,D1*%
X65611200Y-132380100D03*
D30*
X64188800Y-132369900D03*
%TD*%
D29*
%TO.C,D6*%
X73111200Y-142380100D03*
D30*
X71688800Y-142369900D03*
%TD*%
D53*
%TO.C,R19*%
X108100000Y-137110000D03*
X108100000Y-136090000D03*
%TD*%
D17*
%TO.C,C32*%
X93800000Y-138220000D03*
X93800000Y-139180000D03*
%TD*%
D18*
%TO.C,R13*%
X135350000Y-168697400D03*
X135350000Y-169717400D03*
%TD*%
D54*
%TO.C,L4*%
X137750000Y-161947400D03*
X137750000Y-164947400D03*
%TD*%
D24*
%TO.C,C8*%
X107020000Y-152250000D03*
X107980000Y-152250000D03*
%TD*%
D53*
%TO.C,R8*%
X100000000Y-157760000D03*
X100000000Y-156740000D03*
%TD*%
D34*
%TO.C,R15*%
X80350000Y-114510000D03*
X81370000Y-114510000D03*
%TD*%
D13*
%TO.C,SW5*%
X70150100Y-121375000D03*
X70150100Y-113375000D03*
D14*
X74649900Y-121375000D03*
X74649900Y-113375000D03*
%TD*%
D55*
%TO.C,U4*%
X136592600Y-168499900D03*
X136592600Y-168900000D03*
X136592600Y-169300000D03*
X136592600Y-169700000D03*
X136592600Y-170100100D03*
D56*
X137199900Y-170707400D03*
X137600000Y-170707400D03*
X138000000Y-170707400D03*
X138400000Y-170707400D03*
X138800100Y-170707400D03*
D55*
X139407400Y-170100100D03*
X139407400Y-169700000D03*
X139407400Y-169300000D03*
X139407400Y-168900000D03*
X139407400Y-168499900D03*
D56*
X138800100Y-167892600D03*
X138400000Y-167892600D03*
X138000000Y-167892600D03*
X137600000Y-167892600D03*
X137199900Y-167892600D03*
D57*
X138000000Y-169300000D03*
%TD*%
D29*
%TO.C,D11*%
X100711200Y-123505100D03*
D30*
X99288800Y-123494900D03*
%TD*%
D53*
%TO.C,R7*%
X101500000Y-157750000D03*
X101500000Y-156730000D03*
%TD*%
D58*
%TO.C,U7*%
X112837500Y-163655000D03*
X112837500Y-162385000D03*
X112837500Y-161115000D03*
X112837500Y-159845000D03*
X105662500Y-159845000D03*
X105662500Y-161115000D03*
X105662500Y-162385000D03*
X105662500Y-163655000D03*
%TD*%
D18*
%TO.C,R9*%
X141250000Y-165827400D03*
X141250000Y-166847400D03*
%TD*%
D34*
%TO.C,R12*%
X105240000Y-157000000D03*
X106260000Y-157000000D03*
%TD*%
D25*
%TO.C,J2*%
X54250000Y-149250000D03*
D26*
X54250000Y-151790000D03*
X54250000Y-154330000D03*
%TD*%
D25*
%TO.C,J4*%
X136900000Y-75255000D03*
D26*
X136900000Y-77795000D03*
X136900000Y-80335000D03*
X136900000Y-82875000D03*
X136900000Y-85415000D03*
X136900000Y-87955000D03*
X136900000Y-90495000D03*
X136900000Y-93035000D03*
X136900000Y-95575000D03*
X136900000Y-98115000D03*
X136900000Y-100655000D03*
X136900000Y-103195000D03*
X136900000Y-105735000D03*
X136900000Y-108275000D03*
X136900000Y-110815000D03*
%TD*%
D24*
%TO.C,C46*%
X136520000Y-173047400D03*
X137480000Y-173047400D03*
%TD*%
D59*
%TO.C,C19*%
X107340000Y-149750000D03*
X109240000Y-149750000D03*
%TD*%
D24*
%TO.C,C4*%
X104200000Y-146000000D03*
X105160000Y-146000000D03*
%TD*%
D12*
%TO.C,C42*%
X134750000Y-164322400D03*
X133790000Y-164322400D03*
%TD*%
D60*
%TO.C,U5*%
X128800000Y-79075000D03*
X70800000Y-79075000D03*
X128800000Y-107325000D03*
X70800000Y-107325000D03*
D25*
X128000000Y-85865000D03*
D26*
X128000000Y-88405000D03*
X128000000Y-90945000D03*
X128000000Y-93485000D03*
X128000000Y-96025000D03*
X128000000Y-98565000D03*
X128000000Y-101105000D03*
%TD*%
D12*
%TO.C,C39*%
X107480000Y-165500000D03*
X106520000Y-165500000D03*
%TD*%
%TO.C,C16*%
X96780000Y-154300000D03*
X95820000Y-154300000D03*
%TD*%
D18*
%TO.C,R17*%
X134150000Y-168697400D03*
X134150000Y-169717400D03*
%TD*%
D61*
%TO.C,SW2*%
X86700200Y-147500000D03*
X91000000Y-147500000D03*
X86700200Y-149100200D03*
X91000000Y-149100200D03*
%TD*%
D17*
%TO.C,C6*%
X94000000Y-154500000D03*
X94000000Y-155460000D03*
%TD*%
D18*
%TO.C,R11*%
X107000000Y-154490000D03*
X107000000Y-155510000D03*
%TD*%
D12*
%TO.C,C23*%
X106060000Y-127700000D03*
X105100000Y-127700000D03*
%TD*%
D27*
%TO.C,C22*%
X92400000Y-138180000D03*
X92400000Y-137220000D03*
%TD*%
D24*
%TO.C,C13*%
X104790000Y-155750000D03*
X105750000Y-155750000D03*
%TD*%
D29*
%TO.C,D3*%
X120611200Y-132380100D03*
D30*
X119188800Y-132369900D03*
%TD*%
D62*
%TO.C,BT1*%
X100000000Y-174505000D03*
X100000000Y-189495000D03*
D63*
X72835000Y-189495000D03*
D64*
X72835000Y-174505000D03*
%TD*%
M02*
