%TF.GenerationSoftware,KiCad,Pcbnew,10.0.1*%
%TF.CreationDate,2026-05-20T17:12:26+02:00*%
%TF.ProjectId,Badge_RP2350_FPGA,42616467-655f-4525-9032-3335305f4650,v1.5.3*%
%TF.SameCoordinates,Original*%
%TF.FileFunction,Soldermask,Bot*%
%TF.FilePolarity,Negative*%
%FSLAX46Y46*%
G04 Gerber Fmt 4.6, Leading zero omitted, Abs format (unit mm)*
G04 Created by KiCad (PCBNEW 10.0.1) date 2026-05-20 17:12:26*
%MOMM*%
%LPD*%
G01*
G04 APERTURE LIST*
%ADD10C,0.000000*%
%ADD11C,1.000000*%
%ADD12C,0.650000*%
%ADD13O,2.100000X1.000000*%
%ADD14O,1.600000X1.000000*%
%ADD15R,1.700000X1.700000*%
%ADD16C,1.700000*%
%ADD17C,2.500000*%
%ADD18C,3.300000*%
%ADD19R,2.000000X2.000000*%
%ADD20C,2.000000*%
G04 APERTURE END LIST*
D10*
%TO.C,REF\u002A\u002A*%
G36*
X106282460Y-99612796D02*
G01*
X106924328Y-99612796D01*
X106924328Y-99070303D01*
X107367445Y-99070303D01*
X107367445Y-100597591D01*
X106924328Y-100597591D01*
X106924328Y-100054284D01*
X106280831Y-100054284D01*
X106280831Y-100597591D01*
X105840972Y-100597591D01*
X105840972Y-99070303D01*
X106282460Y-99070303D01*
X106282460Y-99612796D01*
G37*
G36*
X105457793Y-100668066D02*
G01*
X105474340Y-100669324D01*
X105490646Y-100671396D01*
X105506691Y-100674262D01*
X105522454Y-100677900D01*
X105537916Y-100682291D01*
X105553055Y-100687413D01*
X105567851Y-100693247D01*
X105582283Y-100699772D01*
X105596332Y-100706967D01*
X105609976Y-100714813D01*
X105623196Y-100723288D01*
X105635970Y-100732372D01*
X105648279Y-100742044D01*
X105660101Y-100752285D01*
X105671417Y-100763073D01*
X105682205Y-100774389D01*
X105692446Y-100786211D01*
X105702118Y-100798520D01*
X105711202Y-100811294D01*
X105719677Y-100824513D01*
X105727522Y-100838158D01*
X105734718Y-100852207D01*
X105741243Y-100866639D01*
X105747077Y-100881435D01*
X105752199Y-100896574D01*
X105756590Y-100912036D01*
X105760228Y-100927799D01*
X105763093Y-100943844D01*
X105765165Y-100960150D01*
X105766423Y-100976697D01*
X105766847Y-100993464D01*
X105766423Y-101010230D01*
X105765165Y-101026777D01*
X105763093Y-101043083D01*
X105760228Y-101059128D01*
X105756589Y-101074891D01*
X105752199Y-101090353D01*
X105747076Y-101105492D01*
X105741243Y-101120288D01*
X105734718Y-101134720D01*
X105727522Y-101148769D01*
X105719677Y-101162414D01*
X105711202Y-101175633D01*
X105702118Y-101188407D01*
X105692446Y-101200716D01*
X105682205Y-101212538D01*
X105671416Y-101223854D01*
X105660101Y-101234642D01*
X105648279Y-101244883D01*
X105635970Y-101254555D01*
X105623196Y-101263639D01*
X105609976Y-101272114D01*
X105596332Y-101279960D01*
X105582283Y-101287155D01*
X105567850Y-101293680D01*
X105553054Y-101299514D01*
X105537915Y-101304636D01*
X105522454Y-101309027D01*
X105506691Y-101312665D01*
X105490646Y-101315530D01*
X105474340Y-101317602D01*
X105457793Y-101318861D01*
X105441026Y-101319284D01*
X105424260Y-101318861D01*
X105407713Y-101317602D01*
X105391407Y-101315530D01*
X105375362Y-101312665D01*
X105359598Y-101309027D01*
X105344137Y-101304636D01*
X105328998Y-101299514D01*
X105314202Y-101293680D01*
X105299769Y-101287155D01*
X105285720Y-101279960D01*
X105272076Y-101272114D01*
X105258856Y-101263640D01*
X105246082Y-101254556D01*
X105233774Y-101244883D01*
X105221951Y-101234642D01*
X105210636Y-101223854D01*
X105199847Y-101212538D01*
X105189607Y-101200716D01*
X105179934Y-101188408D01*
X105170850Y-101175633D01*
X105162375Y-101162414D01*
X105154530Y-101148769D01*
X105147334Y-101134721D01*
X105140810Y-101120288D01*
X105134976Y-101105492D01*
X105129853Y-101090353D01*
X105125463Y-101074891D01*
X105121824Y-101059128D01*
X105118959Y-101043083D01*
X105116887Y-101026777D01*
X105115629Y-101010230D01*
X105115205Y-100993464D01*
X105115605Y-100977307D01*
X105116799Y-100961260D01*
X105118776Y-100945350D01*
X105121523Y-100929602D01*
X105125031Y-100914044D01*
X105129289Y-100898703D01*
X105134284Y-100883605D01*
X105140007Y-100868777D01*
X105146445Y-100854246D01*
X105153589Y-100840037D01*
X105161426Y-100826179D01*
X105169947Y-100812698D01*
X105179139Y-100799620D01*
X105188992Y-100786972D01*
X105199494Y-100774781D01*
X105210636Y-100763073D01*
X105222343Y-100751932D01*
X105234534Y-100741429D01*
X105247182Y-100731576D01*
X105260260Y-100722384D01*
X105273742Y-100713864D01*
X105287600Y-100706026D01*
X105301808Y-100698882D01*
X105316340Y-100692444D01*
X105331168Y-100686721D01*
X105346266Y-100681726D01*
X105361607Y-100677469D01*
X105377165Y-100673961D01*
X105392913Y-100671213D01*
X105408823Y-100669237D01*
X105424870Y-100668043D01*
X105441027Y-100667642D01*
X105457793Y-100668066D01*
G37*
G36*
X96973744Y-98760773D02*
G01*
X97864866Y-98760773D01*
X97864866Y-101021158D01*
X97387537Y-101021158D01*
X97387537Y-100360556D01*
X97387537Y-99905221D01*
X97387537Y-99151759D01*
X97061716Y-99151759D01*
X97046880Y-99151435D01*
X97032064Y-99151550D01*
X97017277Y-99152102D01*
X97002528Y-99153089D01*
X96987828Y-99154510D01*
X96973186Y-99156362D01*
X96958610Y-99158643D01*
X96944111Y-99161352D01*
X96929698Y-99164487D01*
X96915381Y-99168046D01*
X96901169Y-99172026D01*
X96887071Y-99176426D01*
X96873096Y-99181245D01*
X96859256Y-99186479D01*
X96845558Y-99192128D01*
X96832012Y-99198188D01*
X96821368Y-99203798D01*
X96810973Y-99209794D01*
X96800837Y-99216169D01*
X96790967Y-99222912D01*
X96781375Y-99230016D01*
X96772069Y-99237470D01*
X96763058Y-99245267D01*
X96754353Y-99253396D01*
X96745961Y-99261849D01*
X96737893Y-99270617D01*
X96730157Y-99279691D01*
X96722764Y-99289062D01*
X96715721Y-99298720D01*
X96709040Y-99308657D01*
X96702729Y-99318864D01*
X96696796Y-99329331D01*
X96686298Y-99352928D01*
X96677200Y-99376942D01*
X96669501Y-99401314D01*
X96663202Y-99425984D01*
X96658303Y-99450893D01*
X96654804Y-99475980D01*
X96652704Y-99501187D01*
X96652004Y-99526453D01*
X96652704Y-99551720D01*
X96654804Y-99576927D01*
X96658303Y-99602014D01*
X96663202Y-99626923D01*
X96669501Y-99651593D01*
X96677200Y-99675965D01*
X96686298Y-99699979D01*
X96696796Y-99723575D01*
X96702647Y-99734169D01*
X96708880Y-99744505D01*
X96715487Y-99754576D01*
X96722458Y-99764371D01*
X96729785Y-99773883D01*
X96737457Y-99783102D01*
X96745466Y-99792018D01*
X96753804Y-99800623D01*
X96762459Y-99808908D01*
X96771424Y-99816863D01*
X96780689Y-99824479D01*
X96790245Y-99831748D01*
X96800083Y-99838660D01*
X96810194Y-99845205D01*
X96820568Y-99851376D01*
X96831197Y-99857162D01*
X96844599Y-99863363D01*
X96858161Y-99869147D01*
X96871872Y-99874513D01*
X96885722Y-99879457D01*
X96899703Y-99883979D01*
X96913804Y-99888076D01*
X96928015Y-99891746D01*
X96942327Y-99894987D01*
X96956730Y-99897796D01*
X96971214Y-99900173D01*
X96985769Y-99902114D01*
X97000386Y-99903618D01*
X97015054Y-99904683D01*
X97029764Y-99905306D01*
X97044507Y-99905486D01*
X97059272Y-99905221D01*
X97318300Y-99905221D01*
X97318300Y-100288061D01*
X96986776Y-100288061D01*
X96957994Y-100288483D01*
X96929260Y-100288029D01*
X96900592Y-100286702D01*
X96872011Y-100284506D01*
X96843536Y-100281446D01*
X96815186Y-100277526D01*
X96786981Y-100272750D01*
X96758939Y-100267122D01*
X96731082Y-100260647D01*
X96703427Y-100253329D01*
X96675995Y-100245171D01*
X96648804Y-100236178D01*
X96621875Y-100226355D01*
X96595226Y-100215705D01*
X96568877Y-100204233D01*
X96542848Y-100191943D01*
X96520924Y-100180574D01*
X96499485Y-100168436D01*
X96478547Y-100155546D01*
X96458128Y-100141921D01*
X96438248Y-100127578D01*
X96418923Y-100112533D01*
X96400172Y-100096804D01*
X96382013Y-100080407D01*
X96364463Y-100063359D01*
X96347541Y-100045677D01*
X96331264Y-100027378D01*
X96315651Y-100008478D01*
X96300720Y-99988995D01*
X96286488Y-99968946D01*
X96272974Y-99948346D01*
X96260195Y-99927214D01*
X96248151Y-99904196D01*
X96236882Y-99880843D01*
X96226394Y-99857174D01*
X96216692Y-99833208D01*
X96207779Y-99808966D01*
X96199661Y-99784467D01*
X96192343Y-99759731D01*
X96185829Y-99734778D01*
X96180125Y-99709628D01*
X96175235Y-99684300D01*
X96171164Y-99658815D01*
X96167917Y-99633191D01*
X96165499Y-99607449D01*
X96163914Y-99581609D01*
X96163167Y-99555689D01*
X96163263Y-99529711D01*
X96163052Y-99503561D01*
X96163684Y-99477466D01*
X96165157Y-99451446D01*
X96167464Y-99425520D01*
X96170602Y-99399709D01*
X96174565Y-99374031D01*
X96179349Y-99348506D01*
X96184949Y-99323155D01*
X96191360Y-99297997D01*
X96198578Y-99273052D01*
X96206599Y-99248339D01*
X96215417Y-99223878D01*
X96225027Y-99199689D01*
X96235426Y-99175791D01*
X96246607Y-99152205D01*
X96258568Y-99128951D01*
X96258567Y-99128951D01*
X96270946Y-99107606D01*
X96284064Y-99086774D01*
X96297902Y-99066473D01*
X96312443Y-99046720D01*
X96327671Y-99027530D01*
X96343568Y-99008922D01*
X96360116Y-98990912D01*
X96377298Y-98973517D01*
X96395097Y-98956753D01*
X96413496Y-98940638D01*
X96432478Y-98925189D01*
X96452024Y-98910423D01*
X96472119Y-98896356D01*
X96492743Y-98883005D01*
X96513881Y-98870387D01*
X96535515Y-98858520D01*
X96561116Y-98846054D01*
X96587050Y-98834415D01*
X96613296Y-98823607D01*
X96639834Y-98813634D01*
X96666644Y-98804502D01*
X96693706Y-98796214D01*
X96721000Y-98788775D01*
X96748506Y-98782189D01*
X96776202Y-98776462D01*
X96804070Y-98771597D01*
X96832089Y-98767599D01*
X96860239Y-98764473D01*
X96888500Y-98762223D01*
X96916851Y-98760853D01*
X96945273Y-98760368D01*
X96973744Y-98760773D01*
G37*
G36*
X107429859Y-98338205D02*
G01*
X107465730Y-98341007D01*
X107501078Y-98345568D01*
X107535859Y-98351842D01*
X107570030Y-98359787D01*
X107603546Y-98369357D01*
X107636363Y-98380508D01*
X107668437Y-98393198D01*
X107699724Y-98407380D01*
X107730179Y-98423012D01*
X107759759Y-98440049D01*
X107788420Y-98458447D01*
X107816117Y-98478162D01*
X107842805Y-98499149D01*
X107868442Y-98521365D01*
X107892983Y-98544766D01*
X107916383Y-98569306D01*
X107938599Y-98594943D01*
X107959587Y-98621632D01*
X107979301Y-98649329D01*
X107997699Y-98677989D01*
X108014736Y-98707569D01*
X108030368Y-98738025D01*
X108044551Y-98769312D01*
X108057240Y-98801386D01*
X108068392Y-98834203D01*
X108077962Y-98867719D01*
X108085906Y-98901889D01*
X108092181Y-98936671D01*
X108096741Y-98972019D01*
X108099543Y-99007889D01*
X108100543Y-99044238D01*
X108100543Y-100623657D01*
X108099543Y-100660005D01*
X108096741Y-100695875D01*
X108092181Y-100731222D01*
X108085907Y-100766004D01*
X108077963Y-100800174D01*
X108068393Y-100833690D01*
X108057241Y-100866507D01*
X108044552Y-100898581D01*
X108030370Y-100929868D01*
X108014738Y-100960323D01*
X107997702Y-100989903D01*
X107979304Y-101018564D01*
X107959589Y-101046260D01*
X107938602Y-101072949D01*
X107916386Y-101098586D01*
X107892986Y-101123127D01*
X107868445Y-101146527D01*
X107842809Y-101168743D01*
X107816120Y-101189731D01*
X107788423Y-101209446D01*
X107759763Y-101227844D01*
X107730183Y-101244881D01*
X107699727Y-101260513D01*
X107668441Y-101274696D01*
X107636367Y-101287385D01*
X107603550Y-101298537D01*
X107570034Y-101308107D01*
X107535863Y-101316052D01*
X107501082Y-101322327D01*
X107465734Y-101326887D01*
X107429863Y-101329689D01*
X107393515Y-101330689D01*
X105783954Y-101330689D01*
X105804387Y-101308224D01*
X105823230Y-101284685D01*
X105840459Y-101260156D01*
X105856051Y-101234720D01*
X105869981Y-101208461D01*
X105882228Y-101181462D01*
X105892767Y-101153808D01*
X105901576Y-101125581D01*
X105908631Y-101096866D01*
X105913909Y-101067746D01*
X105917387Y-101038304D01*
X105919040Y-101008624D01*
X105918847Y-100978791D01*
X105916783Y-100948887D01*
X105912825Y-100918995D01*
X105906951Y-100889201D01*
X107393511Y-100889201D01*
X107407115Y-100888775D01*
X107420538Y-100887675D01*
X107433763Y-100885919D01*
X107446775Y-100883523D01*
X107459555Y-100880503D01*
X107472089Y-100876876D01*
X107484359Y-100872658D01*
X107496350Y-100867866D01*
X107508044Y-100862517D01*
X107519426Y-100856627D01*
X107530478Y-100850212D01*
X107541185Y-100843289D01*
X107551529Y-100835875D01*
X107561496Y-100827987D01*
X107571067Y-100819640D01*
X107580227Y-100810851D01*
X107588959Y-100801637D01*
X107597247Y-100792015D01*
X107605074Y-100782000D01*
X107612424Y-100771610D01*
X107619281Y-100760861D01*
X107625627Y-100749769D01*
X107631447Y-100738352D01*
X107636724Y-100726625D01*
X107641442Y-100714605D01*
X107645584Y-100702309D01*
X107649134Y-100689753D01*
X107652076Y-100676954D01*
X107654392Y-100663929D01*
X107656067Y-100650693D01*
X107657084Y-100637263D01*
X107657426Y-100623657D01*
X107657426Y-99044238D01*
X107657041Y-99030591D01*
X107655979Y-99017123D01*
X107654259Y-99003852D01*
X107651895Y-98990793D01*
X107648906Y-98977964D01*
X107645306Y-98965381D01*
X107641113Y-98953060D01*
X107636344Y-98941018D01*
X107631014Y-98929271D01*
X107625141Y-98917836D01*
X107618741Y-98906730D01*
X107611830Y-98895970D01*
X107604426Y-98885570D01*
X107596544Y-98875549D01*
X107588201Y-98865923D01*
X107579413Y-98856708D01*
X107570198Y-98847920D01*
X107560572Y-98839577D01*
X107550551Y-98831695D01*
X107540152Y-98824290D01*
X107529391Y-98817379D01*
X107518285Y-98810979D01*
X107506850Y-98805106D01*
X107495103Y-98799776D01*
X107483061Y-98795007D01*
X107470740Y-98790814D01*
X107458157Y-98787214D01*
X107445328Y-98784225D01*
X107432269Y-98781861D01*
X107418998Y-98780140D01*
X107405530Y-98779079D01*
X107391883Y-98778693D01*
X105814907Y-98778693D01*
X105801259Y-98779079D01*
X105787792Y-98780140D01*
X105774520Y-98781861D01*
X105761462Y-98784224D01*
X105748633Y-98787214D01*
X105736049Y-98790814D01*
X105723728Y-98795007D01*
X105711686Y-98799776D01*
X105699939Y-98805106D01*
X105688505Y-98810979D01*
X105677399Y-98817379D01*
X105666638Y-98824290D01*
X105656238Y-98831694D01*
X105646217Y-98839577D01*
X105636591Y-98847920D01*
X105627376Y-98856707D01*
X105618588Y-98865922D01*
X105610245Y-98875548D01*
X105602363Y-98885570D01*
X105594959Y-98895969D01*
X105588048Y-98906730D01*
X105581648Y-98917836D01*
X105575774Y-98929271D01*
X105570445Y-98941017D01*
X105565675Y-98953059D01*
X105561483Y-98965380D01*
X105557883Y-98977964D01*
X105554893Y-98990793D01*
X105552530Y-99003851D01*
X105550809Y-99017123D01*
X105549748Y-99030590D01*
X105549362Y-99044238D01*
X105549362Y-100530798D01*
X105519568Y-100524923D01*
X105489677Y-100520966D01*
X105459772Y-100518902D01*
X105429939Y-100518709D01*
X105400259Y-100520363D01*
X105370818Y-100523840D01*
X105341697Y-100529118D01*
X105312982Y-100536173D01*
X105284756Y-100544982D01*
X105257101Y-100555521D01*
X105230103Y-100567768D01*
X105203844Y-100581699D01*
X105178408Y-100597290D01*
X105153878Y-100614519D01*
X105130340Y-100633362D01*
X105107874Y-100653796D01*
X105107874Y-99044238D01*
X105108874Y-99007890D01*
X105111676Y-98972020D01*
X105116236Y-98936672D01*
X105122510Y-98901891D01*
X105130455Y-98867720D01*
X105140025Y-98834204D01*
X105151176Y-98801388D01*
X105163865Y-98769314D01*
X105178048Y-98738027D01*
X105193679Y-98707572D01*
X105210716Y-98677992D01*
X105229114Y-98649331D01*
X105248828Y-98621635D01*
X105269816Y-98594946D01*
X105292031Y-98569309D01*
X105315432Y-98544768D01*
X105339972Y-98521368D01*
X105365609Y-98499152D01*
X105392298Y-98478164D01*
X105419994Y-98458449D01*
X105448655Y-98440051D01*
X105478235Y-98423014D01*
X105508690Y-98407382D01*
X105539977Y-98393199D01*
X105572051Y-98380510D01*
X105604868Y-98369358D01*
X105638384Y-98359788D01*
X105672554Y-98351843D01*
X105707336Y-98345569D01*
X105742684Y-98341008D01*
X105778554Y-98338206D01*
X105814902Y-98337205D01*
X105814907Y-98337205D01*
X107393511Y-98337205D01*
X107429859Y-98338205D01*
G37*
G36*
X93845045Y-101021158D02*
G01*
X92879799Y-101021158D01*
X92852340Y-101021592D01*
X92824915Y-101021276D01*
X92797539Y-101020213D01*
X92770228Y-101018406D01*
X92742996Y-101015857D01*
X92715859Y-101012570D01*
X92688831Y-101008547D01*
X92661928Y-101003791D01*
X92635163Y-100998305D01*
X92608553Y-100992091D01*
X92582112Y-100985154D01*
X92555856Y-100977495D01*
X92529799Y-100969118D01*
X92503956Y-100960025D01*
X92478342Y-100950219D01*
X92452972Y-100939703D01*
X92433069Y-100930523D01*
X92413558Y-100920650D01*
X92394455Y-100910097D01*
X92375777Y-100898877D01*
X92357539Y-100887006D01*
X92339759Y-100874496D01*
X92322452Y-100861362D01*
X92305635Y-100847617D01*
X92289324Y-100833275D01*
X92273535Y-100818350D01*
X92258285Y-100802856D01*
X92243590Y-100786806D01*
X92229466Y-100770215D01*
X92215930Y-100753096D01*
X92202997Y-100735463D01*
X92190685Y-100717330D01*
X92179643Y-100699162D01*
X92169287Y-100680649D01*
X92159622Y-100661813D01*
X92150655Y-100642672D01*
X92142390Y-100623247D01*
X92134834Y-100603556D01*
X92127991Y-100583620D01*
X92121868Y-100563459D01*
X92116470Y-100543091D01*
X92111803Y-100522536D01*
X92107872Y-100501815D01*
X92104683Y-100480947D01*
X92102241Y-100459951D01*
X92100553Y-100438848D01*
X92099623Y-100417656D01*
X92099457Y-100396396D01*
X92099465Y-100377558D01*
X92099945Y-100363185D01*
X92592260Y-100363185D01*
X92593117Y-100377917D01*
X92594817Y-100392502D01*
X92597345Y-100406906D01*
X92600687Y-100421095D01*
X92604826Y-100435038D01*
X92609748Y-100448701D01*
X92615437Y-100462051D01*
X92621879Y-100475054D01*
X92629057Y-100487678D01*
X92636957Y-100499890D01*
X92645564Y-100511656D01*
X92654862Y-100522944D01*
X92664836Y-100533720D01*
X92675470Y-100543951D01*
X92686750Y-100553605D01*
X92702934Y-100564151D01*
X92719501Y-100573961D01*
X92736427Y-100583026D01*
X92753686Y-100591342D01*
X92771252Y-100598900D01*
X92789101Y-100605695D01*
X92807207Y-100611720D01*
X92825544Y-100616967D01*
X92844088Y-100621431D01*
X92862813Y-100625104D01*
X92881694Y-100627980D01*
X92900705Y-100630053D01*
X92919821Y-100631315D01*
X92939016Y-100631760D01*
X92958266Y-100631382D01*
X92977545Y-100630173D01*
X93367716Y-100630173D01*
X93367716Y-100029847D01*
X93367716Y-99704026D01*
X93367716Y-99146871D01*
X93004427Y-99146871D01*
X92987972Y-99146225D01*
X92971564Y-99146323D01*
X92955227Y-99147158D01*
X92938985Y-99148724D01*
X92922861Y-99151012D01*
X92906879Y-99154015D01*
X92891062Y-99157727D01*
X92875435Y-99162140D01*
X92860020Y-99167247D01*
X92844842Y-99173040D01*
X92829923Y-99179513D01*
X92815289Y-99186657D01*
X92800961Y-99194466D01*
X92786965Y-99202933D01*
X92773323Y-99212050D01*
X92760059Y-99221810D01*
X92749358Y-99231236D01*
X92739266Y-99241195D01*
X92729797Y-99251658D01*
X92720964Y-99262594D01*
X92712782Y-99273973D01*
X92705264Y-99285764D01*
X92698424Y-99297939D01*
X92692275Y-99310465D01*
X92686832Y-99323314D01*
X92682109Y-99336456D01*
X92678118Y-99349859D01*
X92674875Y-99363494D01*
X92672392Y-99377330D01*
X92670684Y-99391338D01*
X92669763Y-99405487D01*
X92669645Y-99419747D01*
X92669536Y-99429954D01*
X92669830Y-99440129D01*
X92670524Y-99450261D01*
X92671615Y-99460338D01*
X92673099Y-99470349D01*
X92674974Y-99480283D01*
X92677235Y-99490128D01*
X92679879Y-99499874D01*
X92682904Y-99509508D01*
X92686306Y-99519020D01*
X92690081Y-99528398D01*
X92694227Y-99537630D01*
X92698739Y-99546707D01*
X92703616Y-99555615D01*
X92708852Y-99564344D01*
X92714445Y-99572883D01*
X92720324Y-99580942D01*
X92726461Y-99588779D01*
X92732850Y-99596391D01*
X92739484Y-99603770D01*
X92746358Y-99610912D01*
X92753463Y-99617812D01*
X92760793Y-99624463D01*
X92768342Y-99630861D01*
X92776104Y-99636999D01*
X92784070Y-99642873D01*
X92792236Y-99648477D01*
X92800594Y-99653806D01*
X92809137Y-99658854D01*
X92817859Y-99663615D01*
X92826754Y-99668085D01*
X92835814Y-99672258D01*
X92846233Y-99676554D01*
X92856749Y-99680568D01*
X92867357Y-99684297D01*
X92878050Y-99687743D01*
X92888823Y-99690902D01*
X92899670Y-99693775D01*
X92910586Y-99696359D01*
X92921563Y-99698654D01*
X92932598Y-99700659D01*
X92943683Y-99702372D01*
X92954814Y-99703793D01*
X92965984Y-99704921D01*
X92977188Y-99705753D01*
X92988419Y-99706289D01*
X92999673Y-99706529D01*
X93010943Y-99706470D01*
X93299294Y-99706470D01*
X93299294Y-100032291D01*
X92964512Y-100032291D01*
X92951729Y-100032169D01*
X92938967Y-100032411D01*
X92926232Y-100033013D01*
X92913531Y-100033975D01*
X92900873Y-100035296D01*
X92888265Y-100036973D01*
X92875714Y-100039005D01*
X92863228Y-100041391D01*
X92850814Y-100044128D01*
X92838480Y-100047216D01*
X92826234Y-100050653D01*
X92814083Y-100054438D01*
X92802034Y-100058568D01*
X92790095Y-100063043D01*
X92778273Y-100067860D01*
X92766577Y-100073018D01*
X92756818Y-100077820D01*
X92747254Y-100082948D01*
X92737892Y-100088396D01*
X92728738Y-100094158D01*
X92719800Y-100100228D01*
X92711087Y-100106598D01*
X92702604Y-100113262D01*
X92694360Y-100120215D01*
X92686361Y-100127449D01*
X92678616Y-100134958D01*
X92671132Y-100142736D01*
X92663915Y-100150775D01*
X92656974Y-100159071D01*
X92650315Y-100167616D01*
X92643947Y-100176403D01*
X92637877Y-100185427D01*
X92632383Y-100194690D01*
X92627230Y-100204121D01*
X92622419Y-100213708D01*
X92617954Y-100223443D01*
X92613837Y-100233316D01*
X92610070Y-100243318D01*
X92606656Y-100253439D01*
X92603598Y-100263670D01*
X92600899Y-100274002D01*
X92598560Y-100284424D01*
X92596586Y-100294928D01*
X92594978Y-100305504D01*
X92593739Y-100316142D01*
X92592871Y-100326833D01*
X92592378Y-100337568D01*
X92592262Y-100348337D01*
X92592260Y-100363185D01*
X92099945Y-100363185D01*
X92100093Y-100358768D01*
X92101338Y-100340039D01*
X92103196Y-100321386D01*
X92105664Y-100302824D01*
X92108736Y-100284367D01*
X92112411Y-100266031D01*
X92116684Y-100247831D01*
X92121551Y-100229780D01*
X92127009Y-100211893D01*
X92133054Y-100194186D01*
X92139682Y-100176673D01*
X92146889Y-100159369D01*
X92154673Y-100142289D01*
X92163028Y-100125446D01*
X92171951Y-100108857D01*
X92171951Y-100108859D01*
X92180442Y-100094465D01*
X92189376Y-100080380D01*
X92198746Y-100066612D01*
X92208542Y-100053170D01*
X92218755Y-100040063D01*
X92229376Y-100027302D01*
X92240397Y-100014895D01*
X92251807Y-100002851D01*
X92263598Y-99991181D01*
X92275761Y-99979892D01*
X92288287Y-99968994D01*
X92301167Y-99958496D01*
X92314392Y-99948409D01*
X92327952Y-99938740D01*
X92341839Y-99929500D01*
X92356043Y-99920697D01*
X92370025Y-99912566D01*
X92384233Y-99904899D01*
X92398657Y-99897699D01*
X92413284Y-99890970D01*
X92428102Y-99884716D01*
X92443101Y-99878938D01*
X92458268Y-99873642D01*
X92473591Y-99868831D01*
X92489059Y-99864508D01*
X92504660Y-99860676D01*
X92520383Y-99857339D01*
X92536215Y-99854501D01*
X92552146Y-99852164D01*
X92568163Y-99850333D01*
X92584254Y-99849011D01*
X92600409Y-99848202D01*
X92600409Y-99825395D01*
X92586355Y-99822233D01*
X92572397Y-99818734D01*
X92558539Y-99814901D01*
X92544789Y-99810736D01*
X92531152Y-99806242D01*
X92517633Y-99801422D01*
X92504239Y-99796277D01*
X92490975Y-99790810D01*
X92477847Y-99785025D01*
X92464861Y-99778922D01*
X92452023Y-99772505D01*
X92439339Y-99765777D01*
X92426814Y-99758739D01*
X92414454Y-99751394D01*
X92402265Y-99743745D01*
X92390253Y-99735794D01*
X92378989Y-99727791D01*
X92367989Y-99719465D01*
X92357261Y-99710823D01*
X92346809Y-99701872D01*
X92336640Y-99692619D01*
X92326761Y-99683070D01*
X92317178Y-99673233D01*
X92307896Y-99663115D01*
X92298923Y-99652722D01*
X92290264Y-99642062D01*
X92281926Y-99631142D01*
X92273915Y-99619969D01*
X92266236Y-99608549D01*
X92258897Y-99596890D01*
X92251904Y-99584999D01*
X92245262Y-99572883D01*
X92238641Y-99559265D01*
X92232451Y-99545473D01*
X92226693Y-99531518D01*
X92221371Y-99517410D01*
X92216486Y-99503159D01*
X92212042Y-99488776D01*
X92208040Y-99474271D01*
X92204483Y-99459653D01*
X92201372Y-99444934D01*
X92198712Y-99430124D01*
X92196503Y-99415232D01*
X92194748Y-99400270D01*
X92193449Y-99385248D01*
X92192610Y-99370175D01*
X92192231Y-99355063D01*
X92192316Y-99339921D01*
X92192146Y-99320065D01*
X92192701Y-99300264D01*
X92193976Y-99280536D01*
X92195967Y-99260900D01*
X92198667Y-99241375D01*
X92202073Y-99221980D01*
X92206179Y-99202733D01*
X92210979Y-99183655D01*
X92216469Y-99164763D01*
X92222643Y-99146078D01*
X92229497Y-99127617D01*
X92237024Y-99109400D01*
X92245221Y-99091446D01*
X92254081Y-99073773D01*
X92263601Y-99056401D01*
X92273773Y-99039350D01*
X92285569Y-99022397D01*
X92297960Y-99005937D01*
X92310929Y-98989985D01*
X92324461Y-98974554D01*
X92338538Y-98959657D01*
X92353143Y-98945307D01*
X92368262Y-98931519D01*
X92383876Y-98918305D01*
X92399969Y-98905679D01*
X92416525Y-98893655D01*
X92433527Y-98882246D01*
X92450959Y-98871465D01*
X92468804Y-98861326D01*
X92487046Y-98851843D01*
X92505667Y-98843029D01*
X92524653Y-98834897D01*
X92549471Y-98825199D01*
X92574505Y-98816164D01*
X92599740Y-98807797D01*
X92625164Y-98800098D01*
X92650763Y-98793071D01*
X92676524Y-98786718D01*
X92702433Y-98781041D01*
X92728477Y-98776042D01*
X92754642Y-98771725D01*
X92780915Y-98768091D01*
X92807284Y-98765143D01*
X92833733Y-98762883D01*
X92860251Y-98761314D01*
X92886823Y-98760437D01*
X92913436Y-98760256D01*
X92940077Y-98760773D01*
X93845045Y-98760773D01*
X93845045Y-99146871D01*
X93845045Y-101021158D01*
G37*
G36*
X95039328Y-98732341D02*
G01*
X95074414Y-98733573D01*
X95109383Y-98735955D01*
X95144209Y-98739478D01*
X95178863Y-98744136D01*
X95213320Y-98749922D01*
X95247550Y-98756830D01*
X95281528Y-98764851D01*
X95315224Y-98773979D01*
X95348613Y-98784208D01*
X95381667Y-98795530D01*
X95414358Y-98807938D01*
X95446658Y-98821425D01*
X95478541Y-98835985D01*
X95509979Y-98851610D01*
X95540945Y-98868294D01*
X95570682Y-98886191D01*
X95599701Y-98905088D01*
X95627979Y-98924963D01*
X95655496Y-98945793D01*
X95682227Y-98967555D01*
X95708151Y-98990224D01*
X95733246Y-99013777D01*
X95757489Y-99038193D01*
X95780857Y-99063446D01*
X95803329Y-99089513D01*
X95824882Y-99116373D01*
X95845494Y-99144000D01*
X95865143Y-99172372D01*
X95883805Y-99201465D01*
X95901460Y-99231257D01*
X95918083Y-99261723D01*
X95935849Y-99298495D01*
X95952437Y-99335737D01*
X95967839Y-99373421D01*
X95982050Y-99411519D01*
X95995064Y-99450001D01*
X96006874Y-99488840D01*
X96017474Y-99528007D01*
X96026857Y-99567474D01*
X96035018Y-99607211D01*
X96041949Y-99647191D01*
X96047645Y-99687384D01*
X96052100Y-99727763D01*
X96055306Y-99768298D01*
X96057258Y-99808962D01*
X96057949Y-99849725D01*
X96057373Y-99890559D01*
X96057979Y-99931313D01*
X96057328Y-99971998D01*
X96055426Y-100012586D01*
X96052280Y-100053048D01*
X96047896Y-100093357D01*
X96042280Y-100133484D01*
X96035438Y-100173402D01*
X96027376Y-100213081D01*
X96018101Y-100252495D01*
X96007618Y-100291615D01*
X95995934Y-100330412D01*
X95983055Y-100368859D01*
X95968988Y-100406927D01*
X95953737Y-100444589D01*
X95937310Y-100481816D01*
X95919712Y-100518579D01*
X95903392Y-100549328D01*
X95886010Y-100579396D01*
X95867590Y-100608761D01*
X95848155Y-100637396D01*
X95827728Y-100665278D01*
X95806333Y-100692382D01*
X95783993Y-100718684D01*
X95760730Y-100744159D01*
X95736568Y-100768784D01*
X95711530Y-100792532D01*
X95685639Y-100815381D01*
X95658918Y-100837305D01*
X95631391Y-100858280D01*
X95603081Y-100878281D01*
X95574010Y-100897285D01*
X95544203Y-100915266D01*
X95513093Y-100932167D01*
X95481499Y-100947987D01*
X95449448Y-100962722D01*
X95416969Y-100976362D01*
X95384090Y-100988902D01*
X95350840Y-101000333D01*
X95317247Y-101010649D01*
X95283339Y-101019842D01*
X95249145Y-101027905D01*
X95214694Y-101034832D01*
X95180012Y-101040614D01*
X95145130Y-101045245D01*
X95110074Y-101048717D01*
X95074875Y-101051024D01*
X95039559Y-101052158D01*
X95004155Y-101052112D01*
X94979229Y-101052205D01*
X94954330Y-101051728D01*
X94929468Y-101050683D01*
X94904652Y-101049071D01*
X94879893Y-101046895D01*
X94855199Y-101044155D01*
X94830581Y-101040854D01*
X94806047Y-101036992D01*
X94781607Y-101032572D01*
X94757272Y-101027595D01*
X94733051Y-101022064D01*
X94708952Y-101015978D01*
X94684986Y-101009341D01*
X94661163Y-101002153D01*
X94637492Y-100994416D01*
X94613982Y-100986133D01*
X94593485Y-100977938D01*
X94573202Y-100969280D01*
X94553140Y-100960164D01*
X94533306Y-100950595D01*
X94513709Y-100940576D01*
X94494355Y-100930112D01*
X94475253Y-100919209D01*
X94456408Y-100907870D01*
X94437830Y-100896101D01*
X94419525Y-100883906D01*
X94401501Y-100871289D01*
X94383765Y-100858255D01*
X94366325Y-100844809D01*
X94349189Y-100830955D01*
X94332363Y-100816698D01*
X94315855Y-100802043D01*
X94300765Y-100788154D01*
X94286002Y-100773944D01*
X94271570Y-100759418D01*
X94257476Y-100744584D01*
X94243722Y-100729446D01*
X94230314Y-100714011D01*
X94217257Y-100698284D01*
X94204555Y-100682273D01*
X94192213Y-100665983D01*
X94180236Y-100649419D01*
X94168628Y-100632589D01*
X94157394Y-100615498D01*
X94146538Y-100598152D01*
X94136066Y-100580557D01*
X94125982Y-100562719D01*
X94116290Y-100544644D01*
X94107338Y-100527024D01*
X94098795Y-100509221D01*
X94090663Y-100491243D01*
X94082946Y-100473097D01*
X94075645Y-100454791D01*
X94068762Y-100436331D01*
X94062299Y-100417725D01*
X94056259Y-100398980D01*
X94050645Y-100380103D01*
X94045458Y-100361103D01*
X94040700Y-100341984D01*
X94036374Y-100322756D01*
X94032482Y-100303425D01*
X94029026Y-100283999D01*
X94026009Y-100264484D01*
X94023433Y-100244889D01*
X94506461Y-100244889D01*
X94508397Y-100255641D01*
X94510578Y-100266335D01*
X94513001Y-100276969D01*
X94515665Y-100287537D01*
X94518569Y-100298036D01*
X94521712Y-100308461D01*
X94525092Y-100318810D01*
X94528706Y-100329077D01*
X94532555Y-100339258D01*
X94536637Y-100349350D01*
X94540949Y-100359349D01*
X94545491Y-100369250D01*
X94550261Y-100379050D01*
X94555258Y-100388744D01*
X94560480Y-100398328D01*
X94565926Y-100407799D01*
X94571130Y-100416430D01*
X94576537Y-100424923D01*
X94582143Y-100433276D01*
X94587945Y-100441484D01*
X94593940Y-100449545D01*
X94600126Y-100457455D01*
X94606500Y-100465211D01*
X94613058Y-100472810D01*
X94619798Y-100480248D01*
X94626716Y-100487522D01*
X94633811Y-100494629D01*
X94641078Y-100501566D01*
X94648515Y-100508328D01*
X94656119Y-100514913D01*
X94663887Y-100521318D01*
X94671817Y-100527539D01*
X94680165Y-100533679D01*
X94688637Y-100539633D01*
X94697230Y-100545398D01*
X94705940Y-100550974D01*
X94714764Y-100556358D01*
X94723698Y-100561549D01*
X94732741Y-100566546D01*
X94741888Y-100571345D01*
X94751136Y-100575947D01*
X94760482Y-100580350D01*
X94769923Y-100584551D01*
X94779455Y-100588548D01*
X94789076Y-100592342D01*
X94798782Y-100595929D01*
X94808571Y-100599308D01*
X94818438Y-100602478D01*
X94840255Y-100608470D01*
X94862255Y-100613658D01*
X94884414Y-100618040D01*
X94906710Y-100621611D01*
X94929122Y-100624368D01*
X94951626Y-100626309D01*
X94974201Y-100627431D01*
X94996824Y-100627729D01*
X95017516Y-100628013D01*
X95038076Y-100627485D01*
X95058483Y-100626158D01*
X95078721Y-100624043D01*
X95098769Y-100621153D01*
X95118609Y-100617501D01*
X95138223Y-100613099D01*
X95157592Y-100607959D01*
X95176697Y-100602093D01*
X95195519Y-100595515D01*
X95214040Y-100588236D01*
X95232241Y-100580268D01*
X95250103Y-100571625D01*
X95267608Y-100562317D01*
X95284736Y-100552359D01*
X95301469Y-100541761D01*
X95317789Y-100530537D01*
X95333676Y-100518699D01*
X95349113Y-100506259D01*
X95364079Y-100493230D01*
X95378557Y-100479623D01*
X95392527Y-100465452D01*
X95405972Y-100450728D01*
X95418872Y-100435464D01*
X95431209Y-100419672D01*
X95442963Y-100403365D01*
X95454117Y-100386555D01*
X95464651Y-100369255D01*
X95474546Y-100351476D01*
X95483785Y-100333231D01*
X95492348Y-100314533D01*
X95500217Y-100295393D01*
X95509631Y-100271037D01*
X95518405Y-100246475D01*
X95526536Y-100221720D01*
X95534022Y-100196784D01*
X95540860Y-100171681D01*
X95547049Y-100146423D01*
X95552586Y-100121023D01*
X95557469Y-100095493D01*
X95561696Y-100069847D01*
X95565264Y-100044096D01*
X95568171Y-100018254D01*
X95570415Y-99992333D01*
X95571993Y-99966345D01*
X95572904Y-99940305D01*
X95573144Y-99914224D01*
X95572713Y-99888115D01*
X95573093Y-99862471D01*
X95572815Y-99836855D01*
X95571881Y-99811281D01*
X95570293Y-99785760D01*
X95568053Y-99760304D01*
X95565163Y-99734926D01*
X95561627Y-99709639D01*
X95557445Y-99684455D01*
X95552620Y-99659386D01*
X95547154Y-99634444D01*
X95541050Y-99609642D01*
X95534310Y-99584993D01*
X95526936Y-99560509D01*
X95518929Y-99536202D01*
X95510294Y-99512085D01*
X95501031Y-99488169D01*
X95492961Y-99469240D01*
X95484223Y-99450663D01*
X95474832Y-99432453D01*
X95464799Y-99414628D01*
X95454138Y-99397203D01*
X95442860Y-99380194D01*
X95430980Y-99363617D01*
X95418509Y-99347487D01*
X95405461Y-99331821D01*
X95391847Y-99316634D01*
X95377682Y-99301942D01*
X95362978Y-99287762D01*
X95347746Y-99274109D01*
X95332002Y-99260999D01*
X95315756Y-99248448D01*
X95299022Y-99236472D01*
X95281780Y-99225854D01*
X95264200Y-99215905D01*
X95246301Y-99206633D01*
X95228102Y-99198042D01*
X95209624Y-99190138D01*
X95190886Y-99182926D01*
X95171908Y-99176412D01*
X95152710Y-99170603D01*
X95133311Y-99165502D01*
X95113731Y-99161117D01*
X95093991Y-99157452D01*
X95074109Y-99154513D01*
X95054106Y-99152305D01*
X95034001Y-99150835D01*
X95013814Y-99150108D01*
X94993565Y-99150130D01*
X94970564Y-99150331D01*
X94947619Y-99151473D01*
X94924759Y-99153550D01*
X94902013Y-99156559D01*
X94879408Y-99160496D01*
X94856974Y-99165355D01*
X94834739Y-99171133D01*
X94812732Y-99177824D01*
X94802738Y-99181368D01*
X94792833Y-99185126D01*
X94783019Y-99189098D01*
X94773300Y-99193281D01*
X94763680Y-99197673D01*
X94754162Y-99202273D01*
X94744748Y-99207078D01*
X94735443Y-99212087D01*
X94726249Y-99217298D01*
X94717171Y-99222710D01*
X94708210Y-99228320D01*
X94699371Y-99234126D01*
X94690657Y-99240127D01*
X94682072Y-99246321D01*
X94673618Y-99252706D01*
X94665299Y-99259280D01*
X94657427Y-99265894D01*
X94649723Y-99272688D01*
X94642190Y-99279657D01*
X94634830Y-99286799D01*
X94627646Y-99294110D01*
X94620641Y-99301586D01*
X94613817Y-99309224D01*
X94607178Y-99317022D01*
X94600726Y-99324975D01*
X94594464Y-99333080D01*
X94588395Y-99341335D01*
X94582521Y-99349734D01*
X94576845Y-99358276D01*
X94571371Y-99366957D01*
X94566101Y-99375773D01*
X94561037Y-99384721D01*
X94555822Y-99394485D01*
X94550841Y-99404359D01*
X94546095Y-99414338D01*
X94541586Y-99424418D01*
X94537316Y-99434595D01*
X94533285Y-99444864D01*
X94529495Y-99455221D01*
X94525948Y-99465663D01*
X94522644Y-99476184D01*
X94519585Y-99486781D01*
X94516773Y-99497448D01*
X94514209Y-99508183D01*
X94511895Y-99518980D01*
X94509831Y-99529835D01*
X94508019Y-99540745D01*
X94506461Y-99551704D01*
X94023433Y-99551704D01*
X94023431Y-99551704D01*
X94026217Y-99529230D01*
X94029519Y-99506848D01*
X94033336Y-99484565D01*
X94037663Y-99462392D01*
X94042499Y-99440337D01*
X94047842Y-99418407D01*
X94053687Y-99396613D01*
X94060033Y-99374962D01*
X94066877Y-99353463D01*
X94074217Y-99332126D01*
X94082049Y-99310957D01*
X94090371Y-99289967D01*
X94099181Y-99269164D01*
X94108475Y-99248557D01*
X94118252Y-99228153D01*
X94128508Y-99207963D01*
X94138648Y-99189501D01*
X94149237Y-99171320D01*
X94160269Y-99153427D01*
X94171737Y-99135831D01*
X94183636Y-99118538D01*
X94195959Y-99101558D01*
X94208699Y-99084896D01*
X94221850Y-99068561D01*
X94235406Y-99052560D01*
X94249361Y-99036902D01*
X94263708Y-99021593D01*
X94278442Y-99006642D01*
X94293555Y-98992056D01*
X94309041Y-98977842D01*
X94324894Y-98964009D01*
X94341108Y-98950564D01*
X94357875Y-98937268D01*
X94374925Y-98924369D01*
X94392250Y-98911871D01*
X94409843Y-98899778D01*
X94427696Y-98888093D01*
X94445804Y-98876820D01*
X94464158Y-98865964D01*
X94482751Y-98855528D01*
X94501576Y-98845517D01*
X94520626Y-98835934D01*
X94539893Y-98826783D01*
X94559370Y-98818069D01*
X94579050Y-98809795D01*
X94598925Y-98801965D01*
X94618989Y-98794583D01*
X94639235Y-98787653D01*
X94683699Y-98774421D01*
X94728600Y-98762975D01*
X94773883Y-98753323D01*
X94819495Y-98745474D01*
X94865383Y-98739435D01*
X94911491Y-98735215D01*
X94957766Y-98732822D01*
X95004154Y-98732264D01*
X95039328Y-98732341D01*
G37*
G36*
X98461851Y-102327713D02*
G01*
X98474673Y-102346700D01*
X98515012Y-102411451D01*
X98629232Y-102604534D01*
X98740083Y-102799484D01*
X98776211Y-102866568D01*
X98786295Y-102887072D01*
X98789857Y-102896810D01*
X98786529Y-102907333D01*
X98776017Y-102929131D01*
X98730276Y-103012108D01*
X98646308Y-103156852D01*
X98517783Y-103374472D01*
X98453617Y-103482636D01*
X98428191Y-103447895D01*
X98398374Y-103402345D01*
X98356283Y-103331920D01*
X98306898Y-103245696D01*
X98255201Y-103152748D01*
X98206172Y-103062150D01*
X98164790Y-102982979D01*
X98136038Y-102924310D01*
X98127954Y-102905500D01*
X98124895Y-102895219D01*
X98127999Y-102882050D01*
X98137615Y-102858566D01*
X98172811Y-102786884D01*
X98223324Y-102692647D01*
X98281997Y-102588330D01*
X98341672Y-102486405D01*
X98395191Y-102399346D01*
X98417406Y-102365290D01*
X98435397Y-102339628D01*
X98448270Y-102323920D01*
X98452508Y-102320285D01*
X98455131Y-102319724D01*
X98461851Y-102327713D01*
G37*
G36*
X98940327Y-103143620D02*
G01*
X98948071Y-103153873D01*
X98961467Y-103174544D01*
X99001816Y-103241149D01*
X99112985Y-103433526D01*
X99219519Y-103624985D01*
X99254073Y-103690443D01*
X99263702Y-103710367D01*
X99267100Y-103719760D01*
X99266267Y-103723213D01*
X99263822Y-103729433D01*
X99254427Y-103749557D01*
X99239574Y-103778898D01*
X99219921Y-103816222D01*
X99168852Y-103909881D01*
X99106490Y-104020662D01*
X99073891Y-104077078D01*
X99042830Y-104129521D01*
X99014033Y-104176856D01*
X98988227Y-104217949D01*
X98966138Y-104251665D01*
X98956714Y-104265402D01*
X98948491Y-104276870D01*
X98941561Y-104285927D01*
X98936014Y-104292431D01*
X98931941Y-104296240D01*
X98930485Y-104297090D01*
X98929432Y-104297213D01*
X98925682Y-104294447D01*
X98919869Y-104287762D01*
X98902193Y-104262861D01*
X98876674Y-104222962D01*
X98843581Y-104168515D01*
X98755752Y-104017786D01*
X98640865Y-103814285D01*
X98588117Y-103719821D01*
X98757821Y-103425444D01*
X98792172Y-103366566D01*
X98824723Y-103312133D01*
X98854727Y-103263302D01*
X98881434Y-103221228D01*
X98904096Y-103187067D01*
X98913676Y-103173315D01*
X98921964Y-103161975D01*
X98928867Y-103153191D01*
X98934291Y-103147107D01*
X98936419Y-103145123D01*
X98938142Y-103143869D01*
X98939448Y-103143362D01*
X98940327Y-103143620D01*
G37*
G36*
X99911345Y-103148305D02*
G01*
X99914962Y-103152147D01*
X99926052Y-103166911D01*
X99941744Y-103190252D01*
X99961393Y-103221135D01*
X99984351Y-103258525D01*
X100009974Y-103301387D01*
X100037614Y-103348685D01*
X100066627Y-103399384D01*
X100123980Y-103500279D01*
X100174470Y-103588417D01*
X100212634Y-103654314D01*
X100233014Y-103688483D01*
X100256452Y-103725196D01*
X100173152Y-103862861D01*
X100134146Y-103928263D01*
X100089518Y-104004571D01*
X100044773Y-104082299D01*
X100005414Y-104151960D01*
X99988215Y-104182380D01*
X99971711Y-104210759D01*
X99956296Y-104236476D01*
X99942365Y-104258910D01*
X99936079Y-104268702D01*
X99930312Y-104277440D01*
X99925112Y-104285047D01*
X99920530Y-104291445D01*
X99916614Y-104296556D01*
X99913414Y-104300303D01*
X99910979Y-104302608D01*
X99910064Y-104303196D01*
X99909358Y-104303394D01*
X99907305Y-104301898D01*
X99903603Y-104297508D01*
X99891621Y-104280639D01*
X99874148Y-104253970D01*
X99851917Y-104218684D01*
X99796125Y-104126989D01*
X99730128Y-104015019D01*
X99562517Y-103726644D01*
X99619636Y-103624964D01*
X99679209Y-103519575D01*
X99733084Y-103425602D01*
X99780769Y-103343857D01*
X99821772Y-103275153D01*
X99855601Y-103220303D01*
X99869671Y-103198327D01*
X99881763Y-103180118D01*
X99891816Y-103165780D01*
X99899767Y-103155412D01*
X99905556Y-103149117D01*
X99907620Y-103147528D01*
X99909121Y-103146996D01*
X99911345Y-103148305D01*
G37*
G36*
X98478888Y-104013955D02*
G01*
X98516175Y-104076337D01*
X98622389Y-104259734D01*
X98727957Y-104446450D01*
X98764436Y-104512982D01*
X98781479Y-104546657D01*
X98782176Y-104549999D01*
X98782163Y-104554442D01*
X98781470Y-104559912D01*
X98780127Y-104566334D01*
X98778162Y-104573636D01*
X98775605Y-104581742D01*
X98772486Y-104590580D01*
X98768833Y-104600075D01*
X98760049Y-104620742D01*
X98749486Y-104643150D01*
X98737382Y-104666710D01*
X98723971Y-104690829D01*
X98556075Y-104979892D01*
X98545804Y-104997303D01*
X98535675Y-105014067D01*
X98525746Y-105030102D01*
X98516076Y-105045329D01*
X98506724Y-105059668D01*
X98497748Y-105073040D01*
X98489207Y-105085363D01*
X98481160Y-105096558D01*
X98473665Y-105106546D01*
X98466782Y-105115245D01*
X98460568Y-105122576D01*
X98455083Y-105128460D01*
X98452632Y-105130834D01*
X98450385Y-105132815D01*
X98448349Y-105134395D01*
X98446533Y-105135563D01*
X98444942Y-105136309D01*
X98443585Y-105136622D01*
X98442469Y-105136494D01*
X98441601Y-105135914D01*
X98421725Y-105105805D01*
X98381584Y-105039702D01*
X98268762Y-104848082D01*
X98159635Y-104658176D01*
X98124113Y-104594218D01*
X98110704Y-104567110D01*
X98114510Y-104555382D01*
X98125279Y-104532818D01*
X98163803Y-104461658D01*
X98218468Y-104366587D01*
X98281469Y-104260563D01*
X98345000Y-104156544D01*
X98401255Y-104067486D01*
X98442429Y-104006349D01*
X98454921Y-103990299D01*
X98458716Y-103986612D01*
X98460715Y-103986088D01*
X98478888Y-104013955D01*
G37*
G36*
X100385000Y-103996855D02*
G01*
X100389286Y-104000815D01*
X100402280Y-104016973D01*
X100442820Y-104076891D01*
X100496789Y-104163420D01*
X100557019Y-104264331D01*
X100616341Y-104367394D01*
X100667589Y-104460380D01*
X100703593Y-104531059D01*
X100713640Y-104554212D01*
X100717188Y-104567203D01*
X100716823Y-104570470D01*
X100715750Y-104574832D01*
X100714008Y-104580216D01*
X100711630Y-104586549D01*
X100705116Y-104601769D01*
X100696498Y-104619907D01*
X100686063Y-104640378D01*
X100674102Y-104662595D01*
X100660902Y-104685975D01*
X100646753Y-104709930D01*
X100612378Y-104767876D01*
X100570851Y-104839457D01*
X100527403Y-104915577D01*
X100487269Y-104987139D01*
X100469166Y-105019402D01*
X100451860Y-105049501D01*
X100435760Y-105076777D01*
X100421274Y-105100570D01*
X100408812Y-105120223D01*
X100403468Y-105128291D01*
X100398782Y-105135076D01*
X100394806Y-105140497D01*
X100391592Y-105144471D01*
X100389190Y-105146916D01*
X100388309Y-105147539D01*
X100387651Y-105147749D01*
X100380897Y-105141530D01*
X100368132Y-105123921D01*
X100328129Y-105060833D01*
X100274765Y-104971077D01*
X100215165Y-104867247D01*
X100156454Y-104761936D01*
X100105756Y-104667737D01*
X100070194Y-104597242D01*
X100060316Y-104574820D01*
X100056894Y-104563046D01*
X100060378Y-104550892D01*
X100070042Y-104528777D01*
X100104543Y-104460541D01*
X100153654Y-104370089D01*
X100210631Y-104269172D01*
X100268731Y-104169543D01*
X100321211Y-104082953D01*
X100361327Y-104021153D01*
X100374642Y-104003222D01*
X100382337Y-103995895D01*
X100385000Y-103996855D01*
G37*
G36*
X98001932Y-103172717D02*
G01*
X98041973Y-103240380D01*
X98154654Y-103436129D01*
X98263706Y-103629743D01*
X98299210Y-103694738D01*
X98312615Y-103721985D01*
X98302022Y-103743702D01*
X98273554Y-103796106D01*
X98182859Y-103957912D01*
X98080264Y-104137272D01*
X98005501Y-104264056D01*
X98004101Y-104266270D01*
X98002681Y-104268414D01*
X98001241Y-104270486D01*
X97999786Y-104272484D01*
X97998317Y-104274407D01*
X97996837Y-104276252D01*
X97995349Y-104278019D01*
X97993855Y-104279705D01*
X97992358Y-104281308D01*
X97990861Y-104282828D01*
X97989366Y-104284262D01*
X97987876Y-104285609D01*
X97986393Y-104286867D01*
X97984921Y-104288034D01*
X97983461Y-104289108D01*
X97982016Y-104290089D01*
X97980590Y-104290973D01*
X97979183Y-104291760D01*
X97977800Y-104292448D01*
X97976443Y-104293035D01*
X97975114Y-104293519D01*
X97973816Y-104293899D01*
X97972552Y-104294173D01*
X97971323Y-104294340D01*
X97970134Y-104294397D01*
X97968986Y-104294343D01*
X97967882Y-104294176D01*
X97966825Y-104293894D01*
X97965816Y-104293496D01*
X97964860Y-104292981D01*
X97963958Y-104292346D01*
X97963114Y-104291590D01*
X97943549Y-104262272D01*
X97903671Y-104196601D01*
X97791234Y-104004997D01*
X97682324Y-103814378D01*
X97646853Y-103749937D01*
X97633460Y-103722342D01*
X97637264Y-103710891D01*
X97648023Y-103688540D01*
X97686504Y-103617645D01*
X97741090Y-103522665D01*
X97803969Y-103416607D01*
X97867329Y-103312478D01*
X97923359Y-103223284D01*
X97964245Y-103162034D01*
X97976568Y-103145953D01*
X97980272Y-103142259D01*
X97982176Y-103141735D01*
X98001932Y-103172717D01*
G37*
G36*
X101040373Y-103422823D02*
G01*
X101213410Y-103719888D01*
X101045338Y-104011641D01*
X101018793Y-104057506D01*
X100994427Y-104099148D01*
X100972175Y-104136658D01*
X100951970Y-104170128D01*
X100933748Y-104199648D01*
X100917444Y-104225308D01*
X100902992Y-104247200D01*
X100896440Y-104256761D01*
X100890327Y-104265414D01*
X100884645Y-104273170D01*
X100879384Y-104280041D01*
X100874538Y-104286038D01*
X100870098Y-104291172D01*
X100866056Y-104295455D01*
X100862404Y-104298898D01*
X100859133Y-104301513D01*
X100856235Y-104303310D01*
X100854924Y-104303905D01*
X100853703Y-104304301D01*
X100852572Y-104304498D01*
X100851528Y-104304497D01*
X100850572Y-104304301D01*
X100849702Y-104303911D01*
X100848917Y-104303327D01*
X100848217Y-104302552D01*
X100847600Y-104301587D01*
X100847064Y-104300433D01*
X100846236Y-104297565D01*
X100845725Y-104293959D01*
X100845521Y-104289627D01*
X100842490Y-104281804D01*
X100833863Y-104264729D01*
X100802237Y-104207113D01*
X100755470Y-104125363D01*
X100698390Y-104028060D01*
X100668658Y-103977496D01*
X100640519Y-103928804D01*
X100614617Y-103883157D01*
X100591597Y-103841731D01*
X100572103Y-103805700D01*
X100556781Y-103776239D01*
X100546274Y-103754521D01*
X100543028Y-103746933D01*
X100541227Y-103741721D01*
X100540331Y-103736425D01*
X100540213Y-103730252D01*
X100540874Y-103723196D01*
X100542317Y-103715254D01*
X100544545Y-103706420D01*
X100547558Y-103696689D01*
X100551359Y-103686056D01*
X100555951Y-103674517D01*
X100561334Y-103662067D01*
X100567512Y-103648700D01*
X100582257Y-103619199D01*
X100600203Y-103585974D01*
X100621366Y-103548988D01*
X100789515Y-103260277D01*
X100867335Y-103125758D01*
X101040373Y-103422823D01*
G37*
G36*
X100397441Y-102323315D02*
G01*
X100398255Y-102323652D01*
X100399014Y-102324120D01*
X100400374Y-102325444D01*
X100413668Y-102343923D01*
X100430973Y-102370640D01*
X100474895Y-102443754D01*
X100526701Y-102534725D01*
X100580956Y-102633491D01*
X100632222Y-102729992D01*
X100675062Y-102814165D01*
X100704040Y-102875951D01*
X100711631Y-102895304D01*
X100713718Y-102905288D01*
X100709387Y-102917072D01*
X100699191Y-102938725D01*
X100683792Y-102969011D01*
X100663855Y-103006694D01*
X100613019Y-103099304D01*
X100551989Y-103206667D01*
X100551988Y-103206667D01*
X100520447Y-103260943D01*
X100490639Y-103311589D01*
X100463243Y-103357496D01*
X100438939Y-103397554D01*
X100418406Y-103430654D01*
X100402326Y-103455687D01*
X100396167Y-103464832D01*
X100391377Y-103471544D01*
X100388040Y-103475685D01*
X100386942Y-103476748D01*
X100386240Y-103477115D01*
X100379808Y-103470995D01*
X100367315Y-103453502D01*
X100327718Y-103390697D01*
X100274600Y-103301294D01*
X100215108Y-103197886D01*
X100156392Y-103093066D01*
X100105601Y-102999427D01*
X100069883Y-102929563D01*
X100059911Y-102907483D01*
X100056389Y-102896068D01*
X100057234Y-102891754D01*
X100059712Y-102884681D01*
X100069237Y-102862897D01*
X100084296Y-102831990D01*
X100104220Y-102793236D01*
X100155995Y-102697284D01*
X100219219Y-102585240D01*
X100240694Y-102548108D01*
X100260581Y-102514099D01*
X100278928Y-102483141D01*
X100295788Y-102455162D01*
X100311210Y-102430089D01*
X100325245Y-102407850D01*
X100337942Y-102388373D01*
X100349354Y-102371586D01*
X100359529Y-102357416D01*
X100364168Y-102351290D01*
X100368518Y-102345791D01*
X100372584Y-102340911D01*
X100376372Y-102336639D01*
X100379889Y-102332968D01*
X100383141Y-102329888D01*
X100386134Y-102327390D01*
X100388875Y-102325465D01*
X100391370Y-102324104D01*
X100393625Y-102323298D01*
X100395646Y-102323038D01*
X100397441Y-102323315D01*
G37*
%TD*%
D11*
%TO.C,SW12*%
X131850000Y-198067100D03*
X138650000Y-198067100D03*
%TD*%
D12*
%TO.C,J1*%
X143400000Y-184890000D03*
X143400000Y-179110000D03*
D13*
X142870000Y-186320000D03*
D14*
X147050000Y-186320000D03*
D13*
X142870000Y-177680000D03*
D14*
X147050000Y-177680000D03*
%TD*%
D15*
%TO.C,J3*%
X62900000Y-75295000D03*
D16*
X62900000Y-77835000D03*
X62900000Y-80375000D03*
X62900000Y-82915000D03*
X62900000Y-85455000D03*
X62900000Y-87995000D03*
X62900000Y-90535000D03*
X62900000Y-93075000D03*
X62900000Y-95615000D03*
X62900000Y-98155000D03*
X62900000Y-100695000D03*
X62900000Y-103235000D03*
X62900000Y-105775000D03*
X62900000Y-108315000D03*
X62900000Y-110855000D03*
%TD*%
D15*
%TO.C,J2*%
X54250000Y-149250000D03*
D16*
X54250000Y-151790000D03*
X54250000Y-154330000D03*
%TD*%
D15*
%TO.C,J4*%
X136900000Y-75255000D03*
D16*
X136900000Y-77795000D03*
X136900000Y-80335000D03*
X136900000Y-82875000D03*
X136900000Y-85415000D03*
X136900000Y-87955000D03*
X136900000Y-90495000D03*
X136900000Y-93035000D03*
X136900000Y-95575000D03*
X136900000Y-98115000D03*
X136900000Y-100655000D03*
X136900000Y-103195000D03*
X136900000Y-105735000D03*
X136900000Y-108275000D03*
X136900000Y-110815000D03*
%TD*%
D17*
%TO.C,U5*%
X128800000Y-79075000D03*
X70800000Y-79075000D03*
X128800000Y-107325000D03*
X70800000Y-107325000D03*
D15*
X128000000Y-85865000D03*
D16*
X128000000Y-88405000D03*
X128000000Y-90945000D03*
X128000000Y-93485000D03*
X128000000Y-96025000D03*
X128000000Y-98565000D03*
X128000000Y-101105000D03*
%TD*%
D18*
%TO.C,BT1*%
X100000000Y-174505000D03*
X100000000Y-189495000D03*
D19*
X72835000Y-189495000D03*
D20*
X72835000Y-174505000D03*
%TD*%
M02*
