M48
; DRILL file KiCad 10.0.1 date 2026-05-20T11:55:45
; FORMAT={-:-/ absolute / inch / decimal}
; #@! TF.CreationDate,2026-05-20T11:55:45+02:00
; #@! TF.GenerationSoftware,Kicad,Pcbnew,10.0.1
; #@! TF.FileFunction,Plated,1,2,PTH
FMAT,2
INCH
; #@! TA.AperFunction,Plated,PTH,ComponentDrill
T1C0.0098
; #@! TA.AperFunction,Plated,PTH,ViaDrill
T2C0.0118
; #@! TA.AperFunction,Plated,PTH,ComponentDrill
T3C0.0236
; #@! TA.AperFunction,Plated,PTH,ComponentDrill
T4C0.0394
; #@! TA.AperFunction,Plated,PTH,ComponentDrill
T5C0.0402
%
G90
G05
T1
X3.9341Y-5.8947
X3.9341Y-5.9488
X3.9341Y-6.003
X3.9882Y-5.8947
X3.9882Y-5.9488
X3.9882Y-6.003
X4.0423Y-5.8947
X4.0423Y-5.9488
X4.0423Y-6.003
T2
X2.0945Y-5.0787
X2.0984Y-4.7913
X2.1024Y-4.5315
X2.122Y-4.3622
X2.1811Y-5.0787
X2.185Y-4.7913
X2.189Y-4.5315
X2.2126Y-4.2638
X2.2441Y-3.3819
X2.2835Y-5.0787
X2.2874Y-4.7913
X2.2913Y-4.5315
X2.313Y-4.1644
X2.4173Y-5.3898
X2.4882Y-7.1614
X2.5157Y-6.6496
X2.5433Y-4.5236
X2.5709Y-4.6929
X2.5886Y-5.1673
X2.622Y-3.315
X2.6299Y-3.4173
X2.6378Y-3.6142
X2.7559Y-4.0118
X2.7795Y-4.5315
X2.8386Y-5.0
X2.8386Y-5.7953
X2.8898Y-3.4134
X2.8937Y-3.311
X2.8937Y-3.5157
X2.8937Y-3.6102
X3.1181Y-4.0748
X3.14Y-4.61
X3.1496Y-5.1673
X3.2174Y-5.9705
X3.245Y-5.8112
X3.245Y-5.9705
X3.2638Y-5.2638
X3.27Y-5.32
X3.275Y-5.395
X3.2756Y-6.252
X3.2774Y-5.97
X3.2775Y-5.8112
X3.3386Y-5.7323
X3.3425Y-5.9252
X3.3504Y-5.315
X3.3504Y-5.5433
X3.378Y-4.811
X3.3858Y-5.1299
X3.437Y-6.0906
X3.4685Y-3.2638
X3.49Y-4.745
X3.535Y-5.06
X3.545Y-5.205
X3.57Y-4.56
X3.5748Y-5.5394
X3.5748Y-5.7047
X3.595Y-5.195
X3.6062Y-5.1698
X3.6102Y-5.0669
X3.6182Y-5.5432
X3.62Y-5.9685
X3.63Y-5.15
X3.6304Y-5.335
X3.6417Y-5.8071
X3.6732Y-5.9409
X3.6772Y-5.0
X3.6818Y-5.6883
X3.6929Y-5.1969
X3.693Y-5.083
X3.6969Y-5.5157
X3.7244Y-5.6614
X3.752Y-5.0787
X3.7559Y-3.685
X3.763Y-5.013
X3.7835Y-5.126
X3.7835Y-5.126
X3.7874Y-5.7139
X3.8031Y-5.6378
X3.8268Y-5.5866
X3.83Y-5.71
X3.8307Y-5.7992
X3.8425Y-5.0276
X3.85Y-5.685
X3.878Y-5.7677
X3.8878Y-6.0433
X3.8898Y-4.4833
X3.8898Y-5.6339
X3.8898Y-5.935
X3.89Y-5.876
X3.89Y-5.905
X3.9154Y-5.6441
X3.9173Y-5.7283
X3.937Y-5.748
X3.937Y-5.8563
X3.9409Y-5.7087
X3.944Y-5.2707
X3.944Y-5.2707
X3.9606Y-5.0354
X3.9646Y-5.5289
X3.9734Y-5.8533
X3.9778Y-5.0139
X3.9921Y-6.7126
X3.9961Y-6.0531
X3.9971Y-4.9875
X4.0118Y-4.9606
X4.0197Y-5.6339
X4.0433Y-5.748
X4.0512Y-5.5
X4.0732Y-5.5165
X4.0748Y-5.748
X4.0826Y-5.8504
X4.1024Y-6.6299
X4.1065Y-5.5156
X4.124Y-6.0925
X4.126Y-5.4961
X4.1378Y-5.0787
X4.1621Y-5.5401
X4.1634Y-6.0925
X4.1772Y-5.063
X4.1791Y-5.3917
X4.1811Y-5.3425
X4.1811Y-5.878
X4.185Y-5.2618
X4.2Y-5.53
X4.2126Y-5.6102
X4.2126Y-4.5906
X4.2126Y-5.689
X4.2205Y-5.8477
X4.2234Y-5.375
X4.2323Y-5.311
X4.2402Y-4.8307
X4.2411Y-5.4861
X4.2481Y-5.6733
X4.2485Y-5.2648
X4.252Y-4.5866
X4.252Y-6.1516
X4.2598Y-5.1457
X4.2618Y-6.3976
X4.2835Y-5.7441
X4.298Y-5.298
X4.3071Y-4.874
X4.311Y-5.7244
X4.311Y-5.8071
X4.311Y-6.4449
X4.3268Y-5.4961
X4.3287Y-4.4626
X4.3287Y-4.4902
X4.3287Y-5.6985
X4.3287Y-5.7638
X4.3465Y-5.7865
X4.3543Y-4.685
X4.3543Y-4.7323
X4.375Y-5.9213
X4.3898Y-4.3071
X4.3898Y-6.4469
X4.4045Y-4.69
X4.4213Y-5.0591
X4.4409Y-5.4961
X4.4488Y-4.8858
X4.4488Y-5.0531
X4.4724Y-4.9331
X4.4724Y-5.0748
X4.4724Y-5.3346
X4.4764Y-5.2717
X4.5Y-4.8898
X4.5197Y-5.2136
X4.5394Y-6.248
X4.5472Y-5.2136
X4.5669Y-4.9567
X4.5669Y-5.1732
X4.5906Y-5.2047
X4.5906Y-5.2648
X4.5984Y-4.5866
X4.6102Y-5.4961
X4.6299Y-5.8898
X4.6378Y-5.5984
X4.6378Y-5.6772
X4.7165Y-5.5354
X4.74Y-5.69
X4.75Y-5.18
X4.8268Y-5.3228
X4.8937Y-5.1535
X4.9016Y-4.8701
X4.9173Y-5.6417
X4.9331Y-5.1732
X4.9528Y-5.2008
X5.045Y-4.86
X5.0472Y-6.2992
X5.0591Y-4.9252
X5.1142Y-3.5276
X5.189Y-7.0984
X5.189Y-7.3228
X5.2047Y-5.3228
X5.225Y-4.805
X5.2441Y-3.4331
X5.2559Y-6.7165
X5.2598Y-3.5984
X5.2717Y-4.5906
X5.2992Y-3.2205
X5.315Y-4.6339
X5.3386Y-6.4961
X5.3425Y-6.6102
X5.4213Y-6.9213
X5.4331Y-6.6654
X5.5197Y-6.5984
X5.5197Y-6.7638
X5.5236Y-7.0433
X5.5394Y-6.8307
X5.5472Y-4.7913
X5.563Y-6.4291
X5.5709Y-7.5157
X5.5787Y-4.7913
X5.5945Y-5.8898
X5.5984Y-5.2913
X5.6063Y-3.185
X5.6102Y-4.7913
X5.6299Y-6.5945
X5.6457Y-6.9094
X5.6575Y-4.2441
X5.6654Y-3.4882
X5.748Y-3.0669
X5.7913Y-4.2402
X5.7953Y-3.4882
X5.7992Y-5.2874
X5.811Y-5.8819
T4
X2.1358Y-5.876
X2.1358Y-5.976
X2.1358Y-6.076
X2.4764Y-2.9644
X2.4764Y-3.0644
X2.4764Y-3.1644
X2.4764Y-3.2644
X2.4764Y-3.3644
X2.4764Y-3.4644
X2.4764Y-3.5644
X2.4764Y-3.6644
X2.4764Y-3.7644
X2.4764Y-3.8644
X2.4764Y-3.9644
X2.4764Y-4.0644
X2.4764Y-4.1644
X2.4764Y-4.2644
X2.4764Y-4.3644
X5.0394Y-3.3805
X5.0394Y-3.4805
X5.0394Y-3.5805
X5.0394Y-3.6805
X5.0394Y-3.7805
X5.0394Y-3.8805
X5.0394Y-3.9805
X5.3898Y-2.9628
X5.3898Y-3.0628
X5.3898Y-3.1628
X5.3898Y-3.2628
X5.3898Y-3.3628
X5.3898Y-3.4628
X5.3898Y-3.5628
X5.3898Y-3.6628
X5.3898Y-3.7628
X5.3898Y-3.8628
X5.3898Y-3.9628
X5.3898Y-4.0628
X5.3898Y-4.1628
X5.3898Y-4.2628
X5.3898Y-4.3628
T5
X2.8675Y-6.8703
X2.8675Y-7.4604
T3
G00X5.6031Y-6.9953
M15
G01X5.6465Y-6.9953
M16
G05
G00X5.6031Y-7.3354
M15
G01X5.6465Y-7.3354
M16
G05
G00X5.7776Y-6.9953
M15
G01X5.8012Y-6.9953
M16
G05
G00X5.7776Y-7.3354
M15
G01X5.8012Y-7.3354
M16
G05
M30
